<?xml version="1.0" encoding="UTF-8"?>
<svg version="1.1" xmlns="http://www.w3.org/2000/svg" width="256" height="256">
<path d="M0 0 C1.53672103 -0.00599196 3.07343906 -0.01279903 4.6101532 -0.02035522 C8.76746079 -0.03795708 12.92468594 -0.04270821 17.0820272 -0.0439868 C19.6852813 -0.04541255 22.28851474 -0.04969022 24.89176369 -0.05498123 C33.99068141 -0.07346411 43.08954069 -0.08165426 52.18847656 -0.08007812 C60.64202175 -0.07887804 69.09531109 -0.09995874 77.54879159 -0.13156545 C84.82893808 -0.15780568 92.10900142 -0.16844215 99.38919479 -0.16716731 C103.72730984 -0.16665983 108.06519746 -0.17222294 112.403265 -0.19352341 C116.48855445 -0.21303631 120.5734026 -0.21294224 124.65870857 -0.19849014 C126.14810209 -0.19641682 127.63752419 -0.20101358 129.1268692 -0.21321106 C147.25399696 -0.35191352 162.10254308 4.84543512 175.09887695 17.53662109 C188.24091221 30.96435277 192.09895774 46.23023946 192.0847168 64.49633789 C192.09070876 66.03305892 192.09751583 67.56977695 192.10507202 69.10649109 C192.12267387 73.26379868 192.12742501 77.42102383 192.12870359 81.57836509 C192.13012935 84.18161919 192.13440702 86.78485263 192.13969803 89.38810158 C192.1581809 98.4870193 192.16637105 107.58587858 192.16479492 116.68481445 C192.16359483 125.13835964 192.18467554 133.59164898 192.21628225 142.04512948 C192.24252248 149.32527597 192.25315894 156.60533932 192.2518841 163.88553268 C192.25137663 168.22364773 192.25693973 172.56153535 192.2782402 176.89960289 C192.29775311 180.98489235 192.29765904 185.06974049 192.28320694 189.15504646 C192.28113362 190.64443998 192.28573038 192.13386208 192.29792786 193.62320709 C192.43287984 211.26018259 187.38017794 226.0958012 175.14575195 239.00537109 C161.22572478 252.53230779 146.29436703 256.75906365 127.24780273 256.69458008 C125.71063749 256.70029439 124.17347647 256.70726273 122.63632202 256.71537781 C118.49154259 256.73320813 114.34697604 256.73215996 110.2021699 256.72643542 C106.72833917 256.72332854 103.25454846 256.72945267 99.78072345 256.73547417 C91.57830927 256.74948482 83.37599931 256.74798729 75.17358398 256.73657227 C66.74211641 256.72509698 58.31096716 256.73916466 49.87954152 256.76596874 C42.61206277 256.78819827 35.34468341 256.79474677 28.07717311 256.78889233 C23.74917717 256.78553853 19.42138513 256.78783184 15.09341812 256.80514336 C11.02038032 256.8207265 6.94781027 256.8165326 2.87479019 256.79783821 C1.39023929 256.79418339 -0.09434717 256.79716877 -1.57886505 256.807724 C-19.19600599 256.92330737 -34.02640823 251.8619934 -46.9206543 239.64208984 C-60.447591 225.72206267 -64.67434685 210.79070492 -64.60986328 191.74414062 C-64.6155776 190.20697538 -64.62254593 188.66981436 -64.63066101 187.13265991 C-64.64849134 182.98788048 -64.64744316 178.84331393 -64.64171863 174.69850779 C-64.63861174 171.22467706 -64.64473587 167.75088635 -64.65075737 164.27706134 C-64.66476802 156.07464716 -64.6632705 147.8723372 -64.65185547 139.66992188 C-64.64038018 131.2384543 -64.65444786 122.80730505 -64.68125194 114.37587941 C-64.70348147 107.10840066 -64.71002998 99.8410213 -64.70417553 92.573511 C-64.70082173 88.24551506 -64.70311504 83.91772302 -64.72042656 79.58975601 C-64.7360097 75.51671822 -64.7318158 71.44414816 -64.71312141 67.37112808 C-64.70946659 65.88657718 -64.71245197 64.40199072 -64.7230072 62.91747284 C-64.84180877 44.80981648 -59.6366833 29.96761236 -46.9597168 16.98583984 C-33.53198512 3.84380458 -18.26609843 -0.01424094 0 0 Z " fill="#242938" transform="translate(64.205810546875,-0.29052734375)"/>
<path d="M0 0 C1.7421875 1.61328125 1.7421875 1.61328125 3.7421875 4.61328125 C0.06813271 4.01837202 -2.81634951 2.96934441 -6.1328125 1.30078125 C-32.90871201 -11.13473718 -67.53224484 -10.68934445 -95.05859375 -0.7265625 C-99.33356606 1.06381052 -103.34923719 3.12408017 -107.2578125 5.61328125 C-106.0821875 5.55140625 -104.9065625 5.48953125 -103.6953125 5.42578125 C-97.17545239 5.43730044 -91.89612792 8.10032571 -87.2578125 12.61328125 C-83.0004307 18.74849811 -81.54114654 24.17618162 -82.2578125 31.61328125 C-83.59852639 38.18154929 -86.83050962 41.83378599 -92.2578125 45.61328125 C-94.82675088 46.89775044 -97.02357587 46.94305269 -99.8828125 47.17578125 C-100.88570312 47.25957031 -101.88859375 47.34335938 -102.921875 47.4296875 C-103.69273438 47.49027344 -104.46359375 47.55085938 -105.2578125 47.61328125 C-103.3257231 48.41806253 -101.38673669 49.20628734 -99.4453125 49.98828125 C-98.36636719 50.42914063 -97.28742188 50.87 -96.17578125 51.32421875 C-91.33877509 52.91565647 -86.2677591 53.70238187 -81.2578125 54.61328125 C-81.2578125 43.39328125 -81.2578125 32.17328125 -81.2578125 20.61328125 C-79.2778125 20.61328125 -77.2978125 20.61328125 -75.2578125 20.61328125 C-74.5978125 20.28328125 -73.9378125 19.95328125 -73.2578125 19.61328125 C-70.6328125 19.11328125 -70.6328125 19.11328125 -67.2578125 19.61328125 C-63.77417614 22.04609494 -60.18212105 24.76466415 -58.2578125 28.61328125 C-57.83727147 33.18262124 -57.69655716 37.2943312 -59.5078125 41.55078125 C-61.37996589 43.75724775 -62.68857302 45.25729375 -65.2578125 46.61328125 C-71.40932765 47.03752367 -71.40932765 47.03752367 -74.2578125 45.61328125 C-74.5878125 48.91328125 -74.9178125 52.21328125 -75.2578125 55.61328125 C-52.254498 60.92827998 -27.73738464 58.40369424 -6.54296875 48.1015625 C-3.69629826 46.81192937 -1.33129493 46.05068387 1.7421875 45.61328125 C2.7321875 47.09828125 2.7321875 47.09828125 3.7421875 48.61328125 C-15.16181519 65.84769966 -43.5770546 71.43419516 -68.44140625 70.83203125 C-93.64387788 69.38746788 -118.45581091 62.66722822 -136.1328125 43.61328125 C-141.43012273 37.27899756 -144.65642999 30.39211369 -144.53515625 22.078125 C-143.47442222 12.65103803 -136.83083001 4.59370572 -129.8828125 -1.38671875 C-94.44202825 -28.31113544 -34.79968286 -27.72502206 0 0 Z " fill="#FEFEFE" transform="translate(167.2578125,102.38671875)"/>
<path d="M0 0 C3.81483121 3.44265255 6.76446874 7.12529681 7.5625 12.3125 C0.0965751 12.67967663 0.0965751 12.67967663 -2.4375 10.9375 C-3.4375 9.3125 -3.4375 9.3125 -3.4375 7.3125 C-9.8787993 6.66739641 -9.8787993 6.66739641 -15.4375 9.625 C-17.99810092 13.06580749 -18.58971732 15.56547432 -18.625 19.75 C-18.64626953 20.89275391 -18.64626953 20.89275391 -18.66796875 22.05859375 C-18.40435378 24.63665878 -17.91866064 26.18244994 -16.4375 28.3125 C-12.48509431 29.2049787 -9.83775614 29.77925205 -6 28.5 C-4.28706695 27.37955694 -4.28706695 27.37955694 -3.4375 25.3125 C-4.406875 25.003125 -5.37625 24.69375 -6.375 24.375 C-9.4375 23.3125 -9.4375 23.3125 -10.4375 22.3125 C-10.47842937 19.97952567 -10.47991723 17.64544775 -10.4375 15.3125 C-7.81222811 15.25867894 -5.18805287 15.21891687 -2.5625 15.1875 C-1.81613281 15.17074219 -1.06976563 15.15398437 -0.30078125 15.13671875 C1.65444461 15.1191041 3.60992021 15.20929811 5.5625 15.3125 C7.5625 17.3125 7.5625 17.3125 7.78955078 19.46728516 C7.77907715 20.33659668 7.76860352 21.2059082 7.7578125 22.1015625 C7.75136719 23.04257813 7.74492187 23.98359375 7.73828125 24.953125 C7.72152344 25.93796875 7.70476562 26.9228125 7.6875 27.9375 C7.67847656 28.93007812 7.66945312 29.92265625 7.66015625 30.9453125 C7.63654116 33.40128134 7.60360799 35.85677168 7.5625 38.3125 C3.92082401 38.40912822 1.72859462 38.18870422 -1.4375 36.3125 C-2.4275 36.9725 -3.4175 37.6325 -4.4375 38.3125 C-9.91061836 38.99170372 -14.8534637 39.06131716 -19.875 36.6875 C-26.2737291 30.75697059 -29.05405506 26.14390619 -29.75 17.375 C-29.57017401 11.57561182 -27.79799447 7.01311809 -24.1875 2.5 C-16.62868734 -3.51269189 -8.77408336 -4.30727728 0 0 Z " fill="#FDFDFD" transform="translate(187.4375,110.6875)"/>
<path d="M0 0 C3.48363636 2.43281369 7.07569145 5.1513829 9 9 C9.42054103 13.56933999 9.56125534 17.68104995 7.75 21.9375 C5.87784661 24.1439665 4.56923948 25.6440125 2 27 C-4.15151515 27.42424242 -4.15151515 27.42424242 -7 26 C-7.33 29.3 -7.66 32.6 -8 36 C-9.65 36 -11.3 36 -13 36 C-14 35 -14 35 -14.11352539 31.76538086 C-14.11336631 30.33185874 -14.10767407 28.89833088 -14.09765625 27.46484375 C-14.0962413 26.71159317 -14.09482635 25.95834259 -14.09336853 25.18226624 C-14.08775376 22.7673044 -14.07519883 20.35243399 -14.0625 17.9375 C-14.0574869 16.30403779 -14.05292366 14.67057414 -14.04882812 13.03710938 C-14.03777954 9.02470415 -14.02050506 5.01236759 -14 1 C-13.05125 1.020625 -12.1025 1.04125 -11.125 1.0625 C-6.94448544 0.97888971 -4.34352235 -0.64348479 0 0 Z " fill="#FEFEFE" transform="translate(100,122)"/>
<path d="M0 0 C6.0546875 -0.1953125 6.0546875 -0.1953125 8 0 C10 2 10 2 10.22705078 4.88916016 C10.21134033 6.69586182 10.21134033 6.69586182 10.1953125 8.5390625 C10.18886719 9.84101562 10.18242187 11.14296875 10.17578125 12.484375 C10.15906929 13.86458595 10.14213939 15.24479429 10.125 16.625 C10.11497006 18.01301452 10.10584423 19.40103589 10.09765625 20.7890625 C10.07401931 24.19278192 10.03814731 27.59641228 10 31 C15.61 31 21.22 31 27 31 C27.33 31.99 27.66 32.98 28 34 C30.01508358 34.73323796 30.01508358 34.73323796 32 35 C30.68 35 29.36 35 28 35 C28 36.65 28 38.3 28 40 C23.70838953 40.05783842 19.41687855 40.0935412 15.125 40.125 C13.90167969 40.14175781 12.67835938 40.15851563 11.41796875 40.17578125 C9.66806641 40.18544922 9.66806641 40.18544922 7.8828125 40.1953125 C6.80402832 40.20578613 5.72524414 40.21625977 4.61376953 40.22705078 C2 40 2 40 0 38 C-0.17532289 35.13111419 -0.23137614 32.36007355 -0.1953125 29.4921875 C-0.1924826 28.65156769 -0.18965271 27.81094788 -0.18673706 26.94485474 C-0.1755243 24.25475954 -0.15041803 21.5649949 -0.125 18.875 C-0.1149716 17.05339022 -0.10584551 15.23177523 -0.09765625 13.41015625 C-0.07558142 8.93997642 -0.04104434 4.47004429 0 0 Z " fill="#FBFBFB" transform="translate(198,109)"/>
<path d="M0 0 C3.60581963 1.33187932 3.9316132 1.86794273 5.8125 5.5 C7.42726254 10.44296755 7.48263691 15.00926593 6 20 C3.62380372 23.91540402 1.38303922 26.53898693 -3 28 C-7.97725826 28.3686858 -11.04429615 28.16456308 -15 25 C-18.1004338 20.14809307 -17.60797834 14.53853441 -17 9 C-15.25 5.4375 -15.25 5.4375 -13 3 C-12.443125 2.38125 -11.88625 1.7625 -11.3125 1.125 C-7.68609116 -0.63919889 -3.95874299 -0.53666058 0 0 Z " fill="#242938" transform="translate(71,115)"/>
<path d="M0 0 C3.68673922 2.20612106 6.33829763 4.82044361 8.4375 8.5625 C9 11 9 11 9 16 C3.39 16 -2.22 16 -8 16 C-8 17.65 -8 19.3 -8 21 C-4.12103838 21.36083364 -2.54063103 21.43514205 0.5625 18.9375 C3 17 3 17 5.75 17.125 C8 18 8 18 9 20 C7.31525278 23.36949443 6.1808342 24.87944386 3 27 C-0.93359461 27.79281752 -4.52732634 27.82924562 -8.07421875 25.83203125 C-11.48278688 23.05229749 -14.19391961 20.43344215 -15 16 C-15.13104473 10.72326535 -14.91212789 7.14600683 -11.5625 2.9375 C-7.4954357 -0.1375974 -5.14326101 -0.59021028 0 0 Z " fill="#FDFDFD" transform="translate(125,122)"/>
<path d="M0 0 C2.92937654 1.81310142 5.43647949 3.87295899 7 7 C7.08372659 8.52148326 7.10730027 10.04655778 7.09765625 11.5703125 C7.09443359 12.46621094 7.09121094 13.36210937 7.08789062 14.28515625 C7.07951172 15.22230469 7.07113281 16.15945312 7.0625 17.125 C7.05798828 18.06988281 7.05347656 19.01476562 7.04882812 19.98828125 C7.03702357 22.32558387 7.02055759 24.66276061 7 27 C2.125 26.125 2.125 26.125 1 25 C0.91348389 23.58429877 0.89295096 22.164405 0.90234375 20.74609375 C0.90556641 19.89208984 0.90878906 19.03808594 0.91210938 18.15820312 C0.92048828 17.26037109 0.92886719 16.36253906 0.9375 15.4375 C0.94201172 14.53580078 0.94652344 13.63410156 0.95117188 12.70507812 C0.96299775 10.46998686 0.9794778 8.23502563 1 6 C-3.33229715 6.8604139 -3.33229715 6.8604139 -7 9 C-7.15582303 10.34015221 -7.25044142 11.68758903 -7.31640625 13.03515625 C-7.35830078 13.84404297 -7.40019531 14.65292969 -7.44335938 15.48632812 C-7.48267578 16.33646484 -7.52199219 17.18660156 -7.5625 18.0625 C-7.60568359 18.91650391 -7.64886719 19.77050781 -7.69335938 20.65039062 C-7.79976702 22.76672037 -7.90041731 24.88333813 -8 27 C-12.875 26.125 -12.875 26.125 -14 25 C-14.08726223 23.21928754 -14.10699041 21.4351686 -14.09765625 19.65234375 C-14.09443359 18.57275391 -14.09121094 17.49316406 -14.08789062 16.38085938 C-14.07951172 15.24455078 -14.07113281 14.10824219 -14.0625 12.9375 C-14.05798828 11.79732422 -14.05347656 10.65714844 -14.04882812 9.48242188 C-14.03699747 6.65489649 -14.0205141 3.8274736 -14 1 C-13.05125 1.020625 -12.1025 1.04125 -11.125 1.0625 C-7.04571531 0.98091431 -4.24954111 -0.49033167 0 0 Z " fill="#FDFDFD" transform="translate(149,122)"/>
<path d="M0 0 C3.375 -0.1875 3.375 -0.1875 7 0 C9.48386059 3.72579089 9.3804212 5.58711402 9 10 C7.875 12.875 7.875 12.875 6 15 C3 16 3 16 0 16 C-1.875 15 -1.875 15 -3 13 C-3.5932427 7.75968945 -2.64473443 4.51808798 0 0 Z " fill="#242938" transform="translate(94,128)"/>
<path d="M0 0 C0.33 1.65 0.66 3.3 1 5 C-2.63 5 -6.26 5 -10 5 C-7.2178219 -0.5643562 -5.86594058 -0.12752045 0 0 Z " fill="#262B39" transform="translate(126,128)"/>
</svg>
