<?xml version="1.0" encoding="UTF-8"?>
<svg version="1.1" xmlns="http://www.w3.org/2000/svg" width="288" height="288">
<path d="M0 0 C1.53672103 -0.00599196 3.07343906 -0.01279903 4.6101532 -0.02035522 C8.76746079 -0.03795708 12.92468594 -0.04270821 17.0820272 -0.0439868 C19.6852813 -0.04541255 22.28851474 -0.04969022 24.89176369 -0.05498123 C33.99068141 -0.07346411 43.08954069 -0.08165426 52.18847656 -0.08007812 C60.64202175 -0.07887804 69.09531109 -0.09995874 77.54879159 -0.13156545 C84.82893808 -0.15780568 92.10900142 -0.16844215 99.38919479 -0.16716731 C103.72730984 -0.16665983 108.06519746 -0.17222294 112.403265 -0.19352341 C116.48855445 -0.21303631 120.5734026 -0.21294224 124.65870857 -0.19849014 C126.14810209 -0.19641682 127.63752419 -0.20101358 129.1268692 -0.21321106 C147.25399696 -0.35191352 162.10254308 4.84543512 175.09887695 17.53662109 C188.24091221 30.96435277 192.09895774 46.23023946 192.0847168 64.49633789 C192.09070876 66.03305892 192.09751583 67.56977695 192.10507202 69.10649109 C192.12267387 73.26379868 192.12742501 77.42102383 192.12870359 81.57836509 C192.13012935 84.18161919 192.13440702 86.78485263 192.13969803 89.38810158 C192.1581809 98.4870193 192.16637105 107.58587858 192.16479492 116.68481445 C192.16359483 125.13835964 192.18467554 133.59164898 192.21628225 142.04512948 C192.24252248 149.32527597 192.25315894 156.60533932 192.2518841 163.88553268 C192.25137663 168.22364773 192.25693973 172.56153535 192.2782402 176.89960289 C192.29775311 180.98489235 192.29765904 185.06974049 192.28320694 189.15504646 C192.28113362 190.64443998 192.28573038 192.13386208 192.29792786 193.62320709 C192.43287984 211.26018259 187.38017794 226.0958012 175.14575195 239.00537109 C161.22572478 252.53230779 146.29436703 256.75906365 127.24780273 256.69458008 C125.71063749 256.70029439 124.17347647 256.70726273 122.63632202 256.71537781 C118.49154259 256.73320813 114.34697604 256.73215996 110.2021699 256.72643542 C106.72833917 256.72332854 103.25454846 256.72945267 99.78072345 256.73547417 C91.57830927 256.74948482 83.37599931 256.74798729 75.17358398 256.73657227 C66.74211641 256.72509698 58.31096716 256.73916466 49.87954152 256.76596874 C42.61206277 256.78819827 35.34468341 256.79474677 28.07717311 256.78889233 C23.74917717 256.78553853 19.42138513 256.78783184 15.09341812 256.80514336 C11.02038032 256.8207265 6.94781027 256.8165326 2.87479019 256.79783821 C1.39023929 256.79418339 -0.09434717 256.79716877 -1.57886505 256.807724 C-19.19600599 256.92330737 -34.02640823 251.8619934 -46.9206543 239.64208984 C-60.447591 225.72206267 -64.67434685 210.79070492 -64.60986328 191.74414062 C-64.6155776 190.20697538 -64.62254593 188.66981436 -64.63066101 187.13265991 C-64.64849134 182.98788048 -64.64744316 178.84331393 -64.64171863 174.69850779 C-64.63861174 171.22467706 -64.64473587 167.75088635 -64.65075737 164.27706134 C-64.66476802 156.07464716 -64.6632705 147.8723372 -64.65185547 139.66992188 C-64.64038018 131.2384543 -64.65444786 122.80730505 -64.68125194 114.37587941 C-64.70348147 107.10840066 -64.71002998 99.8410213 -64.70417553 92.573511 C-64.70082173 88.24551506 -64.70311504 83.91772302 -64.72042656 79.58975601 C-64.7360097 75.51671822 -64.7318158 71.44414816 -64.71312141 67.37112808 C-64.70946659 65.88657718 -64.71245197 64.40199072 -64.7230072 62.91747284 C-64.84180877 44.80981648 -59.6366833 29.96761236 -46.9597168 16.98583984 C-33.53198512 3.84380458 -18.26609843 -0.01424094 0 0 Z " fill="#242938" transform="translate(80.205810546875,15.70947265625)"/>
<path d="M0 0 C2.19937657 -0.00959065 4.39777155 -0.04054112 6.59692383 -0.07226562 C17.1291791 -0.15273773 26.52216501 0.55148043 34.98168945 7.43554688 C41.87584433 14.27052446 45.07646529 21.87105329 45.17700195 31.55273438 C45.01535302 41.27068761 42.33367362 47.4046429 35.70825195 54.45117188 C25.6259055 63.91370195 13.3645073 63.55809993 0.17700195 63.42773438 C-1.10045898 63.42708984 -2.37791992 63.42644531 -3.6940918 63.42578125 C-13.05732289 63.38090954 -13.05732289 63.38090954 -14.19799805 62.24023438 C-14.29715599 60.34324589 -14.32599119 58.44254651 -14.32739258 56.54296875 C-14.33054474 55.3250061 -14.3336969 54.10704346 -14.33694458 52.85217285 C-14.3351548 51.51277633 -14.33310384 50.17338013 -14.33081055 48.83398438 C-14.33148364 47.47017398 -14.33245372 46.1063637 -14.33370972 44.74255371 C-14.33518642 41.88092916 -14.33303301 39.01933578 -14.32836914 36.15771484 C-14.32267185 32.48204824 -14.325951 28.80645464 -14.3319416 25.13079071 C-14.33554796 22.31361334 -14.33440829 19.4964534 -14.33181381 16.67927551 C-14.33114475 15.32363374 -14.33197226 13.96799041 -14.33429337 12.61235046 C-14.33682106 10.72073393 -14.33228818 8.82911188 -14.32739258 6.9375 C-14.32659698 5.85907837 -14.32580139 4.78065674 -14.32498169 3.66955566 C-14.00929832 -2.36977595 -4.73328679 0.0124738 0 0 Z " fill="#FEFEFE" transform="translate(105.197998046875,95.759765625)"/>
<path d="M0 0 C2.2421875 1.84375 2.2421875 1.84375 2.73046875 4.98046875 C2.64345703 6.73810547 2.64345703 6.73810547 2.5546875 8.53125 C2.50957031 9.71074219 2.46445313 10.89023438 2.41796875 12.10546875 C2.33095703 13.46091797 2.33095703 13.46091797 2.2421875 14.84375 C-0.7578125 15.84375 -0.7578125 15.84375 -2.8515625 14.8828125 C-3.645625 14.41617188 -4.4396875 13.94953125 -5.2578125 13.46875 C-11.85658355 10.01041597 -18.6666702 8.75614388 -25.9453125 10.78125 C-26.8734375 11.131875 -27.8015625 11.4825 -28.7578125 11.84375 C-28.7578125 13.82375 -28.7578125 15.80375 -28.7578125 17.84375 C-25.24880037 19.39044078 -21.7731958 20.35464213 -18.03393555 21.1875 C-10.15908642 22.95485363 -3.42618122 24.82037785 2.1796875 30.96875 C4.87120214 35.71848171 4.67426942 40.54243726 4.2421875 45.84375 C2.2124871 52.31342002 -2.92554688 56.59506521 -8.6484375 59.953125 C-19.57391384 64.51257576 -33.50662831 62.61119916 -44.3515625 58.9140625 C-46.7578125 57.84375 -46.7578125 57.84375 -48.7578125 55.84375 C-48.953125 52.8046875 -48.953125 52.8046875 -48.8828125 49.21875 C-48.86476562 48.03023437 -48.84671875 46.84171875 -48.828125 45.6171875 C-48.80492187 44.70195312 -48.78171875 43.78671875 -48.7578125 42.84375 C-46.24670347 41.91056759 -45.17217011 41.65915836 -42.6796875 42.76953125 C-41.96296875 43.22714844 -41.24625 43.68476563 -40.5078125 44.15625 C-34.15577307 47.90499458 -28.22360989 49.39677203 -20.7578125 48.84375 C-17.43595079 47.93260464 -17.43595079 47.93260464 -14.7578125 46.84375 C-14.7578125 44.86375 -14.7578125 42.88375 -14.7578125 40.84375 C-19.22468788 39.07385598 -23.59916749 37.58877914 -28.2578125 36.40625 C-36.32729854 34.23799475 -41.88432435 31.78477857 -46.7578125 24.84375 C-48.54888218 19.47054095 -48.86945446 13.28472998 -46.3203125 8.09375 C-42.70688925 2.69276755 -37.01785519 -0.31352222 -31.0703125 -2.53125 C-21.00500926 -4.50011171 -9.49760829 -3.98200008 0 0 Z " fill="#FEFEFE" transform="translate(84.7578125,98.15625)"/>
<path d="M0 0 C0.70253906 0.00386719 1.40507812 0.00773437 2.12890625 0.01171875 C2.83144531 0.00785156 3.53398437 0.00398438 4.2578125 0 C9.50229247 0.01010497 9.50229247 0.01010497 10.62890625 1.13671875 C10.72210074 2.67154845 10.74636425 4.21063957 10.74243164 5.74829102 C10.74235611 6.72923233 10.74228058 7.71017365 10.74220276 8.72084045 C10.73704147 9.78749435 10.73188019 10.85414825 10.7265625 11.953125 C10.72514755 13.03931625 10.7237326 14.12550751 10.72227478 15.24461365 C10.71665673 18.7295095 10.70410117 22.21434217 10.69140625 25.69921875 C10.68639358 28.05533762 10.68183027 30.41145749 10.67773438 32.76757812 C10.66668144 38.55731339 10.64992576 44.34701156 10.62890625 50.13671875 C11.41128662 50.13148193 12.19366699 50.12624512 12.99975586 50.12084961 C16.52196458 50.10014769 20.04416055 50.08708037 23.56640625 50.07421875 C25.41395508 50.06165039 25.41395508 50.06165039 27.29882812 50.04882812 C28.46865234 50.04560547 29.63847656 50.04238281 30.84375 50.0390625 C32.46978149 50.03120728 32.46978149 50.03120728 34.12866211 50.02319336 C36.62890625 50.13671875 36.62890625 50.13671875 37.62890625 51.13671875 C37.72741796 52.96787758 37.75863254 54.80291808 37.75390625 56.63671875 C37.75777344 58.1371875 37.75777344 58.1371875 37.76171875 59.66796875 C37.62890625 62.13671875 37.62890625 62.13671875 36.62890625 63.13671875 C33.5380916 63.23788795 30.4700807 63.27640433 27.37890625 63.26953125 C26.45045898 63.27048798 25.52201172 63.2714447 24.56542969 63.27243042 C22.5983066 63.2731123 20.63118129 63.27125747 18.6640625 63.26708984 C15.64187599 63.2617417 12.6198381 63.26703457 9.59765625 63.2734375 C7.69140592 63.27277672 5.78515568 63.27149556 3.87890625 63.26953125 C2.51330566 63.2725676 2.51330566 63.2725676 1.12011719 63.27566528 C-5.25614406 63.25166844 -5.25614406 63.25166844 -6.37109375 62.13671875 C-6.4702517 60.23973026 -6.49908689 58.33903088 -6.50048828 56.43945312 C-6.50364044 55.22149048 -6.5067926 54.00352783 -6.51004028 52.74865723 C-6.5082505 51.4092607 -6.50619955 50.06986451 -6.50390625 48.73046875 C-6.50457935 47.36665835 -6.50554942 46.00284807 -6.50680542 44.63903809 C-6.50828213 41.77741354 -6.50612872 38.91582015 -6.50146484 36.05419922 C-6.49576756 32.37853261 -6.49904671 28.70293901 -6.50503731 25.02727509 C-6.50864366 22.21009771 -6.507504 19.39293777 -6.50490952 16.57575989 C-6.50424045 15.22011812 -6.50506796 13.86447479 -6.50738907 12.50883484 C-6.50991676 10.61721831 -6.50538389 8.72559626 -6.50048828 6.83398438 C-6.49969269 5.75556274 -6.49889709 4.67714111 -6.49807739 3.56604004 C-6.26226489 -0.94528384 -3.97463675 0.00765826 0 0 Z " fill="#FEFEFF" transform="translate(160.37109375,95.86328125)"/>
<path d="M0 0 C7.70576582 3.47782351 12.34176405 10.05263091 16.4375 17.1875 C16.77942383 17.78143555 17.12134766 18.37537109 17.47363281 18.98730469 C22.22770271 27.62007657 22.0346048 36.96379336 19.6875 46.375 C14.51931839 61.69756661 -0.24593599 73.02537575 -14.12255859 80.18603516 C-33.26051985 89.66202046 -55.14686192 95.08303769 -76.546875 95.203125 C-77.35755432 95.20882507 -78.16823364 95.21452515 -79.003479 95.22039795 C-80.71796383 95.22980533 -82.43246639 95.23636489 -84.14697266 95.24023438 C-86.70119372 95.2498169 -89.25456523 95.28082826 -91.80859375 95.3125 C-106.57242611 95.40796697 -121.18025378 93.87159344 -135.375 89.625 C-136.10195068 89.41512451 -136.82890137 89.20524902 -137.57788086 88.98901367 C-144.1517188 87.04610341 -150.81920441 84.98058671 -157 82 C-157.33 81.34 -157.66 80.68 -158 80 C-156.43662827 80.45535099 -154.87434151 80.91442776 -153.3125 81.375 C-152.00732422 81.75785156 -152.00732422 81.75785156 -150.67578125 82.1484375 C-148 83 -148 83 -145.7734375 83.9765625 C-141.71592905 85.47384027 -137.55377045 86.1927396 -133.3125 87 C-131.60026042 87.33333333 -129.88802083 87.66666667 -128.17578125 88 C-127.31984375 88.16322754 -126.46390625 88.32645508 -125.58203125 88.49462891 C-123.87294367 88.82914208 -122.1669991 89.18017335 -120.46484375 89.54833984 C-114.74695422 90.77407901 -109.21495885 91.40108146 -103.375 91.625 C-102.5197876 91.66367188 -101.6645752 91.70234375 -100.78344727 91.7421875 C-93.88123805 92.02911241 -86.99615067 92.04968367 -80.08984375 91.9375 C-77 92 -77 92 -74 93 C-74 92.34 -74 91.68 -74 91 C-71.16730334 89.58365167 -68.52533562 89.6536995 -65.375 89.4375 C-64.18648438 89.35371094 -62.99796875 89.26992187 -61.7734375 89.18359375 C-60.85820312 89.12300781 -59.94296875 89.06242187 -59 89 C-59 89.66 -59 90.32 -59 91 C-58.01 90.67 -57.02 90.34 -56 90 C-55.505 88.515 -55.505 88.515 -55 87 C-48.95679072 84.91234589 -43.34833705 84.76584003 -37 85 C-36.73316406 84.37609375 -36.46632813 83.7521875 -36.19140625 83.109375 C-34.68384375 80.44024795 -32.89578515 79.62401425 -30.0859375 78.52734375 C-26.41084732 77.59824792 -22.7595807 77.76982159 -19 78 C-18.835 77.278125 -18.67 76.55625 -18.5 75.8125 C-16.32188309 71.72853079 -13.18138208 69.85839204 -9 68 C-5.5 67.6875 -5.5 67.6875 -3 68 C-2.814375 66.96875 -2.62875 65.9375 -2.4375 64.875 C-1.0835643 60.14102626 1.95760136 57.61960823 6 55 C9.4375 53.625 9.4375 53.625 12 53 C12 51.35 12 49.7 12 48 C11.34 48 10.68 48 10 48 C10.30921884 46.54096742 10.62248799 45.08279278 10.9375 43.625 C11.11152344 42.81289062 11.28554687 42.00078125 11.46484375 41.1640625 C12 39 12 39 13 37 C13.99 36.67 14.98 36.34 16 36 C16.73323796 33.98491642 16.73323796 33.98491642 17 32 C15.68 31.67 14.36 31.34 13 31 C12.67 27.7 12.34 24.4 12 21 C12.66 21 13.32 21 14 21 C14 19.68 14 18.36 14 17 C12.68 17 11.36 17 10 17 C7.96564469 13.27034861 7 11.33094958 7 7 C6.360625 6.896875 5.72125 6.79375 5.0625 6.6875 C4.381875 6.460625 3.70125 6.23375 3 6 C2.67 5.01 2.34 4.02 2 3 C1.34 3 0.68 3 0 3 C0 2.01 0 1.02 0 0 Z " fill="#788081" transform="translate(230,102)"/>
<path d="M0 0 C7.81258453 0.04860084 14.24957155 0.66628582 20.25 6 C24.22370356 12.81206324 24.65133689 20.27773052 22.7578125 27.83984375 C21.28343487 32.04257997 19.07045452 34.204021 15.5625 36.8125 C11.83114183 38.05628606 9.18579489 38.12042944 5.27734375 38.07421875 C4.10292725 38.06350342 2.92851074 38.05278809 1.71850586 38.04174805 C0.82139893 38.02797119 -0.07570801 38.01419434 -1 38 C-1.02464928 32.74894558 -1.04283568 27.49792455 -1.05493164 22.24682617 C-1.05997218 20.45905979 -1.06680454 18.67129755 -1.07543945 16.88354492 C-1.0875173 14.31948832 -1.09323094 11.75548603 -1.09765625 9.19140625 C-1.10281754 8.3872377 -1.10797882 7.58306915 -1.11329651 6.75453186 C-1.11349215 4.83598285 -1.06201983 2.91754632 -1 1 C-0.67 0.67 -0.34 0.34 0 0 Z " fill="#232938" transform="translate(109,108)"/>
<path d="M0 0 C1.56337173 0.45535099 3.12565849 0.91442776 4.6875 1.375 C5.55761719 1.63023437 6.42773438 1.88546875 7.32421875 2.1484375 C10 3 10 3 12.2265625 3.9765625 C16.28407095 5.47384027 20.44622955 6.1927396 24.6875 7 C26.39973958 7.33333333 28.11197917 7.66666667 29.82421875 8 C31.108125 8.24484131 31.108125 8.24484131 32.41796875 8.49462891 C34.12705633 8.82914208 35.8330009 9.18017335 37.53515625 9.54833984 C43.25304578 10.77407901 48.78504115 11.40108146 54.625 11.625 C55.4802124 11.66367188 56.3354248 11.70234375 57.21655273 11.7421875 C64.11876195 12.02911241 71.00384933 12.04968367 77.91015625 11.9375 C81 12 81 12 84 13 C84 12.34 84 11.68 84 11 C86.83269666 9.58365167 89.47466438 9.6536995 92.625 9.4375 C94.40777344 9.31181641 94.40777344 9.31181641 96.2265625 9.18359375 C97.14179688 9.12300781 98.05703125 9.06242188 99 9 C99 9.66 99 10.32 99 11 C99.99 10.67 100.98 10.34 102 10 C102.33 9.01 102.66 8.02 103 7 C107.72749644 5.47758589 112.00460969 4.53531253 117 5 C117.99 5.66 118.98 6.32 120 7 C120 7.66 120 8.32 120 9 C104.67251965 13.85657243 88.96001122 15.51573472 72.94775391 15.39111328 C70.49975944 15.37499842 68.05341479 15.39110419 65.60546875 15.41015625 C51.08172012 15.42990019 36.5819576 13.80045504 22.625 9.625 C21.53457397 9.31018677 21.53457397 9.31018677 20.42211914 8.98901367 C13.8482812 7.04610341 7.18079559 4.98058671 1 2 C0.67 1.34 0.34 0.68 0 0 Z " fill="#B3B6B4" transform="translate(72,182)"/>
<path d="M0 0 C0.66 0 1.32 0 2 0 C2 0.66 2 1.32 2 2 C3.56240032 2.02730408 5.1249427 2.04653226 6.6875 2.0625 C7.55761719 2.07410156 8.42773438 2.08570313 9.32421875 2.09765625 C11.96684558 2.08350514 11.96684558 2.08350514 14.35546875 1.46875 C17.86772951 0.8461927 21.07421099 1.15385709 24.625 1.4375 C29.80740347 1.8535074 29.80740347 1.8535074 35 2 C35 1.34 35 0.68 35 0 C36.32 0 37.64 0 39 0 C39 0.66 39 1.32 39 2 C41.475 2.495 41.475 2.495 44 3 C44 4.32 44 5.64 44 7 C27.33333333 7 10.66666667 7 -6 7 C-6 5.02 -6 3.04 -6 1 C-4.7934375 1.0309375 -4.7934375 1.0309375 -3.5625 1.0625 C-1.06645115 1.29633621 -1.06645115 1.29633621 0 0 Z " fill="#1B304B" transform="translate(129,162)"/>
<path d="M0 0 C0.66 0 1.32 0 2 0 C2.33 0.66 2.66 1.32 3 2 C4.32 2 5.64 2 7 2 C7 3.65 7 5.3 7 7 C3.7 7 0.4 7 -3 7 C-3 7.66 -3 8.32 -3 9 C-3.66 9 -4.32 9 -5 9 C-5 8.34 -5 7.68 -5 7 C-10.28 7 -15.56 7 -21 7 C-20.67 6.34 -20.34 5.68 -20 5 C-20.33 4.01 -20.66 3.02 -21 2 C-17.17143191 0.92321522 -14.04669183 1.16127721 -10.13671875 1.7421875 C-6.74743464 2.1511322 -3.41042788 2.0609005 0 2 C0 1.34 0 0.68 0 0 Z " fill="#1A314D" transform="translate(113,162)"/>
<path d="M0 0 C0.66 0 1.32 0 2 0 C2 1.65 2 3.3 2 5 C2.99 5 3.98 5 5 5 C5 3.68 5 2.36 5 1 C11 1 17 1 23 1 C22.67 2.65 22.34 4.3 22 6 C15.25 6.125 15.25 6.125 13 5 C12.67 5.99 12.34 6.98 12 8 C11.67 6.68 11.34 5.36 11 4 C10.34 4 9.68 4 9 4 C9 4.66 9 5.32 9 6 C6.03 6 3.06 6 0 6 C0 4.02 0 2.04 0 0 Z " fill="#1A314C" transform="translate(175,163)"/>
<path d="M0 0 C0 0.66 0 1.32 0 2 C-6.33307408 3.85102717 -12.42465139 5.37968409 -19 6 C-18.5 3.125 -18.5 3.125 -17 0 C-11.22074672 -2.11905954 -5.3711949 -3.5807966 0 0 Z " fill="#939999" transform="translate(192,189)"/>
<path d="M0 0 C0 0.66 0 1.32 0 2 C0.99 2.33 1.98 2.66 3 3 C-1.13418591 4.94456928 -4.769997 5.37028021 -9.3125 5.625 C-10.56675781 5.69976562 -11.82101563 5.77453125 -13.11328125 5.8515625 C-14.54220703 5.92503906 -14.54220703 5.92503906 -16 6 C-16.33 5.34 -16.66 4.68 -17 4 C-16.34 4 -15.68 4 -15 4 C-15 3.34 -15 2.68 -15 2 C-12.6132527 0.80662635 -10.71678465 0.68305056 -8.0625 0.4375 C-7.18722656 0.35371094 -6.31195313 0.26992187 -5.41015625 0.18359375 C-3 0 -3 0 0 0 Z " fill="#A3A7A6" transform="translate(171,191)"/>
<path d="M0 0 C1.56337173 0.45535099 3.12565849 0.91442776 4.6875 1.375 C5.55761719 1.63023437 6.42773438 1.88546875 7.32421875 2.1484375 C10 3 10 3 12.21875 3.97265625 C16.31924332 5.48730477 20.52813358 6.23336949 24.8125 7.0625 C25.67681641 7.23587891 26.54113281 7.40925781 27.43164062 7.58789062 C32.60848276 8.60763085 37.75686988 9.40931054 43 10 C43 10.33 43 10.66 43 11 C29.36654779 14.03299267 13.26798372 7.91603276 1 2 C0.67 1.34 0.34 0.68 0 0 Z " fill="#919497" transform="translate(72,182)"/>
<path d="M0 0 C6.78073852 2.9665731 12.59908096 9.49389402 16 16 C15.75 18.375 15.75 18.375 15 20 C14.67 19.34 14.34 18.68 14 18 C13.38125 17.9175 12.7625 17.835 12.125 17.75 C10 17 10 17 8.25 14.1875 C7 11 7 11 7 7 C6.360625 6.896875 5.72125 6.79375 5.0625 6.6875 C4.381875 6.460625 3.70125 6.23375 3 6 C2.67 5.01 2.34 4.02 2 3 C1.34 3 0.68 3 0 3 C0 2.01 0 1.02 0 0 Z " fill="#969B9C" transform="translate(230,102)"/>
<path d="M0 0 C3.125 0.375 3.125 0.375 6 1 C6.625 3.375 6.625 3.375 7 6 C4.52620632 8.47379368 2.3071065 8.96652922 -1 10 C-1.99 10.495 -1.99 10.495 -3 11 C-2.88590407 9.54077307 -2.75834456 8.08259402 -2.625 6.625 C-2.55539063 5.81289062 -2.48578125 5.00078125 -2.4140625 4.1640625 C-2 2 -2 2 0 0 Z " fill="#233D59" transform="translate(236,149)"/>
<path d="M0 0 C13.365 0.495 13.365 0.495 27 1 C27 1.66 27 2.32 27 3 C23.97910522 3.02716089 20.95845871 3.04691657 17.9375 3.0625 C17.08994141 3.07087891 16.24238281 3.07925781 15.36914062 3.08789062 C10.47873985 3.10677248 5.79593449 3.01268736 1 2 C0.67 1.34 0.34 0.68 0 0 Z " fill="#C7C9C5" transform="translate(108,193)"/>
<path d="M0 0 C1.65 0 3.3 0 5 0 C5 1.65 5 3.3 5 5 C2.625 5.625 2.625 5.625 0 6 C-0.66 5.34 -1.32 4.68 -2 4 C-1.34 2.68 -0.68 1.36 0 0 Z " fill="#213C59" transform="translate(223,165)"/>
<path d="M0 0 C1.67542976 0.28604898 3.34385343 0.61781233 5 1 C4.67 2.65 4.34 4.3 4 6 C2.35 5.67 0.7 5.34 -1 5 C-1 1 -1 1 0 0 Z " fill="#1C3755" transform="translate(242,133)"/>
<path d="M0 0 C1.65 0 3.3 0 5 0 C4.67 1.65 4.34 3.3 4 5 C1.03 4.505 1.03 4.505 -2 4 C-1.34 2.68 -0.68 1.36 0 0 Z " fill="#243E5A" transform="translate(207,176)"/>
<path d="M0 0 C1.32 0.33 2.64 0.66 4 1 C3.67 2.32 3.34 3.64 3 5 C0.69 4.67 -1.62 4.34 -4 4 C-3.01 3.67 -2.02 3.34 -1 3 C-0.67 2.01 -0.34 1.02 0 0 Z " fill="#263E5A" transform="translate(190,183)"/>
<path d="M0 0 C1.45823212 -0.0270043 2.91660675 -0.04639787 4.375 -0.0625 C5.18710938 -0.07410156 5.99921875 -0.08570313 6.8359375 -0.09765625 C9 0 9 0 11 1 C11 1.66 11 2.32 11 3 C9.35333797 2.8864371 7.70763918 2.75882619 6.0625 2.625 C5.14597656 2.55539063 4.22945313 2.48578125 3.28515625 2.4140625 C2.15400391 2.20910156 2.15400391 2.20910156 1 2 C0.67 1.34 0.34 0.68 0 0 Z " fill="#B4B7B6" transform="translate(108,193)"/>
</svg>
