<?xml version="1.0" encoding="UTF-8"?>
<svg version="1.1" xmlns="http://www.w3.org/2000/svg" width="256" height="256">
<path d="M0 0 C1.53672103 -0.00599196 3.07343906 -0.01279903 4.6101532 -0.02035522 C8.76746079 -0.03795708 12.92468594 -0.04270821 17.0820272 -0.0439868 C19.6852813 -0.04541255 22.28851474 -0.04969022 24.89176369 -0.05498123 C33.99068141 -0.07346411 43.08954069 -0.08165426 52.18847656 -0.08007812 C60.64202175 -0.07887804 69.09531109 -0.09995874 77.54879159 -0.13156545 C84.82893808 -0.15780568 92.10900142 -0.16844215 99.38919479 -0.16716731 C103.72730984 -0.16665983 108.06519746 -0.17222294 112.403265 -0.19352341 C116.48855445 -0.21303631 120.5734026 -0.21294224 124.65870857 -0.19849014 C126.14810209 -0.19641682 127.63752419 -0.20101358 129.1268692 -0.21321106 C147.25399696 -0.35191352 162.10254308 4.84543512 175.09887695 17.53662109 C188.24091221 30.96435277 192.09895774 46.23023946 192.0847168 64.49633789 C192.09070876 66.03305892 192.09751583 67.56977695 192.10507202 69.10649109 C192.12267387 73.26379868 192.12742501 77.42102383 192.12870359 81.57836509 C192.13012935 84.18161919 192.13440702 86.78485263 192.13969803 89.38810158 C192.1581809 98.4870193 192.16637105 107.58587858 192.16479492 116.68481445 C192.16359483 125.13835964 192.18467554 133.59164898 192.21628225 142.04512948 C192.24252248 149.32527597 192.25315894 156.60533932 192.2518841 163.88553268 C192.25137663 168.22364773 192.25693973 172.56153535 192.2782402 176.89960289 C192.29775311 180.98489235 192.29765904 185.06974049 192.28320694 189.15504646 C192.28113362 190.64443998 192.28573038 192.13386208 192.29792786 193.62320709 C192.43287984 211.26018259 187.38017794 226.0958012 175.14575195 239.00537109 C161.22572478 252.53230779 146.29436703 256.75906365 127.24780273 256.69458008 C125.71063749 256.70029439 124.17347647 256.70726273 122.63632202 256.71537781 C118.49154259 256.73320813 114.34697604 256.73215996 110.2021699 256.72643542 C106.72833917 256.72332854 103.25454846 256.72945267 99.78072345 256.73547417 C91.57830927 256.74948482 83.37599931 256.74798729 75.17358398 256.73657227 C66.74211641 256.72509698 58.31096716 256.73916466 49.87954152 256.76596874 C42.61206277 256.78819827 35.34468341 256.79474677 28.07717311 256.78889233 C23.74917717 256.78553853 19.42138513 256.78783184 15.09341812 256.80514336 C11.02038032 256.8207265 6.94781027 256.8165326 2.87479019 256.79783821 C1.39023929 256.79418339 -0.09434717 256.79716877 -1.57886505 256.807724 C-19.19600599 256.92330737 -34.02640823 251.8619934 -46.9206543 239.64208984 C-60.447591 225.72206267 -64.67434685 210.79070492 -64.60986328 191.74414062 C-64.6155776 190.20697538 -64.62254593 188.66981436 -64.63066101 187.13265991 C-64.64849134 182.98788048 -64.64744316 178.84331393 -64.64171863 174.69850779 C-64.63861174 171.22467706 -64.64473587 167.75088635 -64.65075737 164.27706134 C-64.66476802 156.07464716 -64.6632705 147.8723372 -64.65185547 139.66992188 C-64.64038018 131.2384543 -64.65444786 122.80730505 -64.68125194 114.37587941 C-64.70348147 107.10840066 -64.71002998 99.8410213 -64.70417553 92.573511 C-64.70082173 88.24551506 -64.70311504 83.91772302 -64.72042656 79.58975601 C-64.7360097 75.51671822 -64.7318158 71.44414816 -64.71312141 67.37112808 C-64.70946659 65.88657718 -64.71245197 64.40199072 -64.7230072 62.91747284 C-64.84180877 44.80981648 -59.6366833 29.96761236 -46.9597168 16.98583984 C-33.53198512 3.84380458 -18.26609843 -0.01424094 0 0 Z " fill="#272C3B" transform="translate(64.205810546875,-0.29052734375)"/>
<path d="M0 0 C4.55623701 4.69054785 6.39728771 9.84561885 6.5625 16.3125 C5.61409357 34.14254089 5.61409357 34.14254089 -0.0625 39.375 C-1.031875 40.24125 -2.00125 41.1075 -3 42 C-3.74259349 44.31029085 -4.411438 46.645752 -5 49 C-6.5625 52.4375 -6.5625 52.4375 -9 55 C-11.38704892 55.29405675 -13.49183742 55.19572212 -15.87890625 54.91796875 C-18.07659729 54.80005741 -18.07659729 54.80005741 -19.71484375 56.30078125 C-21.20563948 58.08349859 -21.20563948 58.08349859 -22 61 C-20.02 61.495 -20.02 61.495 -18 62 C-17.63372093 67.49418605 -17.63372093 67.49418605 -19.3125 69.8125 C-21 71 -21 71 -24 72 C-24 72.99 -24 73.98 -24 75 C-25.375 77.1875 -25.375 77.1875 -27 79 C-27.66 79 -28.32 79 -29 79 C-29.061875 79.680625 -29.12375 80.36125 -29.1875 81.0625 C-30.27524609 84.99512049 -32.34572936 87.92402281 -35 91 C-38.38270494 92.69135247 -42.22006273 92.34703402 -45.95703125 92.5234375 C-49.3278831 93.05135011 -51.27228074 93.97605172 -54 96 C-55.34689915 98.57099402 -55.34689915 98.57099402 -56 101 C-53.36 101 -50.72 101 -48 101 C-47 104 -47 104 -48.375 107 C-51.42471972 110.48539397 -53.50317172 111.17700884 -57.87890625 112.26171875 C-60.31463334 113.10951326 -61.39737583 113.99793758 -63 116 C-63.495 117.485 -63.495 117.485 -64 119 C-64.66 119 -65.32 119 -66 119 C-66.103125 120.010625 -66.20625 121.02125 -66.3125 122.0625 C-66.89651148 125.40729304 -67.75155099 127.84846666 -69.16796875 130.890625 C-70.9569988 135.42619414 -71.90224768 140.25864422 -73 145 C-70.36 145 -67.72 145 -65 145 C-65 145.66 -65 146.32 -65 147 C-66.32 147.33 -67.64 147.66 -69 148 C-69 148.99 -69 149.98 -69 151 C-70.98 151.99 -70.98 151.99 -73 153 C-72.34 153.33 -71.68 153.66 -71 154 C-71 154.99 -71 155.98 -71 157 C-69.68 157 -68.36 157 -67 157 C-67.33 157.99 -67.66 158.98 -68 160 C-68.99 160.33 -69.98 160.66 -71 161 C-70.67 161.99 -70.34 162.98 -70 164 C-73.96 164.99 -77.92 165.98 -82 167 C-82.24234375 168.19496094 -82.4846875 169.38992187 -82.734375 170.62109375 C-85.88824293 185.73139254 -85.88824293 185.73139254 -89.12890625 192.1875 C-90.47981371 194.99835678 -91.15254982 198.00567602 -92 201 C-92.95564988 203.02156704 -93.94274747 205.02966574 -95 207 C-95.99 206.67 -96.98 206.34 -98 206 C-97.7917111 197.61163812 -95.25926751 190.6731095 -92 183 C-91.34 183 -90.68 183 -90 183 C-89.62875 181.2984375 -89.62875 181.2984375 -89.25 179.5625 C-87.57745938 172.02394734 -85.77722859 164.51439855 -84 157 C-84.58394531 156.86335937 -85.16789062 156.72671875 -85.76953125 156.5859375 C-89.04028355 155.72672061 -91.96700591 154.4878839 -95 153 C-95.33 152.01 -95.66 151.02 -96 150 C-94.35 150 -92.7 150 -91 150 C-91.66 148.68 -92.32 147.36 -93 146 C-92.01 146 -91.02 146 -90 146 C-90.33 144.02 -90.66 142.04 -91 140 C-90.01 140 -89.02 140 -88 140 C-88 139.34 -88 138.68 -88 138 C-84.28400809 137.79913557 -83.22791555 137.8480563 -80 140 C-80 138.35 -80 136.7 -80 135 C-79.01 135 -78.02 135 -77 135 C-76.505 135.99 -76.505 135.99 -76 137 C-74.84466243 134.14936292 -73.70060488 131.29501186 -72.5625 128.4375 C-72.23701172 127.63763672 -71.91152344 126.83777344 -71.57617188 126.01367188 C-69.70938569 121.29859338 -68.48154481 117.05282937 -68 112 C-68.66 112 -69.32 112 -70 112 C-70.25 104.375 -70.25 104.375 -68 101 C-65.375 100.8125 -65.375 100.8125 -63 101 C-60.19444138 94.61828933 -59.54035645 89.24306528 -59.4375 82.3125 C-59.19025605 69.19025605 -59.19025605 69.19025605 -56 66 C-56.226875 65.46375 -56.45375 64.9275 -56.6875 64.375 C-57.11213924 61.14774177 -55.72721313 59.42902904 -54.05859375 56.75 C-52.75539838 54.59564013 -51.85896606 52.36215666 -51 50 C-50.34 50 -49.68 50 -49 50 C-48.67 48.68 -48.34 47.36 -48 46 C-47.01 46 -46.02 46 -45 46 C-44.67 43.69 -44.34 41.38 -44 39 C-41.525 40.98 -41.525 40.98 -39 43 C-39.02320313 42.41992188 -39.04640625 41.83984375 -39.0703125 41.2421875 C-39.2015417 35.56183773 -38.5769002 31.15380039 -36 26 C-35.01 26 -34.02 26 -33 26 C-32.95746094 25.13246094 -32.91492188 24.26492187 -32.87109375 23.37109375 C-31.74258697 19.00382312 -29.36105067 16.91099497 -26.0625 14.0625 C-25.48000488 13.54324951 -24.89750977 13.02399902 -24.29736328 12.48901367 C-8.08102185 -1.7429655 -8.08102185 -1.7429655 0 0 Z " fill="#A2A4A8" transform="translate(151,24)"/>
<path d="M0 0 C3.33833238 5.59978335 5.13174658 9.52251728 5.25 16.125 C5.27578125 16.99382813 5.3015625 17.86265625 5.328125 18.7578125 C5.21984375 19.49773438 5.1115625 20.23765625 5 21 C4.01 21.66 3.02 22.32 2 23 C1.31069248 25.28507347 1.31069248 25.28507347 1 27.875 C0.44811798 31.72667661 -0.25190755 34.16138215 -3 37 C-5.32817964 37.36760731 -7.6618385 37.70241581 -10 38 C-10.66 38.99 -11.32 39.98 -12 41 C-11.34 41 -10.68 41 -10 41 C-9.1875 43.125 -9.1875 43.125 -9 46 C-11.36099429 50.3149206 -11.36099429 50.3149206 -14 52 C-16.68486576 52.33245203 -19.10083697 52.25779578 -21.79296875 52.015625 C-22.52128906 52.01046875 -23.24960938 52.0053125 -24 52 C-24.66 52.66 -25.32 53.32 -26 54 C-25.67451547 56.47368244 -25.12572999 58.66472002 -24.25 61 C-24 63 -24 63 -24.75 65.6875 C-27.97540906 69.00250375 -30.86403462 68.48874575 -35.3359375 68.70703125 C-38.95606062 69.10513863 -40.60144384 70.30162432 -43 73 C-44.78962819 75.61857695 -44.78962819 75.61857695 -46 78 C-43.36 78 -40.72 78 -38 78 C-39.54947022 82.39016562 -41.66966004 86.66966004 -45 90 C-46.60875 90.2165625 -46.60875 90.2165625 -48.25 90.4375 C-51.52233274 90.92834991 -54.01261388 91.64209722 -57 93 C-56.63861574 87.45877471 -54.96817823 83.50506859 -52.3515625 78.625 C-49.15724939 72.42101615 -47.53356455 67.46602998 -47.3125 60.5625 C-47.27833984 59.83095703 -47.24417969 59.09941406 -47.20898438 58.34570312 C-47.12748247 56.56430438 -47.06204477 54.78218251 -47 53 C-46.01 53 -45.02 53 -44 53 C-43.67 54.32 -43.34 55.64 -43 57 C-42.34 57 -41.68 57 -41 57 C-40.7525 56.34 -40.505 55.68 -40.25 55 C-39 52 -39 52 -37.94140625 50.09765625 C-35.99102056 46.58156301 -34.96334285 44.6720478 -35.1875 40.5625 C-35.75442901 38.09213193 -35.75442901 38.09213193 -37 37 C-37.04092937 34.66702567 -37.04241723 32.33294775 -37 30 C-36.34 30 -35.68 30 -35 30 C-35 28.68 -35 27.36 -35 26 C-34.34 26 -33.68 26 -33 26 C-32.95746094 25.13246094 -32.91492188 24.26492187 -32.87109375 23.37109375 C-31.74258697 19.00382312 -29.36105067 16.91099497 -26.0625 14.0625 C-25.48000488 13.54324951 -24.89750977 13.02399902 -24.29736328 12.48901367 C-9.81840031 -0.21818667 -9.81840031 -0.21818667 0 0 Z " fill="#B6B6B7" transform="translate(151,24)"/>
<path d="M0 0 C0.99 0.495 0.99 0.495 2 1 C2.92375988 21.90434384 2.92375988 21.90434384 -2.46484375 28.90234375 C-3.96290366 30.28319604 -5.48081164 31.64242743 -7 33 C-7.74259349 35.31029085 -8.411438 37.645752 -9 40 C-10.5625 43.4375 -10.5625 43.4375 -13 46 C-15.38704892 46.29405675 -17.49183742 46.19572212 -19.87890625 45.91796875 C-22.07659729 45.80005741 -22.07659729 45.80005741 -23.71484375 47.30078125 C-25.20563948 49.08349859 -25.20563948 49.08349859 -26 52 C-24.68 52.33 -23.36 52.66 -22 53 C-21.63372093 58.49418605 -21.63372093 58.49418605 -23.3125 60.8125 C-25 62 -25 62 -28 63 C-28 63.99 -28 64.98 -28 66 C-29.375 68.1875 -29.375 68.1875 -31 70 C-31.66 70 -32.32 70 -33 70 C-33.061875 70.680625 -33.12375 71.36125 -33.1875 72.0625 C-34.27524609 75.99512049 -36.34572936 78.92402281 -39 82 C-42.38270494 83.69135247 -46.22006273 83.34703402 -49.95703125 83.5234375 C-53.3278831 84.05135011 -55.27228074 84.97605172 -58 87 C-59.34689915 89.57099402 -59.34689915 89.57099402 -60 92 C-57.36 92 -54.72 92 -52 92 C-51 95 -51 95 -52.375 98 C-55.8227421 101.94027669 -59.05750076 102.73479301 -64 104 C-65.485 104.495 -65.485 104.495 -67 105 C-66.70738281 104.14535156 -66.41476563 103.29070312 -66.11328125 102.41015625 C-65.39329305 100.2047187 -64.72044098 97.98308882 -64.10546875 95.74609375 C-60.89929962 84.19024161 -60.89929962 84.19024161 -56 81 C-54.865625 80.9175 -53.73125 80.835 -52.5625 80.75 C-48.31007925 79.85475353 -47.94448288 79.0611924 -45.625 75.5625 C-44.32977018 73.40493803 -43.12502765 71.2500553 -42 69 C-44.64 69 -47.28 69 -50 69 C-48.89167404 65.12085915 -47.15597566 62.52715295 -43.98828125 59.98828125 C-40.61456815 58.31136688 -37.10404644 58.43866673 -33.390625 58.43359375 C-30.85092023 58.26121555 -30.85092023 58.26121555 -29.65234375 56.09375 C-28.86284707 53.55979658 -29.1688442 52.4934674 -30 50 C-30.75 47.4375 -30.75 47.4375 -31 45 C-29.82421875 43.33984375 -29.82421875 43.33984375 -28 42 C-25.66015625 41.8828125 -25.66015625 41.8828125 -23.0625 42.125 C-18.83074129 42.30343096 -18.83074129 42.30343096 -15.375 39.8125 C-13.94384467 36.88513683 -13.63353299 35.20658632 -14 32 C-14.66 32 -15.32 32 -16 32 C-15.34 30.68 -14.68 29.36 -14 28 C-11.69 28 -9.38 28 -7 28 C-4.85817487 24.17848628 -4.31522536 20.52875627 -3.66015625 16.2421875 C-3 14 -3 14 0 12 C0.36498034 9.10391601 0.36498034 9.10391601 0.1875 5.875 C0.16042969 4.77929688 0.13335937 3.68359375 0.10546875 2.5546875 C0.07066406 1.71164063 0.03585938 0.86859375 0 0 Z " fill="#727374" transform="translate(155,33)"/>
<path d="M0 0 C0.33 0.99 0.66 1.98 1 3 C1.62648438 2.98839844 2.25296875 2.97679688 2.8984375 2.96484375 C3.71570313 2.95582031 4.53296875 2.94679688 5.375 2.9375 C6.18710938 2.92589844 6.99921875 2.91429688 7.8359375 2.90234375 C10 3 10 3 12 4 C12 4.99 12 5.98 12 7 C13.65 6.67 15.3 6.34 17 6 C16.67 9.3 16.34 12.6 16 16 C17.32 16.33 18.64 16.66 20 17 C20 17.66 20 18.32 20 19 C16.1537165 21.37323875 12.80372866 23.12843799 8.4375 24.3125 C4.0561042 25.65602852 1.97140824 27.73185722 -0.7109375 31.37890625 C-3.68501492 35.11903391 -7.57371438 35.83079248 -12 37 C-11.67 39.64 -11.34 42.28 -11 45 C-8.69 45.33 -6.38 45.66 -4 46 C-3.67 47.32 -3.34 48.64 -3 50 C-1.68 50.33 -0.36 50.66 1 51 C0.34 51.66 -0.32 52.32 -1 53 C-1.433125 54.2684375 -1.433125 54.2684375 -1.875 55.5625 C-2.24625 56.366875 -2.6175 57.17125 -3 58 C-5.0625 58.6875 -5.0625 58.6875 -7 59 C-7.33 59.66 -7.66 60.32 -8 61 C-7.05125 60.95875 -6.1025 60.9175 -5.125 60.875 C-2 61 -2 61 0 63 C-1.98 63.99 -1.98 63.99 -4 65 C-4 65.66 -4 66.32 -4 67 C-5.65 67 -7.3 67 -9 67 C-9 67.66 -9 68.32 -9 69 C-8.34 69.33 -7.68 69.66 -7 70 C-9.31 69.67 -11.62 69.34 -14 69 C-13.67 69.99 -13.34 70.98 -13 72 C-16.8063457 71.32829194 -20.35206816 70.27253436 -24 69 C-24 68.67 -24 68.34 -24 68 C-19.05 67.505 -19.05 67.505 -14 67 C-14 66.34 -14 65.68 -14 65 C-14.66 64.67 -15.32 64.34 -16 64 C-15.360625 63.71125 -14.72125 63.4225 -14.0625 63.125 C-11.84793921 62.17176549 -11.84793921 62.17176549 -11 60 C-12.32 60 -13.64 60 -15 60 C-15 59.01 -15 58.02 -15 57 C-15.99 56.67 -16.98 56.34 -18 56 C-17.67 55.34 -17.34 54.68 -17 54 C-15.68 54 -14.36 54 -13 54 C-13 53.01 -13 52.02 -13 51 C-11.02 50.505 -11.02 50.505 -9 50 C-9 49.34 -9 48.68 -9 48 C-11.64 48 -14.28 48 -17 48 C-16.64157731 42.66073784 -15.86140736 38.02097561 -13.83203125 33.0625 C-12.37082039 29.44034349 -11.21144062 25.71164785 -10 22 C-9.34 22 -8.68 22 -8 22 C-7.896875 21.21625 -7.79375 20.4325 -7.6875 19.625 C-7 17 -7 17 -4 15 C-2.50901004 14.5327151 -1.0078487 14.09713223 0.5 13.6875 C3.82807858 12.62684406 4.80252427 12.24534864 7.0625 9.4375 C8.11965969 7.12414693 8.11965969 7.12414693 8 5 C5.36 4.67 2.72 4.34 0 4 C0 2.68 0 1.36 0 0 Z " fill="#41444E" transform="translate(95,121)"/>
<path d="M0 0 C2.69767442 8.59883721 2.69767442 8.59883721 2 12 C0.37185436 14.60008049 -1.36415937 16.41849562 -4 18 C-7.07118612 18.48439846 -9.92077645 18.36950683 -13 18 C-13.33 19.32 -13.66 20.64 -14 22 C-12.35 22.99 -10.7 23.98 -9 25 C-9.54261811 28.79832675 -10.95110073 30.69272487 -14 33 C-17.33159215 33.47594174 -19.12202162 33.64385081 -21.875 31.625 C-23 30 -23 30 -23 28 C-23.66 28 -24.32 28 -25 28 C-26.4606285 25.35261084 -27 24.10551666 -27 21 C-27.66 21 -28.32 21 -29 21 C-26.92404963 12.46001255 -19.36257985 7.96338631 -12.41796875 3.24609375 C-8.18204159 0.71319693 -5.069301 -0.64991038 0 0 Z " fill="#E8E9EA" transform="translate(151,24)"/>
<path d="M0 0 C1.32 0.33 2.64 0.66 4 1 C4 1.66 4 2.32 4 3 C3.34 3 2.68 3 2 3 C1.26669459 6.30225402 0.87175176 9.38565155 0.82421875 12.765625 C0.80037109 13.65636719 0.77652344 14.54710938 0.75195312 15.46484375 C0.70935123 17.3057619 0.67790326 19.14697561 0.65820312 20.98828125 C0.45819761 27.45357575 -0.95019333 32.29769289 -4 38 C-5.65 38 -7.3 38 -9 38 C-9.66 41.3 -10.32 44.6 -11 48 C-10.34 48 -9.68 48 -9 48 C-8.55317428 54.1728146 -10.05431018 58.69299357 -12.375 64.375 C-12.69210938 65.19355469 -13.00921875 66.01210937 -13.3359375 66.85546875 C-15.72724185 72.86362092 -15.72724185 72.86362092 -18 74 C-18 73.01 -18 72.02 -18 71 C-18.99 71 -19.98 71 -21 71 C-21 72.65 -21 74.3 -21 76 C-23.64 75.34 -26.28 74.68 -29 74 C-29 74.66 -29 75.32 -29 76 C-29.99 76 -30.98 76 -32 76 C-31.67 77.32 -31.34 78.64 -31 80 C-31.66 79.67 -32.32 79.34 -33 79 C-32.41196203 75.97580475 -31.77321882 72.98241547 -31 70 C-29.68 70.33 -28.36 70.66 -27 71 C-27 70.34 -27 69.68 -27 69 C-25.68 69 -24.36 69 -23 69 C-21.19682779 65.03302114 -20.50797009 61.3177458 -20 57 C-19.34 57 -18.68 57 -18 57 C-17.87625 56.46375 -17.7525 55.9275 -17.625 55.375 C-17 53 -17 53 -16.0625 50.5 C-15.10908155 47.35932747 -14.59401295 44.48743453 -14.125 41.25 C-13.0970046 34.69041028 -11.04117731 28.84396895 -7.9296875 22.984375 C-6.94444313 20.88141642 -6.5272125 19.03194032 -6.125 16.75 C-5.29215903 12.70572423 -3.90181748 9.42327146 -1.90234375 5.82421875 C-0.95213182 3.90322753 -0.44758562 2.09027097 0 0 Z " fill="#636363" transform="translate(92,88)"/>
<path d="M0 0 C0.33 0 0.66 0 1 0 C0.93960341 3.02284948 0.85242308 6.04101909 0.75 9.0625 C0.73582031 9.91005859 0.72164062 10.75761719 0.70703125 11.63085938 C0.47657573 17.59965724 -0.73398432 21.0104273 -4 26 C-4.87118677 28.03866211 -4.87118677 28.03866211 -5.4375 29.875 C-6.82558302 33.79652417 -8.74653349 37.25231789 -10.81640625 40.8515625 C-12.14192482 43.16675123 -12.14192482 43.16675123 -13.4375 46.4375 C-17.50467614 55.7106616 -23.33908553 63.42868372 -30 71 C-30.87011719 72.13115234 -30.87011719 72.13115234 -31.7578125 73.28515625 C-34.23616772 76.08025193 -36.1647497 77.83084634 -40.0078125 78.18505859 C-45.05400127 78.21648889 -50.00509015 77.67544804 -55 77 C-55 76.67 -55 76.34 -55 76 C-53.78763672 75.97873047 -53.78763672 75.97873047 -52.55078125 75.95703125 C-45.8389917 75.73945359 -45.8389917 75.73945359 -39.9375 72.875 C-37.75724917 69.63978909 -36.36015321 66.65093758 -35 63 C-34.34 63 -33.68 63 -33 63 C-31.5393715 60.35261084 -31 59.10551666 -31 56 C-30.38125 55.71125 -29.7625 55.4225 -29.125 55.125 C-26.86674235 54.06279958 -26.86674235 54.06279958 -25 52 C-24.83318891 48.91652174 -24.83318891 48.91652174 -25 46 C-26.485 45.505 -26.485 45.505 -28 45 C-27.64978759 42.46096004 -27.15988127 41.17906702 -25.4375 39.25 C-22.77638129 37.88532374 -21.88422087 37.96728947 -19 38.1875 C-16.92629069 38.32606207 -16.92629069 38.32606207 -15 38 C-12.18716388 34.96509787 -11.14218436 32.5585814 -10.125 28.5625 C-8.99250639 24.97627024 -8.62872565 24.52043241 -6.0625 22.1875 C-0.74330234 16.5951895 -0.88191211 7.31058723 0 0 Z " fill="#58595B" transform="translate(157,40)"/>
<path d="M0 0 C4.75 0.875 4.75 0.875 7 2 C7 5.3 7 8.6 7 12 C9.31 12 11.62 12 14 12 C14 13.65 14 15.3 14 17 C13.01 17.33 12.02 17.66 11 18 C11 18.66 11 19.32 11 20 C8.36 20 5.72 20 3 20 C2.67 20.99 2.34 21.98 2 23 C1.525625 23.45375 1.05125 23.9075 0.5625 24.375 C-1.37092514 26.38576214 -2.0831564 28.39052205 -3 31 C0.465 30.505 0.465 30.505 4 30 C3.9375 32.75 3.9375 32.75 3 36 C-0.91786524 38.7877118 -4.18087526 40.41586367 -9 41 C-9 41.66 -9 42.32 -9 43 C-9.66 43 -10.32 43 -11 43 C-11 44.32 -11 45.64 -11 47 C-11.66 47 -12.32 47 -13 47 C-13.33 48.98 -13.66 50.96 -14 53 C-13.34 53 -12.68 53 -12 53 C-13 55 -14 57 -15 59 C-15.66 59 -16.32 59 -17 59 C-17.4021875 60.2065625 -17.4021875 60.2065625 -17.8125 61.4375 C-18.4003125 62.7059375 -18.4003125 62.7059375 -19 64 C-20.485 64.495 -20.485 64.495 -22 65 C-21.63861574 59.45877471 -19.96817823 55.50506859 -17.3515625 50.625 C-14.15724939 44.42101615 -12.53356455 39.46602998 -12.3125 32.5625 C-12.27833984 31.83095703 -12.24417969 31.09941406 -12.20898438 30.34570312 C-12.12748247 28.56430438 -12.06204477 26.78218251 -12 25 C-11.01 25 -10.02 25 -9 25 C-8.67 26.32 -8.34 27.64 -8 29 C-7.34 29 -6.68 29 -6 29 C-5.7525 28.34 -5.505 27.68 -5.25 27 C-4 24 -4 24 -2.94140625 22.09765625 C-0.99102056 18.58156301 0.03665715 16.6720478 -0.1875 12.5625 C-0.75442901 10.09213193 -0.75442901 10.09213193 -2 9 C-2.04092937 6.66702567 -2.04241723 4.33294775 -2 2 C-1.34 2 -0.68 2 0 2 C0 1.34 0 0.68 0 0 Z " fill="#DADADA" transform="translate(116,52)"/>
<path d="M0 0 C0.99 0.495 0.99 0.495 2 1 C1.70202625 8.53873597 0.84022383 13.4121112 -4.90234375 18.77734375 C-6.29440154 20.00349521 -7.70204468 21.2121881 -9.125 22.40234375 C-11.09897523 24.01738551 -11.09897523 24.01738551 -13 26.1875 C-15.42339467 28.38370142 -17.93298101 29.5515186 -20.875 30.94140625 C-22.93896794 31.96959616 -24.81975028 33.11631633 -26.75 34.375 C-32.9010902 38.31364274 -39.55710714 41.36825673 -46.1484375 44.4921875 C-48.6641263 45.82240103 -50.44706468 47.06782558 -52.5 49 C-59.25071106 54.95477569 -66.76026668 56.75097822 -75.5625 57.3125 C-79.96514146 57.71414448 -82.81091304 59.4025299 -86.37109375 61.94140625 C-88 63 -88 63 -90 63 C-90.33 63.99 -90.66 64.98 -91 66 C-96.22745859 67.2063366 -100.76528314 66.75612577 -106 66 C-106 65.34 -106 64.68 -106 64 C-104.85724609 63.97873047 -104.85724609 63.97873047 -103.69140625 63.95703125 C-95.44944178 63.57631629 -88.96163399 61.96163399 -83 56 C-80.75987376 55.65835912 -78.5511901 55.55867373 -76.2890625 55.44140625 C-73.51569608 54.90661034 -72.23125337 53.69677062 -70 52 C-67.34375 51.12109375 -67.34375 51.12109375 -64.5 50.4375 C-61.09991244 49.61083036 -57.99584955 48.85037766 -55 47 C-53.84478498 44.52869082 -53.84478498 44.52869082 -53 42 C-51 40 -51 40 -47.6875 39.875 C-41.52275248 39.24186377 -36.86498423 35.43930982 -31.796875 32.13476562 C-27.609733 29.49049443 -23.22888539 27.16049494 -18.8984375 24.76171875 C-16.49385616 23.30017403 -14.91988794 21.98714516 -13 20 C-12.34 20 -11.68 20 -11 20 C-11 19.34 -11 18.68 -11 18 C-10.34 18 -9.68 18 -9 18 C-8.7215625 17.443125 -8.443125 16.88625 -8.15625 16.3125 C-5.4375 10.875 -2.71875 5.4375 0 0 Z " fill="#3D414D" transform="translate(210,144)"/>
<path d="M0 0 C0.33 0.99 0.66 1.98 1 3 C1.62648438 2.98839844 2.25296875 2.97679688 2.8984375 2.96484375 C3.71570313 2.95582031 4.53296875 2.94679688 5.375 2.9375 C6.18710938 2.92589844 6.99921875 2.91429688 7.8359375 2.90234375 C10 3 10 3 12 4 C12 4.99 12 5.98 12 7 C13.65 6.67 15.3 6.34 17 6 C16.67 9.3 16.34 12.6 16 16 C17.32 16.33 18.64 16.66 20 17 C20 17.66 20 18.32 20 19 C16.1537165 21.37323875 12.80372866 23.12843799 8.4375 24.3125 C4.0561042 25.65602852 1.97140824 27.73185722 -0.7109375 31.37890625 C-2 33 -2 33 -5 35 C-8.1875 35.125 -8.1875 35.125 -11 35 C-10.67 34.34 -10.34 33.68 -10 33 C-8.35 33 -6.7 33 -5 33 C-4.566875 32.13375 -4.566875 32.13375 -4.125 31.25 C-3.08333333 29.16666667 -2.04166667 27.08333333 -1 25 C-2.98 24.34 -4.96 23.68 -7 23 C-6.625 20.3125 -6.625 20.3125 -5 17 C-2.5243152 15.5326097 0.01868242 14.40118463 2.64453125 13.2265625 C5.60707887 11.68387601 6.82219012 10.11278325 8 7 C8 6.34 8 5.68 8 5 C5.36 4.67 2.72 4.34 0 4 C0 2.68 0 1.36 0 0 Z M-13 35 C-12.01 35.495 -12.01 35.495 -11 36 C-11.99 36.495 -11.99 36.495 -13 37 C-13 36.34 -13 35.68 -13 35 Z " fill="#434545" transform="translate(95,121)"/>
<path d="M0 0 C0.33 1.32 0.66 2.64 1 4 C0.34 4 -0.32 4 -1 4 C-0.41825155 9.3086849 -0.41825155 9.3086849 2 14 C1.8627087 19.76623442 -1.10535597 24.19339553 -4 29 C-4.66 29 -5.32 29 -6 29 C-6 28.01 -6 27.02 -6 26 C-6.66 26 -7.32 26 -8 26 C-8.33 25.34 -8.66 24.68 -9 24 C-9.66 24 -10.32 24 -11 24 C-11.33 25.65 -11.66 27.3 -12 29 C-12.66 29 -13.32 29 -14 29 C-13.89300781 29.89203125 -13.78601563 30.7840625 -13.67578125 31.703125 C-13.55589844 32.87359375 -13.43601562 34.0440625 -13.3125 35.25 C-13.18488281 36.41015625 -13.05726562 37.5703125 -12.92578125 38.765625 C-13 42 -13 42 -14.23046875 44.421875 C-16 46 -16 46 -20 46 C-21.6498007 49.29960141 -21.38258361 52.99127884 -21.5625 56.625 C-21.60568359 57.42679688 -21.64886719 58.22859375 -21.69335938 59.0546875 C-21.79951457 61.0362511 -21.90026855 63.01810271 -22 65 C-22.33 65 -22.66 65 -23 65 C-23.05410136 61.93726169 -23.09372225 58.87548548 -23.125 55.8125 C-23.14175781 54.94818359 -23.15851563 54.08386719 -23.17578125 53.19335938 C-23.21024062 48.6964114 -23.1966048 45.0596511 -21 41 C-20.505 40.505 -20.505 40.505 -20 40 C-20.226875 39.46375 -20.45375 38.9275 -20.6875 38.375 C-21.11213924 35.14774177 -19.72721313 33.42902904 -18.05859375 30.75 C-16.75539838 28.59564013 -15.85896606 26.36215666 -15 24 C-14.34 24 -13.68 24 -13 24 C-12.67 22.68 -12.34 21.36 -12 20 C-11.01 20 -10.02 20 -9 20 C-8.67 17.69 -8.34 15.38 -8 13 C-6.35 14.32 -4.7 15.64 -3 17 C-3.02320312 16.41992188 -3.04640625 15.83984375 -3.0703125 15.2421875 C-3.2015417 9.56183773 -2.5769002 5.15380039 0 0 Z " fill="#999A9B" transform="translate(115,50)"/>
<path d="M0 0 C-6.5540504 3.96903227 -13.0390701 7.65716271 -20.13671875 10.56640625 C-29.28640642 15.14749135 -35.75334457 21.51606107 -42.51757812 29.07421875 C-47.58607728 34.42979168 -51.61431772 36.4768439 -59 37 C-59.66 37 -60.32 37 -61 37 C-61 37.99 -61 38.98 -61 40 C-62.65 39.67 -64.3 39.34 -66 39 C-66 38.34 -66 37.68 -66 37 C-66.66 36.67 -67.32 36.34 -68 36 C-67.01 35.505 -67.01 35.505 -66 35 C-66 34.34 -66 33.68 -66 33 C-64.35 33 -62.7 33 -61 33 C-61 32.34 -61 31.68 -61 31 C-61.66 30.67 -62.32 30.34 -63 30 C-61.35 30.33 -59.7 30.66 -58 31 C-58 31.66 -58 32.32 -58 33 C-53.89001881 33.48928347 -52.27346616 33.1788048 -48.75 30.875 C-45.83954975 28.27197854 -45.83954975 28.27197854 -45.14453125 25.1015625 C-42.2338401 17.2138875 -31.19372402 11.06944242 -24 7 C-21.36339104 5.88171413 -18.70476733 4.94904117 -16 4 C-15.34 3.34 -14.68 2.68 -14 2 C-11.50390625 1.11328125 -11.50390625 1.11328125 -8.5625 0.3125 C-7.11037109 -0.09548828 -7.11037109 -0.09548828 -5.62890625 -0.51171875 C-3 -1 -3 -1 0 0 Z " fill="#454954" transform="translate(147,157)"/>
<path d="M0 0 C0.99 0 1.98 0 3 0 C3.66 0.66 4.32 1.32 5 2 C4.69713185 7.79143005 2.75391184 12.67991261 0.5625 18 C-1.58861565 23.28686567 -3.53875741 28.47811846 -5 34 C-6.45606519 29.47907032 -5.27032841 26.48351204 -4 22 C-4.58394531 21.86335938 -5.16789062 21.72671875 -5.76953125 21.5859375 C-9.04028355 20.72672061 -11.96700591 19.4878839 -15 18 C-15.33 17.01 -15.66 16.02 -16 15 C-14.35 15 -12.7 15 -11 15 C-11.66 13.68 -12.32 12.36 -13 11 C-12.01 11 -11.02 11 -10 11 C-10.33 9.02 -10.66 7.04 -11 5 C-10.01 5 -9.02 5 -8 5 C-8 4.34 -8 3.68 -8 3 C-4.28400809 2.79913557 -3.22791555 2.8480563 0 5 C0 3.35 0 1.7 0 0 Z " fill="#757576" transform="translate(71,159)"/>
<path d="M0 0 C1 3 1 3 -0.0625 5.1875 C-3.23353389 9.79061371 -6.55652165 14.25933493 -10.125 18.5625 C-11.66983237 20.57078208 -12.72460352 22.33714288 -13.875 24.5625 C-15.94538422 28.24585798 -18.16727901 30.08363951 -22 32 C-24.70154832 32.57542004 -27.23087852 32.80902611 -30 33 C-29.09424599 28.20792935 -26.53116922 25.25529663 -23 22 C-19.60108283 19.97090505 -15.87675323 18.77535065 -12 18 C-12 17.34 -12 16.68 -12 16 C-13.32 16 -14.64 16 -16 16 C-14.87340087 11.11807044 -14.05724031 8.04293024 -10 5 C-6.71954029 3.21534739 -3.38500675 1.57622452 0 0 Z " fill="#1C1E23" transform="translate(127,122)"/>
<path d="M0 0 C1.60407328 -0.02708567 3.2082785 -0.04643483 4.8125 -0.0625 C5.70582031 -0.07410156 6.59914063 -0.08570312 7.51953125 -0.09765625 C10 0 10 0 13 1 C12.29228053 4.68014125 10.87103847 7.76166418 9 11 C8.01 11.33 7.02 11.66 6 12 C6 12.66 6 13.32 6 14 C5.40832031 14.10957031 4.81664063 14.21914062 4.20703125 14.33203125 C-2.33371705 15.6227091 -2.33371705 15.6227091 -8 19 C-9.34689915 21.57099402 -9.34689915 21.57099402 -10 24 C-7.36 24 -4.72 24 -2 24 C-1 27 -1 27 -2.375 30 C-5.8227421 33.94027669 -9.05750076 34.73479301 -14 36 C-15.485 36.495 -15.485 36.495 -17 37 C-16.70738281 36.14535156 -16.41476563 35.29070312 -16.11328125 34.41015625 C-15.39329305 32.2047187 -14.72044098 29.98308882 -14.10546875 27.74609375 C-10.89929962 16.19024161 -10.89929962 16.19024161 -6 13 C-4.2984375 12.87625 -4.2984375 12.87625 -2.5625 12.75 C1.68992075 11.85475353 2.05551712 11.0611924 4.375 7.5625 C5.67022982 5.40493803 6.87497235 3.2500553 8 1 C5.36 1 2.72 1 0 1 C0 0.67 0 0.34 0 0 Z " fill="#848485" transform="translate(105,101)"/>
<path d="M0 0 C0.99 0.33 1.98 0.66 3 1 C3 1.66 3 2.32 3 3 C3.66 3 4.32 3 5 3 C5.33 4.65 5.66 6.3 6 8 C5.34 8 4.68 8 4 8 C2.375 6 2.375 6 1 4 C0.97421875 5.0621875 0.9484375 6.124375 0.921875 7.21875 C0.44704454 20.59630689 0.44704454 20.59630689 -2.81640625 26.0234375 C-6.89091943 32.82774004 -9.29495418 39.75042937 -9.7734375 47.6328125 C-10.49305962 55.15162289 -14.18856127 61.62751549 -18 68 C-18.33 68 -18.66 68 -19 68 C-19 65.69 -19 63.38 -19 61 C-18.34 61 -17.68 61 -17 61 C-16.8659375 60.30261719 -16.731875 59.60523438 -16.59375 58.88671875 C-15.96728909 55.84096474 -15.24974247 52.83021345 -14.5 49.8125 C-14.2421875 48.76707031 -13.984375 47.72164062 -13.71875 46.64453125 C-13 44 -13 44 -12 42 C-11.76754701 38.40251332 -11.60499713 34.8115009 -11.48242188 31.20898438 C-11.30632091 27.3513764 -11.18474795 25.27712193 -9 22 C-7.68 22 -6.36 22 -5 22 C-2.57869669 18.36804504 -2.78977215 16.61650652 -2.875 12.3125 C-2.90207031 10.54326172 -2.90207031 10.54326172 -2.9296875 8.73828125 C-2.95289062 7.83464844 -2.97609375 6.93101563 -3 6 C-2.34 6 -1.68 6 -1 6 C-1.020625 5.195625 -1.04125 4.39125 -1.0625 3.5625 C-1 1 -1 1 0 0 Z " fill="#BBBBBB" transform="translate(104,73)"/>
<path d="M0 0 C0.33 0 0.66 0 1 0 C1.08090971 1.62418745 1.13914995 3.24951745 1.1875 4.875 C1.23970703 6.23238281 1.23970703 6.23238281 1.29296875 7.6171875 C1.19628906 8.40351562 1.09960938 9.18984375 1 10 C0.01 10.66 -0.98 11.32 -2 12 C-2.68930752 14.28507347 -2.68930752 14.28507347 -3 16.875 C-3.55188202 20.72667661 -4.25190755 23.16138215 -7 26 C-9.32817964 26.36760731 -11.6618385 26.70241581 -14 27 C-14.66 27.99 -15.32 28.98 -16 30 C-15.34 30 -14.68 30 -14 30 C-13.1875 32.125 -13.1875 32.125 -13 35 C-15.37231444 39.33560915 -15.37231444 39.33560915 -18 41 C-20.64629055 41.21877124 -23.13837701 41.06157677 -25.78515625 40.87890625 C-26.51605469 40.91886719 -27.24695313 40.95882812 -28 41 C-29.03013277 42.64821244 -30.03114628 44.31503702 -31 46 C-34.03513873 46.46568013 -36.95169613 46.28757584 -40 46 C-38.08889182 42.36889445 -36.86669182 40.45000943 -33 39 C-30.203125 38.8046875 -30.203125 38.8046875 -27.25 38.875 C-25.77273437 38.90207031 -25.77273437 38.90207031 -24.265625 38.9296875 C-23.51796875 38.95289063 -22.7703125 38.97609375 -22 39 C-21.67 38.01 -21.34 37.02 -21 36 C-20.01 35.505 -20.01 35.505 -19 35 C-19.26656572 32.06556598 -19.26656572 32.06556598 -20 29 C-20.99 28.34 -21.98 27.68 -23 27 C-22.67 26.34 -22.34 25.68 -22 25 C-19.890625 24.578125 -19.890625 24.578125 -17.25 24.25 C-13.63764104 23.58756168 -11.36471173 23.01314828 -8.875 20.25 C-6.86210554 16.76098294 -6.52963244 14.95108748 -7 11 C-4.35261084 9.5393715 -3.10551666 9 0 9 C0 6.03 0 3.06 0 0 Z " fill="#939494" transform="translate(155,35)"/>
<path d="M0 0 C0.495 0.99 0.495 0.99 1 2 C-2.77889144 12.66981114 -9.5939414 21.58169463 -17 30 C-17.58007812 30.75410156 -18.16015625 31.50820312 -18.7578125 32.28515625 C-21.23616772 35.08025193 -23.1647497 36.83084634 -27.0078125 37.18505859 C-32.05400127 37.21648889 -37.00509015 36.67544804 -42 36 C-42 35.67 -42 35.34 -42 35 C-41.19175781 34.98582031 -40.38351563 34.97164062 -39.55078125 34.95703125 C-32.8389917 34.73945359 -32.8389917 34.73945359 -26.9375 31.875 C-24.75724917 28.63978909 -23.36015321 25.65093758 -22 22 C-21.34 22 -20.68 22 -20 22 C-19.71125 21.38125 -19.4225 20.7625 -19.125 20.125 C-18 18 -18 18 -16 16 C-15.030625 15.731875 -14.06125 15.46375 -13.0625 15.1875 C-9.34190191 13.74481911 -8.87068864 12.40125207 -7 9 C-6.34 8.71125 -5.68 8.4225 -5 8.125 C-1.76789084 6.3069386 -1.2618881 3.40709787 0 0 Z " fill="#424345" transform="translate(144,81)"/>
<path d="M0 0 C0.95465783 2.16967689 1.14401212 3.56328793 0.3984375 5.82421875 C-0.35870385 7.5684743 -1.17609198 9.28627131 -2 11 C-2.66 11 -3.32 11 -4 11 C-3.67 12.65 -3.34 14.3 -3 16 C-2.34 15.67 -1.68 15.34 -1 15 C-1.33 16.65 -1.66 18.3 -2 20 C-2.66 20 -3.32 20 -4 20 C-4.1546875 21.5159375 -4.1546875 21.5159375 -4.3125 23.0625 C-4.89651148 26.40729304 -5.75155099 28.84846666 -7.16796875 31.890625 C-8.9569988 36.42619414 -9.90224768 41.25864422 -11 46 C-8.36 46 -5.72 46 -3 46 C-3 46.66 -3 47.32 -3 48 C-4.98 48.495 -4.98 48.495 -7 49 C-7 49.99 -7 50.98 -7 52 C-8.32 51.67 -9.64 51.34 -11 51 C-10.34 50.01 -9.68 49.02 -9 48 C-10.98 47.67 -12.96 47.34 -15 47 C-13.32578729 38.80588576 -11.10161468 31.09326951 -8.0859375 23.2890625 C-6.95129006 19.85246845 -6.40893185 16.5895129 -6 13 C-6.66 13 -7.32 13 -8 13 C-8.25 5.375 -8.25 5.375 -6 2 C-3.375 1.8125 -3.375 1.8125 -1 2 C-0.67 1.34 -0.34 0.68 0 0 Z " fill="#ABACAE" transform="translate(89,123)"/>
<path d="M0 0 C0.99 0.99 1.98 1.98 3 3 C2.8125 4.9375 2.8125 4.9375 2 7 C1.7628125 7.69222656 1.525625 8.38445312 1.28125 9.09765625 C0.8584375 9.72542969 0.435625 10.35320312 0 11 C-2.42578125 11.46875 -2.42578125 11.46875 -5.3125 11.5 C-9.01832685 11.7131456 -10.73974944 11.84818718 -14 13.75 C-16.03551693 16.03995654 -17.57122593 18.29284913 -19 21 C-16.36 21 -13.72 21 -11 21 C-12.54947022 25.39016562 -14.66966004 29.66966004 -18 33 C-20.33247761 33.33926947 -22.66585471 33.67240066 -25 34 C-25.99 34.495 -25.99 34.495 -27 35 C-26.34 33.35 -25.68 31.7 -25 30 C-24.34 30 -23.68 30 -23 30 C-22.690625 29.38125 -22.38125 28.7625 -22.0625 28.125 C-21.375 26.75 -20.6875 25.375 -20 24 C-20.66 24 -21.32 24 -22 24 C-21.67 22.02 -21.34 20.04 -21 18 C-20.34 18 -19.68 18 -19 18 C-19 16.68 -19 15.36 -19 14 C-18.34 14 -17.68 14 -17 14 C-17 13.34 -17 12.68 -17 12 C-12.07015675 9.96006486 -8.42039575 8.59347032 -3 9 C-2.01 6.03 -1.02 3.06 0 0 Z " fill="#A6A7A7" transform="translate(124,81)"/>
<path d="M0 0 C0.66 0.33 1.32 0.66 2 1 C0.73046875 2.46484375 -0.5390625 3.9296875 -1.80859375 5.39453125 C-3.20871231 7.10712971 -3.20871231 7.10712971 -4 10 C-1.525 10.495 -1.525 10.495 1 11 C0 14 0 14 -2.72265625 15.60546875 C-3.82480469 16.12753906 -4.92695312 16.64960938 -6.0625 17.1875 C-7.16722656 17.71730469 -8.27195312 18.24710938 -9.41015625 18.79296875 C-10.26480469 19.19128906 -11.11945313 19.58960938 -12 20 C-12 20.66 -12 21.32 -12 22 C-13.98 22 -15.96 22 -18 22 C-18.22174933 20.54364629 -18.42698698 19.08477044 -18.625 17.625 C-18.74101563 16.81289062 -18.85703125 16.00078125 -18.9765625 15.1640625 C-18.98429687 14.44992188 -18.99203125 13.73578125 -19 13 C-17 11 -17 11 -13.6875 10.1875 C-9.47985576 8.83249592 -7.92875527 7.2370453 -5 4 C-3.35135455 2.64444707 -1.68996005 1.30368347 0 0 Z " fill="#3A3C3C" transform="translate(101,145)"/>
<path d="M0 0 C4.75 0.875 4.75 0.875 7 2 C7 5.3 7 8.6 7 12 C9.31 12 11.62 12 14 12 C14 13.65 14 15.3 14 17 C13.01 17.33 12.02 17.66 11 18 C11 18.66 11 19.32 11 20 C7.37 20.66 3.74 21.32 0 22 C0.33 20.35 0.66 18.7 1 17 C1.2503577 13.37464024 1.2503577 13.37464024 1 10 C0.34 9.34 -0.32 8.68 -1 8 C-1.33333333 2.66666667 -1.33333333 2.66666667 0 0 Z " fill="#EBEBEB" transform="translate(116,52)"/>
<path d="M0 0 C0.33 0.66 0.66 1.32 1 2 C0.67 2.99 0.34 3.98 0 5 C-0.25103297 7.37086698 -0.45409747 9.74701343 -0.625 12.125 C-0.76808594 14.01605469 -0.76808594 14.01605469 -0.9140625 15.9453125 C-0.95660156 17.45738281 -0.95660156 17.45738281 -1 19 C-0.67 19.33 -0.34 19.66 0 20 C-0.44824648 23.40667322 -1.05276405 25.07914607 -3 28 C-3.38499891 29.65549531 -3.72793135 31.3222433 -4 33 C-4.8971875 32.4740625 -4.8971875 32.4740625 -5.8125 31.9375 C-8.10813214 30.66695302 -8.10813214 30.66695302 -11 32 C-11.04898438 33.03640625 -11.09796875 34.0728125 -11.1484375 35.140625 C-11.22349597 36.51044208 -11.29904247 37.88023248 -11.375 39.25 C-11.4059375 39.93191406 -11.436875 40.61382812 -11.46875 41.31640625 C-11.86167517 48.06162166 -11.86167517 48.06162166 -14 51 C-15.485 51.495 -15.485 51.495 -17 52 C-16.54625 50.7625 -16.0925 49.525 -15.625 48.25 C-14.36891686 44.52848857 -13.62046658 40.94815917 -13.0625 37.0625 C-12.07501 30.56498179 -10.00888853 24.78316234 -6.9296875 18.984375 C-5.94444313 16.88141642 -5.5272125 15.03194032 -5.125 12.75 C-4.14898585 8.00373763 -2.31478007 4.24376347 0 0 Z " fill="#5E5F5E" transform="translate(91,92)"/>
<path d="M0 0 C1.134375 0.020625 2.26875 0.04125 3.4375 0.0625 C3.69273437 1.00222656 3.69273437 1.00222656 3.953125 1.9609375 C4.19546875 2.77820312 4.4378125 3.59546875 4.6875 4.4375 C5.03554687 5.65566406 5.03554687 5.65566406 5.390625 6.8984375 C6.6589892 9.52035454 7.76173308 10.05632318 10.4375 11.0625 C9.14450306 13.94687779 7.77808637 15.93469421 5.4375 18.0625 C4.1175 17.4025 2.7975 16.7425 1.4375 16.0625 C1.4375 15.4025 1.4375 14.7425 1.4375 14.0625 C0.1175 14.0625 -1.2025 14.0625 -2.5625 14.0625 C-4.0231285 11.41511084 -4.5625 10.16801666 -4.5625 7.0625 C-5.2225 7.0625 -5.8825 7.0625 -6.5625 7.0625 C-4.33277027 0.07601351 -4.33277027 0.07601351 0 0 Z " fill="#F5F5F5" transform="translate(128.5625,37.9375)"/>
<path d="M0 0 C0.33 0.66 0.66 1.32 1 2 C0.67 2.66 0.34 3.32 0 4 C0.66 4 1.32 4 2 4 C3.4606285 6.64738916 4 7.89448334 4 11 C4.66 11 5.32 11 6 11 C7.625 13.5 7.625 13.5 9 16 C8.38125 16.2475 7.7625 16.495 7.125 16.75 C4.54131114 18.01039254 4.54131114 18.01039254 3 22 C5.97 22.33 8.94 22.66 12 23 C12.33 24.32 12.66 25.64 13 27 C11.25 29.75 11.25 29.75 8 32 C4.29532442 32.42086777 0.71147228 32.29249782 -3 32 C-3 31.67 -3 31.34 -3 31 C-0.36 31 2.28 31 5 31 C5 30.34 5 29.68 5 29 C5.66 28.67 6.32 28.34 7 28 C7.65555119 25.47266765 7.65555119 25.47266765 8 23 C5.69 23 3.38 23 1 23 C1 19.7 1 16.4 1 13 C-1.31 12.34 -3.62 11.68 -6 11 C-6 10.34 -6 9.68 -6 9 C-5.34 9 -4.68 9 -4 9 C-3.896875 8.071875 -3.79375 7.14375 -3.6875 6.1875 C-2.9929808 2.96745642 -2.52259061 1.97420135 0 0 Z " fill="#CBCBCB" transform="translate(122,41)"/>
<path d="M0 0 C0.66 0 1.32 0 2 0 C2 1.65 2 3.3 2 5 C3.32 5 4.64 5 6 5 C6.33 4.34 6.66 3.68 7 3 C6.66009167 8.37992836 6.31442207 12.53273547 3 17 C2.67 16.01 2.34 15.02 2 14 C1.01 14 0.02 14 -1 14 C-1 15.65 -1 17.3 -1 19 C-3.64 18.34 -6.28 17.68 -9 17 C-9 17.66 -9 18.32 -9 19 C-9.99 19 -10.98 19 -12 19 C-11.67 20.32 -11.34 21.64 -11 23 C-11.66 22.67 -12.32 22.34 -13 22 C-12.41196203 18.97580475 -11.77321882 15.98241547 -11 13 C-9.68 13.33 -8.36 13.66 -7 14 C-7 13.34 -7 12.68 -7 12 C-5.68 12 -4.36 12 -3 12 C-1.19682779 8.03302114 -0.50797009 4.3177458 0 0 Z " fill="#4C4D50" transform="translate(72,145)"/>
<path d="M0 0 C0.33 0 0.66 0 1 0 C1 2.64 1 5.28 1 8 C0.34 8 -0.32 8 -1 8 C-0.89300781 8.89203125 -0.78601563 9.7840625 -0.67578125 10.703125 C-0.55589844 11.87359375 -0.43601562 13.0440625 -0.3125 14.25 C-0.18488281 15.41015625 -0.05726562 16.5703125 0.07421875 17.765625 C0 21 0 21 -1.23046875 23.421875 C-3 25 -3 25 -7 25 C-8.6498007 28.29960141 -8.38258361 31.99127884 -8.5625 35.625 C-8.60568359 36.42679688 -8.64886719 37.22859375 -8.69335938 38.0546875 C-8.79951457 40.0362511 -8.90026855 42.01810271 -9 44 C-9.33 44 -9.66 44 -10 44 C-10.05410136 40.93726169 -10.09372225 37.87548548 -10.125 34.8125 C-10.14175781 33.94818359 -10.15851563 33.08386719 -10.17578125 32.19335938 C-10.21024062 27.6964114 -10.1966048 24.0596511 -8 20 C-7.67 19.67 -7.34 19.34 -7 19 C-7.226875 18.46375 -7.45375 17.9275 -7.6875 17.375 C-8.11213924 14.14774177 -6.72721313 12.42902904 -5.05859375 9.75 C-3.75539838 7.59564013 -2.85896606 5.36215666 -2 3 C-1.34 3 -0.68 3 0 3 C0 2.01 0 1.02 0 0 Z " fill="#898A89" transform="translate(102,71)"/>
<path d="M0 0 C2.69101234 2.69101234 2.29887549 4.19075946 2.3125 7.9375 C2.32925781 8.99839844 2.34601563 10.05929688 2.36328125 11.15234375 C2 14 2 14 0.7109375 15.8359375 C-1.98353344 17.66916202 -4.81527544 17.69955429 -8 18 C-8 18.66 -8 19.32 -8 20 C-7.34 20.66 -6.68 21.32 -6 22 C-6.10457991 25.03281743 -7.2541485 26.32889805 -9.125 28.75 C-12.67140255 31.52544547 -14.6057696 31.4308069 -19 31 C-18.4225 30.7525 -17.845 30.505 -17.25 30.25 C-13.51402637 28.17445909 -11.35608685 26.06826056 -10 22 C-10.804375 21.7525 -11.60875 21.505 -12.4375 21.25 C-15 20 -15 20 -15.8125 17.875 C-15.874375 17.25625 -15.93625 16.6375 -16 16 C-13.22495248 14.22396958 -11.94053733 14.00324342 -8.5625 14.1875 C-4.91065591 14.29654304 -4.91065591 14.29654304 -2.0625 12.0625 C0.70477383 7.95351764 0.47138774 4.80815498 0 0 Z " fill="#CDCECE" transform="translate(152,27)"/>
<path d="M0 0 C2 3 2 3 2 6 C2.66 6 3.32 6 4 6 C4.66 7.98 5.32 9.96 6 12 C4.68 12.33 3.36 12.66 2 13 C2 13.99 2 14.98 2 16 C4.44496043 17.71711243 4.44496043 17.71711243 7 19 C6.45738189 22.79832675 5.04889927 24.69272487 2 27 C-1.33159215 27.47594174 -3.12202162 27.64385081 -5.875 25.625 C-7 24 -7 24 -7 22 C-6.34 22 -5.68 22 -5 22 C-4.34 22.99 -3.68 23.98 -3 25 C-0.37812506 23.95125002 0.79371361 23.35068687 2.25 20.875 C2.4975 20.25625 2.745 19.6375 3 19 C2.38125 18.835 1.7625 18.67 1.125 18.5 C-2.27756949 16.09818625 -2.22612026 12.99837866 -3 9 C-4.65 8.67 -6.3 8.34 -8 8 C-3.375 2.25 -3.375 2.25 0 0 Z " fill="#DFE0E0" transform="translate(135,30)"/>
<path d="M0 0 C1.00160156 -0.020625 2.00320312 -0.04125 3.03515625 -0.0625 C3.99550781 -0.06765625 4.95585937 -0.0728125 5.9453125 -0.078125 C6.81945801 -0.0874707 7.69360352 -0.09681641 8.59423828 -0.10644531 C11.31348202 0.31852748 12.17676714 1.1419928 13.875 3.25 C8.6600944 3.88348094 3.56914471 4.29886959 -1.6875 4.1875 C-8.46290481 4.12041678 -14.98713406 5.274065 -21.125 8.25 C-21.785 8.91 -22.445 9.57 -23.125 10.25 C-24.115 9.92 -25.105 9.59 -26.125 9.25 C-24.75877874 5.90801261 -23.57473884 4.59069984 -20.3125 3.0625 C-19.64605469 2.73894531 -18.97960937 2.41539062 -18.29296875 2.08203125 C-12.35724434 -0.19600352 -6.2638739 0.0324974 0 0 Z " fill="#343845" transform="translate(196.125,136.75)"/>
<path d="M0 0 C-18.42300851 11.15669102 -18.42300851 11.15669102 -25.62890625 12.484375 C-29.22438681 13.26625875 -31.26777549 15.60930355 -34 18 C-36.37910203 19.52942273 -38.66755134 20.85224504 -41.25 22 C-43.35137474 22.94279946 -43.35137474 22.94279946 -44 26 C-44.33 25.34 -44.66 24.68 -45 24 C-36.47179049 15.2133599 -27.65063299 8.0879414 -16 4 C-15.34 3.34 -14.68 2.68 -14 2 C-11.50390625 1.11328125 -11.50390625 1.11328125 -8.5625 0.3125 C-7.11037109 -0.09548828 -7.11037109 -0.09548828 -5.62890625 -0.51171875 C-3 -1 -3 -1 0 0 Z " fill="#3A3E4B" transform="translate(147,157)"/>
<path d="M0 0 C0.8971875 0.309375 0.8971875 0.309375 1.8125 0.625 C1.02875 0.851875 0.245 1.07875 -0.5625 1.3125 C-3.40625 2.40625 -3.40625 2.40625 -4.5 5.25 C-4.726875 6.03375 -4.95375 6.8175 -5.1875 7.625 C-2.8775 7.955 -0.5675 8.285 1.8125 8.625 C-2.45258526 17.34903804 -2.45258526 17.34903804 -5.1328125 18.35546875 C-7.15104167 18.77864583 -9.16927083 19.20182292 -11.1875 19.625 C-11.1875 20.615 -11.1875 21.605 -11.1875 22.625 C-11.8475 22.625 -12.5075 22.625 -13.1875 22.625 C-11.69473624 17.22808488 -9.99054155 11.92594216 -8.1875 6.625 C-7.5275 6.625 -6.8675 6.625 -6.1875 6.625 C-6.0328125 5.449375 -6.0328125 5.449375 -5.875 4.25 C-4.98283008 0.84353304 -3.65201826 -0.62606027 0 0 Z " fill="#606161" transform="translate(93.1875,136.375)"/>
<path d="M0 0 C0.20086443 3.71599191 0.1519437 4.77208445 -2 8 C-2.66 8 -3.32 8 -4 8 C-4.309375 8.639375 -4.61875 9.27875 -4.9375 9.9375 C-6 12 -6 12 -7 13 C-9.25 13.375 -9.25 13.375 -12 13 C-14.8125 10.5 -14.8125 10.5 -17 8 C-14.12071475 5.72195761 -11.2169671 3.95965316 -7.9375 2.3125 C-7.08027344 1.87550781 -6.22304687 1.43851563 -5.33984375 0.98828125 C-3 0 -3 0 0 0 Z " fill="#232427" transform="translate(105,157)"/>
<path d="M0 0 C-1.52206009 2.62901288 -2.84365964 4.84365964 -5 7 C-4.34 8.65 -3.68 10.3 -3 12 C-3.99 12.33 -4.98 12.66 -6 13 C-6.73323796 15.01508358 -6.73323796 15.01508358 -7 17 C-8.65 17.33 -10.3 17.66 -12 18 C-11.22690394 11.81523153 -9.97639922 5.92919765 -8 0 C-5.13822943 -1.43088528 -3.06624227 -0.59991697 0 0 Z " fill="#CCCCCE" transform="translate(81,170)"/>
<path d="M0 0 C0.33 0 0.66 0 1 0 C1.309375 1.134375 1.61875 2.26875 1.9375 3.4375 C2.62924531 6.78775099 2.62924531 6.78775099 4 8 C4.14475933 11.8361222 4.17661508 15.32307787 3 19 C3.66 19.33 4.32 19.66 5 20 C4.38125 20.556875 3.7625 21.11375 3.125 21.6875 C0.93893621 24.06645178 0.01214301 25.96357096 -1 29 C2.465 28.505 2.465 28.505 6 28 C5.9375 30.75 5.9375 30.75 5 34 C1.08213476 36.7877118 -2.18087526 38.41586367 -7 39 C-6.34 38.01 -5.68 37.02 -5 36 C-4.360625 35.87625 -3.72125 35.7525 -3.0625 35.625 C-0.7076185 35.14663188 -0.7076185 35.14663188 0.75 32.4375 C1.1625 31.633125 1.575 30.82875 2 30 C0.68 30 -0.64 30 -2 30 C-2.33 29.34 -2.66 28.68 -3 28 C-3.99 28.33 -4.98 28.66 -6 29 C-6 28.34 -6 27.68 -6 27 C-5.34 27 -4.68 27 -4 27 C-3.7525 26.34 -3.505 25.68 -3.25 25 C-2 22 -2 22 -0.94140625 20.09765625 C1.00897944 16.58156301 2.03665715 14.6720478 1.8125 10.5625 C1.24557099 8.09213193 1.24557099 8.09213193 0 7 C-0.04092937 4.66702567 -0.04241723 2.33294775 0 0 Z " fill="#CECECE" transform="translate(114,54)"/>
<path d="M0 0 C1.98 0 3.96 0 6 0 C5.67 1.65 5.34 3.3 5 5 C5.66 5.33 6.32 5.66 7 6 C6.5235009 10.28849188 4.27412061 12.3664682 1 15 C-0.19625 15.165 -1.3925 15.33 -2.625 15.5 C-3.73875 15.665 -4.8525 15.83 -6 16 C-6.680625 17.2684375 -6.680625 17.2684375 -7.375 18.5625 C-7.91125 19.366875 -8.4475 20.17125 -9 21 C-12.03672544 21.45796218 -14.95094547 21.28764665 -18 21 C-16.08889182 17.36889445 -14.86669182 15.45000943 -11 14 C-8.203125 13.8046875 -8.203125 13.8046875 -5.25 13.875 C-4.26515625 13.89304687 -3.2803125 13.91109375 -2.265625 13.9296875 C-1.14414063 13.96449219 -1.14414063 13.96449219 0 14 C0.33 13.01 0.66 12.02 1 11 C1.66 10.67 2.32 10.34 3 10 C2.73343428 7.06556598 2.73343428 7.06556598 2 4 C1.01 3.34 0.02 2.68 -1 2 C-0.67 1.34 -0.34 0.68 0 0 Z " fill="#9D9E9E" transform="translate(133,60)"/>
<path d="M0 0 C0.33 0 0.66 0 1 0 C1.16993231 5.013003 1.12322112 8.39968757 -1 13 C-1.309375 14.134375 -1.61875 15.26875 -1.9375 16.4375 C-2.96565514 19.88484369 -4.30290921 22.83723989 -6 26 C-6.99 25.67 -7.98 25.34 -9 25 C-8.63223832 18.69732561 -7.83374078 13.66748157 -5 8 C-4.34 8 -3.68 8 -3 8 C-1.92474806 5.34771188 -0.90543849 2.71631546 0 0 Z " fill="#A9AAAE" transform="translate(62,205)"/>
<path d="M0 0 C1.32 0.33 2.64 0.66 4 1 C4 1.66 4 2.32 4 3 C3.34 3 2.68 3 2 3 C1.26669459 6.30225402 0.87175176 9.38565155 0.82421875 12.765625 C0.80037109 13.65636719 0.77652344 14.54710938 0.75195312 15.46484375 C0.70935123 17.3057619 0.67790326 19.14697561 0.65820312 20.98828125 C0.45819761 27.45357575 -0.95019333 32.29769289 -4 38 C-4.78375 37.95875 -5.5675 37.9175 -6.375 37.875 C-9.16116119 37.71271266 -9.16116119 37.71271266 -11 40 C-10.505 37.03 -10.505 37.03 -10 34 C-8.35 34.66 -6.7 35.32 -5 36 C-5.061875 35.2575 -5.12375 34.515 -5.1875 33.75 C-4.96709928 30.51745608 -4.02264742 29.4440323 -2 27 C-2 26.34 -2 25.68 -2 25 C-2.66 24.67 -3.32 24.34 -4 24 C-3.67 23.67 -3.34 23.34 -3 23 C-2.81277551 20.83651698 -2.67602711 18.66859941 -2.5625 16.5 C-2.19989999 10.78027733 -1.43294353 5.54071498 0 0 Z " fill="#787978" transform="translate(92,88)"/>
<path d="M0 0 C2.31 0.66 4.62 1.32 7 2 C7 3.98 7 5.96 7 8 C8.98 8 10.96 8 13 8 C11.68 8.33 10.36 8.66 9 9 C9 9.66 9 10.32 9 11 C7.68 11 6.36 11 5 11 C5 11.66 5 12.32 5 13 C5.99 13 6.98 13 8 13 C8 13.66 8 14.32 8 15 C8.66 15.33 9.32 15.66 10 16 C7.69 15.67 5.38 15.34 3 15 C3.33 15.99 3.66 16.98 4 18 C0.1936543 17.32829194 -3.35206816 16.27253436 -7 15 C-7 14.67 -7 14.34 -7 14 C-3.7 13.67 -0.4 13.34 3 13 C3 12.34 3 11.68 3 11 C2.34 10.67 1.68 10.34 1 10 C1.639375 9.71125 2.27875 9.4225 2.9375 9.125 C5.15206079 8.17176549 5.15206079 8.17176549 6 6 C4.68 6 3.36 6 2 6 C2 5.01 2 4.02 2 3 C1.01 2.67 0.02 2.34 -1 2 C-0.67 1.34 -0.34 0.68 0 0 Z " fill="#60646E" transform="translate(78,175)"/>
<path d="M0 0 C3.875 0.875 3.875 0.875 5 2 C5.41199125 7.2528884 4.65673037 10.46141895 2 15 C1.01 15 0.02 15 -1 15 C-1.66 10.71 -2.32 6.42 -3 2 C-2.01 2 -1.02 2 0 2 C0 1.34 0 0.68 0 0 Z " fill="#CACBCD" transform="translate(65,164)"/>
<path d="M0 0 C0 0.99 0 1.98 0 3 C-1.258125 3.061875 -2.51625 3.12375 -3.8125 3.1875 C-6.00337977 3.38520288 -6.00337977 3.38520288 -8 4 C-10.06454002 6.40743101 -10.06454002 6.40743101 -11 9 C-10.34 9 -9.68 9 -9 9 C-8.02832417 12.09169582 -7.8426833 13.59479031 -9.03125 16.65625 C-11 19 -11 19 -14.35546875 19.48828125 C-16.25232422 19.40126953 -16.25232422 19.40126953 -18.1875 19.3125 C-19.45980469 19.26738281 -20.73210937 19.22226563 -22.04296875 19.17578125 C-23.01878906 19.11777344 -23.99460937 19.05976562 -25 19 C-25 18.67 -25 18.34 -25 18 C-23.84371094 17.96132812 -23.84371094 17.96132812 -22.6640625 17.921875 C-21.66117187 17.86515625 -20.65828125 17.8084375 -19.625 17.75 C-18.62726563 17.70359375 -17.62953125 17.6571875 -16.6015625 17.609375 C-13.87466738 17.27292048 -13.87466738 17.27292048 -12.62890625 15.07421875 C-11.86618818 12.55867033 -12.17618054 11.47145837 -13 9 C-13.75 6.4375 -13.75 6.4375 -14 4 C-12.8359375 2.35546875 -12.8359375 2.35546875 -11 1 C-8.5546875 0.7421875 -8.5546875 0.7421875 -5.875 0.875 C-4.25100015 0.94560869 -2.62552366 0.99417375 -1 1 C-0.67 0.67 -0.34 0.34 0 0 Z " fill="#89898A" transform="translate(138,74)"/>
<path d="M0 0 C1.2942471 2.58849421 0.81710662 3.70980086 0.1875 6.5 C0.01605469 7.2940625 -0.15539062 8.088125 -0.33203125 8.90625 C-1 11 -1 11 -3 13 C-6.19243602 20.43239012 -7.58253207 27.85057107 -8.3125 35.87109375 C-9.10885419 39.49541028 -10.50243407 41.30605288 -13 44 C-13 42.02 -13 40.04 -13 38 C-11.515 37.505 -11.515 37.505 -10 37 C-9.97421875 36.22398437 -9.9484375 35.44796875 -9.921875 34.6484375 C-9.26338547 22.1072051 -6.15911278 10.95514322 0 0 Z " fill="#414243" transform="translate(86,101)"/>
<path d="M0 0 C0.68707555 2.49064888 1 4.37886292 1 7 C1.66 6.01 2.32 5.02 3 4 C3.99 4.33 4.98 4.66 6 5 C5.4946875 5.48210937 4.989375 5.96421875 4.46875 6.4609375 C3.8190625 7.09257812 3.169375 7.72421875 2.5 8.375 C1.52546875 9.31472656 1.52546875 9.31472656 0.53125 10.2734375 C-1.22117431 11.86475907 -1.22117431 11.86475907 -1 14 C-0.01 14.33 0.98 14.66 2 15 C-4.07439825 19.90153173 -4.07439825 19.90153173 -7.9375 20.3125 C-8.618125 20.209375 -9.29875 20.10625 -10 20 C-9.67 17.69 -9.34 15.38 -9 13 C-8.87625 13.639375 -8.7525 14.27875 -8.625 14.9375 C-8.41875 15.618125 -8.2125 16.29875 -8 17 C-7.34 17.33 -6.68 17.66 -6 18 C-4.91715047 14.8287978 -3.90583858 11.66454993 -3 8.4375 C-2.15291726 5.52565307 -1.18281837 2.78807188 0 0 Z " fill="#626670" transform="translate(62,213)"/>
<path d="M0 0 C0.66 0.33 1.32 0.66 2 1 C0.37377828 9.97274965 -2.19382073 17.23856486 -7 25 C-7.33 25 -7.66 25 -8 25 C-8 22.69 -8 20.38 -8 18 C-7.34 18 -6.68 18 -6 18 C-5.86464844 17.30390625 -5.72929688 16.6078125 -5.58984375 15.890625 C-4.96521359 12.82952356 -4.28495127 9.7895359 -3.5625 6.75 C-3.19318359 5.16445312 -3.19318359 5.16445312 -2.81640625 3.546875 C-2.54699219 2.70640625 -2.27757813 1.8659375 -2 1 C-1.34 0.67 -0.68 0.34 0 0 Z " fill="#C2C3C4" transform="translate(93,116)"/>
<path d="M0 0 C0.95465783 2.16967689 1.14401212 3.56328793 0.3984375 5.82421875 C-0.35870385 7.5684743 -1.17609198 9.28627131 -2 11 C-2.66 11 -3.32 11 -4 11 C-4.33 13.31 -4.66 15.62 -5 18 C-5.33 18 -5.66 18 -6 18 C-6 16.35 -6 14.7 -6 13 C-6.66 13 -7.32 13 -8 13 C-8.25 5.375 -8.25 5.375 -6 2 C-3.375 1.8125 -3.375 1.8125 -1 2 C-0.67 1.34 -0.34 0.68 0 0 Z " fill="#888889" transform="translate(89,123)"/>
<path d="M0 0 C0 0.99 0 1.98 0 3 C-0.78375 3.7425 -1.5675 4.485 -2.375 5.25 C-5.44181384 8.4628526 -5.88413542 10.75971459 -7 15 C-8.625 18.4375 -8.625 18.4375 -11 21 C-13.84654523 21.51804942 -16.0761869 21.29238131 -19 21 C-19 20.67 -19 20.34 -19 20 C-18.071875 19.7525 -17.14375 19.505 -16.1875 19.25 C-12.6833208 17.87581208 -11.66114026 17.32228051 -10 14 C-9.77185938 12.63115629 -9.58745645 11.25459933 -9.4375 9.875 C-9 6 -9 6 -7 4 C-5.33333333 3.33333333 -3.66666667 2.66666667 -2 2 C-1.34 1.34 -0.68 0.68 0 0 Z " fill="#6E6E6F" transform="translate(153,58)"/>
<path d="M0 0 C2 1 2 1 4 3 C4 3.99 4 4.98 4 6 C5.32 6 6.64 6 8 6 C7.67 6.99 7.34 7.98 7 9 C6.01 9.33 5.02 9.66 4 10 C4.33 10.99 4.66 11.98 5 13 C1.37 13.66 -2.26 14.32 -6 15 C-5.67 14.01 -5.34 13.02 -5 12 C-4.01 11.67 -3.02 11.34 -2 11 C-1.67 10.01 -1.34 9.02 -1 8 C-0.34 7.34 0.32 6.68 1 6 C0.34 4.35 -0.32 2.7 -1 1 C-0.67 0.67 -0.34 0.34 0 0 Z " fill="#7A7D86" transform="translate(76,175)"/>
<path d="M0 0 C0.96661363 3.12180401 0.98988909 5.52083795 0.5625 8.75 C0.46066406 9.54921875 0.35882813 10.3484375 0.25390625 11.171875 C0.17011719 11.77515625 0.08632812 12.3784375 0 13 C-0.99 12.67 -1.98 12.34 -3 12 C-3.33 11.34 -3.66 10.68 -4 10 C-4.66 11.98 -5.32 13.96 -6 16 C-6.99 16 -7.98 16 -9 16 C-8.64766839 10.5388601 -8.64766839 10.5388601 -8 8 C-5.9375 6.5 -5.9375 6.5 -4 6 C-4 5.34 -4 4.68 -4 4 C-3.34 4 -2.68 4 -2 4 C-1.34 2.68 -0.68 1.36 0 0 Z " fill="#5A5D65" transform="translate(112,54)"/>
<path d="M0 0 C0.66 0 1.32 0 2 0 C2.8125 3.1875 2.8125 3.1875 3 7 C0.8125 9.75 0.8125 9.75 -2 12 C-2.56847656 12.54785156 -3.13695313 13.09570312 -3.72265625 13.66015625 C-7.02466681 15.60284857 -9.48787239 15.07067966 -13.25 14.6875 C-14.51328125 14.56761719 -15.7765625 14.44773437 -17.078125 14.32421875 C-18.04234375 14.21722656 -19.0065625 14.11023438 -20 14 C-20 13.67 -20 13.34 -20 13 C-18.78763672 12.97873047 -18.78763672 12.97873047 -17.55078125 12.95703125 C-10.8389917 12.73945359 -10.8389917 12.73945359 -4.9375 9.875 C-2.75724917 6.63978909 -1.36015321 3.65093758 0 0 Z " fill="#545556" transform="translate(122,103)"/>
<path d="M0 0 C1.65 0.33 3.3 0.66 5 1 C5 1.66 5 2.32 5 3 C7.64 3 10.28 3 13 3 C12 5 12 5 9.8125 6.1875 C6.50054536 7.1442869 4.32458783 6.77315996 1 6 C1.33 7.32 1.66 8.64 2 10 C0.35 9.67 -1.3 9.34 -3 9 C-3 8.34 -3 7.68 -3 7 C-3.66 6.67 -4.32 6.34 -5 6 C-4.34 5.67 -3.68 5.34 -3 5 C-3 4.34 -3 3.68 -3 3 C-1.35 3 0.3 3 2 3 C2 2.34 2 1.68 2 1 C1.34 0.67 0.68 0.34 0 0 Z " fill="#3E424E" transform="translate(84,187)"/>
<path d="M0 0 C0.57105469 0.21785156 1.14210938 0.43570313 1.73046875 0.66015625 C1.13878906 1.046875 0.54710938 1.43359375 -0.0625 1.83203125 C-4.29106239 4.6188815 -8.3239105 7.48173953 -12.26953125 10.66015625 C-14.64779965 12.16832645 -16.9465738 13.51661961 -19.51953125 14.66015625 C-21.62090599 15.60295571 -21.62090599 15.60295571 -22.26953125 18.66015625 C-22.59953125 18.00015625 -22.92953125 17.34015625 -23.26953125 16.66015625 C-6.19850363 -0.92817524 -6.19850363 -0.92817524 0 0 Z " fill="#333845" transform="translate(125.26953125,164.33984375)"/>
<path d="M0 0 C0.33 0.99 0.66 1.98 1 3 C1.62648438 2.98839844 2.25296875 2.97679688 2.8984375 2.96484375 C3.71570313 2.95582031 4.53296875 2.94679688 5.375 2.9375 C6.18710938 2.92589844 6.99921875 2.91429688 7.8359375 2.90234375 C10 3 10 3 12 4 C12.875 6.25 12.875 6.25 13 9 C11.22336478 11.69558448 9.90715555 13.54642223 7 15 C5.00039988 15.039992 2.99952758 15.04346799 1 15 C1.78375 14.46375 2.5675 13.9275 3.375 13.375 C6.33426299 10.69757158 7.04608256 8.81566975 8 5 C5.36 4.67 2.72 4.34 0 4 C0 2.68 0 1.36 0 0 Z " fill="#656667" transform="translate(95,121)"/>
<path d="M0 0 C0.66 0 1.32 0 2 0 C-1.06760804 6.94326892 -7.54478731 10.5333117 -14 14 C-14.928125 14.598125 -15.85625 15.19625 -16.8125 15.8125 C-17.534375 16.204375 -18.25625 16.59625 -19 17 C-19.66 16.67 -20.32 16.34 -21 16 C-16.07175533 12.0414331 -11.14251838 8.38688479 -5.72265625 5.1328125 C-3.52677564 3.68880938 -1.8168553 1.88673435 0 0 Z " fill="#393D4A" transform="translate(87,200)"/>
<path d="M0 0 C2.0625 0.4375 2.0625 0.4375 4 1 C3.15824219 1.54269531 2.31648438 2.08539063 1.44921875 2.64453125 C-2.92762265 5.5611401 -6.96782273 8.89083976 -11.05273438 12.19726562 C-13.68524049 14.29927755 -15.77682694 15.92560898 -19 17 C-18.505 15.515 -18.505 15.515 -18 14 C-17.34 14 -16.68 14 -16 14 C-15.67 13.01 -15.34 12.02 -15 11 C-12.69733069 9.19816126 -10.40911542 7.52059655 -8 5.875 C-3.81251241 3.16024767 -3.81251241 3.16024767 0 0 Z " fill="#353A47" transform="translate(83,211)"/>
<path d="M0 0 C-1.299375 0.8353125 -1.299375 0.8353125 -2.625 1.6875 C-4.92158581 3.20777512 -6.88550907 4.75637233 -9 6.5625 C-14.34414017 10.90461389 -18.07611952 12.41543283 -25 12 C-21.77960318 8.77960318 -17.42270165 7.95850248 -13.1640625 6.51171875 C-9.64794964 4.83179816 -8.23652635 3.13011565 -6 0 C-3.50907189 -1.24546405 -2.58919267 -0.7767578 0 0 Z " fill="#363A47" transform="translate(166,187)"/>
<path d="M0 0 C2.31 0 4.62 0 7 0 C7 1.65 7 3.3 7 5 C6.01 5.33 5.02 5.66 4 6 C4 6.66 4 7.32 4 8 C0.37 8.66 -3.26 9.32 -7 10 C-6.67 8.35 -6.34 6.7 -6 5 C-5.67 5.66 -5.34 6.32 -5 7 C-3.02 6.67 -1.04 6.34 1 6 C1.6814823 4.10820797 1.6814823 4.10820797 2 2 C1.34 1.34 0.68 0.68 0 0 Z " fill="#E2E2E2" transform="translate(123,64)"/>
<path d="M0 0 C0.66 0.33 1.32 0.66 2 1 C2.05402274 3.10388569 2.09280256 5.20816714 2.125 7.3125 C2.14820313 8.48425781 2.17140625 9.65601563 2.1953125 10.86328125 C2 14 2 14 0 17 C-0.268125 18.134375 -0.53625 19.26875 -0.8125 20.4375 C-2.15564084 24.46692253 -3.51225212 25.70542903 -7 28 C-6.68933594 27.44570313 -6.37867188 26.89140625 -6.05859375 26.3203125 C-4.56935573 23.05607861 -4.1991541 19.76922199 -3.66015625 16.2421875 C-3 14 -3 14 0 12 C0.36498034 9.10391601 0.36498034 9.10391601 0.1875 5.875 C0.16042969 4.77929688 0.13335937 3.68359375 0.10546875 2.5546875 C0.07066406 1.71164063 0.03585938 0.86859375 0 0 Z " fill="#838487" transform="translate(155,33)"/>
<path d="M0 0 C0.33 0 0.66 0 1 0 C1.125 5.75 1.125 5.75 0 8 C0.95712891 7.98259766 0.95712891 7.98259766 1.93359375 7.96484375 C3.17302734 7.95130859 3.17302734 7.95130859 4.4375 7.9375 C5.26121094 7.92589844 6.08492188 7.91429687 6.93359375 7.90234375 C9 8 9 8 10 9 C10.04080783 10.99958364 10.04254356 13.00045254 10 15 C7.69 15 5.38 15 3 15 C3 14.01 3 13.02 3 12 C4.32 11.67 5.64 11.34 7 11 C7 10.34 7 9.68 7 9 C4.36 9 1.72 9 -1 9 C-0.67 6.03 -0.34 3.06 0 0 Z " fill="#747679" transform="translate(79,160)"/>
<path d="M0 0 C-3.65280161 4.7864297 -6.10613337 6.84997724 -12 8 C-14.23408113 8.99083967 -14.23408113 8.99083967 -16 10 C-16 9.01 -16 8.02 -16 7 C-14.20703125 5.46484375 -14.20703125 5.46484375 -11.8125 3.9375 C-11.03519531 3.43089844 -10.25789062 2.92429688 -9.45703125 2.40234375 C-2.79732739 -1.3986637 -2.79732739 -1.3986637 0 0 Z " fill="#414551" transform="translate(164,147)"/>
<path d="M0 0 C0.99 0 1.98 0 3 0 C3.33 0.66 3.66 1.32 4 2 C3.67 2.99 3.34 3.98 3 5 C2.34 5 1.68 5 1 5 C0.9175 6.051875 0.835 7.10375 0.75 8.1875 C-0.05320762 12.27047209 -1.19334709 14.0122727 -4 17 C-4.56131481 10.54487966 -2.63463787 5.84560277 0 0 Z " fill="#AEAFB1" transform="translate(84,138)"/>
<path d="M0 0 C2.06598237 4.13196473 0.03034829 9.67361607 -1 14 C-2.14174815 16.856541 -3.45742359 19.32620089 -5 22 C-5.66 21.67 -6.32 21.34 -7 21 C-5.47565114 13.42444808 -3.83300623 6.74080405 0 0 Z " fill="#505151" transform="translate(91,92)"/>
<path d="M0 0 C0.33 0.99 0.66 1.98 1 3 C2.98 3 4.96 3 7 3 C4.10585623 9.15005551 0.98217875 11.84919226 -5 15 C-4.34 13.35 -3.68 11.7 -3 10 C-2.34 10 -1.68 10 -1 10 C-0.690625 9.38125 -0.38125 8.7625 -0.0625 8.125 C0.625 6.75 1.3125 5.375 2 4 C1.34 4 0.68 4 0 4 C0 2.68 0 1.36 0 0 Z " fill="#BDBEBE" transform="translate(102,101)"/>
<path d="M0 0 C0.33 0 0.66 0 1 0 C1 2.64 1 5.28 1 8 C0.34 8 -0.32 8 -1 8 C-1 10.31 -1 12.62 -1 15 C-1.99 15 -2.98 15 -4 15 C-6.15028304 15.94978897 -6.15028304 15.94978897 -8 17 C-6.82732735 13.0309541 -5.49989338 10.26073049 -3 7 C-2.29485154 4.85266073 -2.29485154 4.85266073 -2 3 C-1.34 3 -0.68 3 0 3 C0 2.01 0 1.02 0 0 Z " fill="#86878B" transform="translate(102,71)"/>
<path d="M0 0 C0.33 0 0.66 0 1 0 C1.02688151 1.64574566 1.04634123 3.29161413 1.0625 4.9375 C1.07410156 5.85402344 1.08570313 6.77054688 1.09765625 7.71484375 C1 10 1 10 0 11 C-1.66617115 11.04063832 -3.33388095 11.042721 -5 11 C-4.71125 11.825 -4.4225 12.65 -4.125 13.5 C-3.94068845 18.66072331 -6.71065351 21.24347096 -10 25 C-11.32 24.67 -12.64 24.34 -14 24 C-13.030625 23.278125 -12.06125 22.55625 -11.0625 21.8125 C-8.83085832 19.9580372 -8.0865695 19.27302687 -7.1875 16.4375 C-7.125625 15.633125 -7.06375 14.82875 -7 14 C-6.67516582 12.66457061 -6.3449145 11.33038449 -6 10 C-4.02 9.67 -2.04 9.34 0 9 C0 6.03 0 3.06 0 0 Z " fill="#A3A4A5" transform="translate(155,35)"/>
<path d="M0 0 C0.99 0 1.98 0 3 0 C3 0.66 3 1.32 3 2 C2.01 2 1.02 2 0 2 C0 3.65 0 5.3 0 7 C-2.64 6.34 -5.28 5.68 -8 5 C-8 5.66 -8 6.32 -8 7 C-8.99 7 -9.98 7 -11 7 C-10.67 8.32 -10.34 9.64 -10 11 C-10.66 10.67 -11.32 10.34 -12 10 C-11.41196203 6.97580475 -10.77321882 3.98241547 -10 1 C-9.34 1 -8.68 1 -8 1 C-8 1.99 -8 2.98 -8 4 C-7.401875 3.649375 -6.80375 3.29875 -6.1875 2.9375 C-4 2 -4 2 -1 3 C-0.67 2.01 -0.34 1.02 0 0 Z " fill="#62646A" transform="translate(71,157)"/>
<path d="M0 0 C0.66 0 1.32 0 2 0 C2 0.99 2 1.98 2 3 C2.99 3 3.98 3 5 3 C3.73882275 6.88862987 2.54735833 8.89375599 -1 11 C-1.66 11 -2.32 11 -3 11 C-3 12.65 -3 14.3 -3 16 C-3.66 16 -4.32 16 -5 16 C-3.50723624 10.60308488 -1.80304155 5.30094216 0 0 Z " fill="#7D7D7E" transform="translate(85,143)"/>
<path d="M0 0 C1.98 0 3.96 0 6 0 C5.67 1.65 5.34 3.3 5 5 C5.66 5.33 6.32 5.66 7 6 C6.66156193 9.04594267 5.76208715 10.29909045 3.8125 12.75 C1 15 1 15 -2.3125 15.3125 C-3.6428125 15.1578125 -3.6428125 15.1578125 -5 15 C-5 14.67 -5 14.34 -5 14 C-3.35 14 -1.7 14 0 14 C0.33 13.01 0.66 12.02 1 11 C1.66 10.67 2.32 10.34 3 10 C2.73343428 7.06556598 2.73343428 7.06556598 2 4 C1.01 3.34 0.02 2.68 -1 2 C-0.67 1.34 -0.34 0.68 0 0 Z " fill="#A3A4A4" transform="translate(133,60)"/>
<path d="M0 0 C0.99 0.33 1.98 0.66 3 1 C3 1.66 3 2.32 3 3 C3.66 3 4.32 3 5 3 C5.33 4.65 5.66 6.3 6 8 C5.34 8 4.68 8 4 8 C3.01 6.68 2.02 5.36 1 4 C0.67 9.28 0.34 14.56 0 20 C-0.33 20 -0.66 20 -1 20 C-2.42765939 12.86170305 -2.73739157 6.84347892 0 0 Z " fill="#BFBFC0" transform="translate(104,73)"/>
<path d="M0 0 C4.75 0.875 4.75 0.875 7 2 C6.45738189 5.79832675 5.04889927 7.69272487 2 10 C-1.33159215 10.47594174 -3.12202162 10.64385081 -5.875 8.625 C-7 7 -7 7 -7 5 C-6.34 5 -5.68 5 -5 5 C-4.01 6.485 -4.01 6.485 -3 8 C-0.37812506 6.95125002 0.79371361 6.35068687 2.25 3.875 C2.4975 3.25625 2.745 2.6375 3 2 C2.01 1.34 1.02 0.68 0 0 Z " fill="#E1E1E1" transform="translate(135,47)"/>
<path d="M0 0 C0.33 0 0.66 0 1 0 C1 4.29 1 8.58 1 13 C-0.98 13.66 -2.96 14.32 -5 15 C-5.33 15.99 -5.66 16.98 -6 18 C-8.86724686 17.42655063 -9.8614515 17.1385485 -12 15 C-9.24433749 12.24433749 -6.78460367 12.54065767 -3 12 C-0.50494038 9.50494038 -0.64051624 8.32671112 -0.375 4.875 C-0.30023438 3.96492188 -0.22546875 3.05484375 -0.1484375 2.1171875 C-0.09945312 1.41851562 -0.05046875 0.71984375 0 0 Z " fill="#B2B3B4" transform="translate(154,31)"/>
<path d="M0 0 C-0.49371094 0.33773437 -0.98742187 0.67546875 -1.49609375 1.0234375 C-2.13675781 1.46945313 -2.77742188 1.91546875 -3.4375 2.375 C-4.07558594 2.81585938 -4.71367188 3.25671875 -5.37109375 3.7109375 C-7.13740928 4.92160853 -7.13740928 4.92160853 -8 7 C-8.99 7 -9.98 7 -11 7 C-11.4021875 8.2065625 -11.4021875 8.2065625 -11.8125 9.4375 C-12.4003125 10.7059375 -12.4003125 10.7059375 -13 12 C-13.99 12.33 -14.98 12.66 -16 13 C-15.09413608 8.20734786 -12.53058693 5.25598573 -9 2 C-3.15485075 -1.57742537 -3.15485075 -1.57742537 0 0 Z " fill="#2A2C2E" transform="translate(113,142)"/>
<path d="M0 0 C2.10667724 4.21335447 0.31499782 9.90800757 -0.9375 14.25 C-1.93891585 16.84189986 -2.94202045 19.43062109 -4 22 C-4.33 22 -4.66 22 -5 22 C-5.59023856 14.47445832 -3.57558185 8.04406119 -1 1 C-0.67 0.67 -0.34 0.34 0 0 Z " fill="#B3B5B7" transform="translate(70,179)"/>
<path d="M0 0 C2.6875 -0.3125 2.6875 -0.3125 5 0 C0.5661157 8.10330579 0.5661157 8.10330579 -2 10 C-2.99 10 -3.98 10 -5 10 C-3.66659064 6.41005174 -2.34884529 3.04479945 0 0 Z " fill="#0E0F10" transform="translate(119,127)"/>
<path d="M0 0 C0.66 0 1.32 0 2 0 C1.71682074 1.60568666 1.42312209 3.20952047 1.125 4.8125 C0.96257812 5.70582031 0.80015625 6.59914062 0.6328125 7.51953125 C0 10 0 10 -2 13 C-2.66 13 -3.32 13 -4 13 C-4.34837335 8.12277312 -3.45094389 5.21562348 -1 1 C-0.67 0.67 -0.34 0.34 0 0 Z " fill="#212328" transform="translate(74,127)"/>
<path d="M0 0 C0.33 0 0.66 0 1 0 C2.70159453 15.92938497 2.70159453 15.92938497 -1 22 C-1.99 21.67 -2.98 21.34 -4 21 C-4 19.68 -4 18.36 -4 17 C-3.34515625 16.39671875 -2.6903125 15.7934375 -2.015625 15.171875 C0.31014844 13.09228839 0.31014844 13.09228839 0.390625 9.765625 C0.34421875 8.60546875 0.2978125 7.4453125 0.25 6.25 C0.21390625 5.07953125 0.1778125 3.9090625 0.140625 2.703125 C0.09421875 1.81109375 0.0478125 0.9190625 0 0 Z " fill="#A7A7A7" transform="translate(101,79)"/>
<path d="M0 0 C0.33 0.99 0.66 1.98 1 3 C-1.1875 5.5625 -1.1875 5.5625 -4 8 C-6.8125 7.8125 -6.8125 7.8125 -9 7 C-8.25675659 4.60510457 -7.52942646 3.29222384 -5.30859375 2.06640625 C-3.55926499 1.32780077 -1.78065851 0.65950315 0 0 Z " fill="#0A0B0C" transform="translate(101,160)"/>
<path d="M0 0 C-0.125 1.8125 -0.125 1.8125 -1 4 C-3.875 5.8125 -3.875 5.8125 -7 7 C-7.99 6.67 -8.98 6.34 -10 6 C-7.25328971 0.89896661 -5.96171676 0 0 0 Z " fill="#131315" transform="translate(109,148)"/>
<path d="M0 0 C0.33 1.32 0.66 2.64 1 4 C1.66 4 2.32 4 3 4 C2.67 5.65 2.34 7.3 2 9 C-0.97 8.505 -0.97 8.505 -4 8 C-4 6.02 -4 4.04 -4 2 C-2.68 1.34 -1.36 0.68 0 0 Z " fill="#6D6D6E" transform="translate(78,142)"/>
<path d="M0 0 C0.66 0.33 1.32 0.66 2 1 C1.835 1.94875 1.67 2.8975 1.5 3.875 C0.8088796 7.60743698 0.8088796 7.60743698 2 11 C-1.4375 10.1875 -1.4375 10.1875 -5 9 C-5.33 8.01 -5.66 7.02 -6 6 C-4.35 6 -2.7 6 -1 6 C-1.66 4.68 -2.32 3.36 -3 2 C-2.01 2 -1.02 2 0 2 C0 1.34 0 0.68 0 0 Z " fill="#4F535F" transform="translate(61,168)"/>
<path d="M0 0 C1.32 0.33 2.64 0.66 4 1 C4 1.66 4 2.32 4 3 C3.34 3 2.68 3 2 3 C1.7834375 4.175625 1.7834375 4.175625 1.5625 5.375 C1 8 1 8 0 10 C-0.23029956 12.37123246 -0.41119942 14.74741943 -0.5625 17.125 C-0.64628906 18.40632813 -0.73007813 19.68765625 -0.81640625 21.0078125 C-0.90728516 22.48894531 -0.90728516 22.48894531 -1 24 C-1.99 24 -2.98 24 -4 24 C-3.67 23.67 -3.34 23.34 -3 23 C-2.81277551 20.83651698 -2.67602711 18.66859941 -2.5625 16.5 C-2.19989999 10.78027733 -1.43294353 5.54071498 0 0 Z " fill="#666766" transform="translate(92,88)"/>
<path d="M0 0 C1.0625 1.8125 1.0625 1.8125 2 4 C0.66667905 7.99996286 -1.4957827 8.83782337 -5 11 C-4.50769231 4.6 -4.50769231 4.6 -1.9375 1.5625 C-0.9784375 0.7890625 -0.9784375 0.7890625 0 0 Z " fill="#EFEFF0" transform="translate(110,83)"/>
<path d="M0 0 C0.33 0.66 0.66 1.32 1 2 C0.67 2.66 0.34 3.32 0 4 C1.65 4 3.3 4 5 4 C3.48328036 8.55015893 -0.16891053 10.50057264 -4 13 C-3.52511102 11.01980257 -3.04497141 9.04086365 -2.5625 7.0625 C-2.29566406 5.96035156 -2.02882813 4.85820313 -1.75390625 3.72265625 C-1 1 -1 1 0 0 Z " fill="#A0A0A0" transform="translate(93,123)"/>
<path d="M0 0 C2.69101234 2.69101234 2.29887549 4.19075946 2.3125 7.9375 C2.32925781 8.99839844 2.34601563 10.05929688 2.36328125 11.15234375 C2 14 2 14 0.6171875 15.8984375 C-1 17 -1 17 -3.1875 16.6875 C-3.785625 16.460625 -4.38375 16.23375 -5 16 C-3.68 15.34 -2.36 14.68 -1 14 C-2.32 14.33 -3.64 14.66 -5 15 C-4.175 14.195625 -3.35 13.39125 -2.5 12.5625 C0.47253985 9.07081235 0.43263066 6.20497649 0.17578125 1.7578125 C0.11777344 1.17773438 0.05976563 0.59765625 0 0 Z " fill="#C6C7C8" transform="translate(152,27)"/>
<path d="M0 0 C0 0.66 0 1.32 0 2 C0.66 2.33 1.32 2.66 2 3 C-0.31 2.67 -2.62 2.34 -5 2 C-4.67 2.99 -4.34 3.98 -4 5 C-7.8063457 4.32829194 -11.35206816 3.27253436 -15 2 C-15 1.67 -15 1.34 -15 1 C-9.94997778 -0.03590199 -5.12583611 -0.10251672 0 0 Z " fill="#525661" transform="translate(86,188)"/>
<path d="M0 0 C0.66 0 1.32 0 2 0 C2.33 2.31 2.66 4.62 3 7 C3.99 7.33 4.98 7.66 6 8 C5.88610125 9.79240663 5.75852313 11.58394835 5.625 13.375 C5.55539063 14.37273437 5.48578125 15.37046875 5.4140625 16.3984375 C5 19 5 19 3 21 C4 12.42857143 4 12.42857143 5 9 C4.401875 8.9175 3.80375 8.835 3.1875 8.75 C0.4033704 7.79544128 -0.43311142 6.42867729 -2 4 C-1.34 2.68 -0.68 1.36 0 0 Z " fill="#72747A" transform="translate(62,172)"/>
<path d="M0 0 C1.53720703 0.01450195 1.53720703 0.01450195 3.10546875 0.02929688 C4.70068359 0.06700195 4.70068359 0.06700195 6.328125 0.10546875 C7.94654297 0.12577148 7.94654297 0.12577148 9.59765625 0.14648438 C12.2583192 0.18180291 14.91796796 0.23112676 17.578125 0.29296875 C13.8282713 2.79287121 11.91591238 2.4681654 7.453125 2.35546875 C1.73270175 2.25609115 -3.75362661 2.49742512 -9.421875 3.29296875 C-6.23351134 0.44902709 -4.23901246 -0.07065021 0 0 Z " fill="#424651" transform="translate(189.421875,138.70703125)"/>
<path d="M0 0 C0.95465783 2.16967689 1.14401212 3.56328793 0.3984375 5.82421875 C-0.35870385 7.5684743 -1.17609198 9.28627131 -2 11 C-2.66 10.34 -3.32 9.68 -4 9 C-4.99 9.99 -5.98 10.98 -7 12 C-6.67 9.36 -6.34 6.72 -6 4 C-4.35 4 -2.7 4 -1 4 C-0.67 2.68 -0.34 1.36 0 0 Z " fill="#9D9E9E" transform="translate(89,123)"/>
<path d="M0 0 C0.99 0.33 1.98 0.66 3 1 C3.6875 3.0625 3.6875 3.0625 4 5 C3.01 5 2.02 5 1 5 C-0.6498007 8.29960141 -0.38258361 11.99127884 -0.5625 15.625 C-0.60568359 16.42679688 -0.64886719 17.22859375 -0.69335938 18.0546875 C-0.79951457 20.0362511 -0.90026855 22.01810271 -1 24 C-1.33 24 -1.66 24 -2 24 C-2.05410136 20.93726169 -2.09372225 17.87548548 -2.125 14.8125 C-2.14175781 13.94818359 -2.15851563 13.08386719 -2.17578125 12.19335938 C-2.21038233 7.67791897 -2.15567916 4.09918517 0 0 Z " fill="#959695" transform="translate(94,91)"/>
<path d="M0 0 C3.3 0 6.6 0 10 0 C10.33 0.99 10.66 1.98 11 3 C9.78515625 4.82421875 9.78515625 4.82421875 8.0625 6.6875 C7.49660156 7.31011719 6.93070312 7.93273437 6.34765625 8.57421875 C5.90292969 9.04472656 5.45820312 9.51523438 5 10 C4.67 9.34 4.34 8.68 4 8 C4.77734375 6.2734375 4.77734375 6.2734375 5.9375 4.375 C6.618125 3.26125 7.29875 2.1475 8 1 C5.36 1 2.72 1 0 1 C0 0.67 0 0.34 0 0 Z M2 11 C2.33 11.66 2.66 12.32 3 13 C2.34 12.67 1.68 12.34 1 12 C1.33 11.67 1.66 11.34 2 11 Z " fill="#949494" transform="translate(105,101)"/>
<path d="M0 0 C0.94875 0.04125 1.8975 0.0825 2.875 0.125 C-0.875 2.125 -0.875 2.125 -3.125 2.125 C-3.16625 2.8675 -3.2075 3.61 -3.25 4.375 C-4.125 7.125 -4.125 7.125 -6.9375 9.5 C-10.125 11.125 -10.125 11.125 -12.5 10.875 C-13.03625 10.6275 -13.5725 10.38 -14.125 10.125 C-9.375 7.125 -9.375 7.125 -7.125 7.125 C-6.83625 6.34125 -6.5475 5.5575 -6.25 4.75 C-4.67213767 1.06832122 -4.09004172 0.16360167 0 0 Z " fill="#444853" transform="translate(162.125,183.875)"/>
<path d="M0 0 C0.33 0 0.66 0 1 0 C2.27947184 6.65941972 1.81115003 10.81546992 -1 17 C-1.33 16.01 -1.66 15.02 -2 14 C-2.99 13.67 -3.98 13.34 -5 13 C-4.34 13 -3.68 13 -3 13 C-1.41744803 8.67435795 -0.54855348 4.571279 0 0 Z " fill="#878789" transform="translate(70,166)"/>
<path d="M0 0 C0.66 0.33 1.32 0.66 2 1 C0.74425659 4.87187551 -0.34007927 7.06837517 -4 9 C-7.25 9.1875 -7.25 9.1875 -10 9 C-9.67 8.34 -9.34 7.68 -9 7 C-7.35 7 -5.7 7 -4 7 C-3.71125 6.401875 -3.4225 5.80375 -3.125 5.1875 C-2 3 -2 3 0 0 Z M-12 9 C-11.01 9.495 -11.01 9.495 -10 10 C-10.99 10.495 -10.99 10.495 -12 11 C-12 10.34 -12 9.68 -12 9 Z " fill="#4C4D4D" transform="translate(94,147)"/>
<path d="M0 0 C1.0219601 3.18184739 0.94954615 5.32243328 0.1875 8.5625 C0.01605469 9.32691406 -0.15539062 10.09132812 -0.33203125 10.87890625 C-1 13 -1 13 -3 16 C-4.32 15.67 -5.64 15.34 -7 15 C-6.01 15 -5.02 15 -4 15 C-3.896875 14.01 -3.79375 13.02 -3.6875 12 C-3.09191294 7.71702837 -1.61404973 4.00003629 0 0 Z " fill="#36373A" transform="translate(72,141)"/>
<path d="M0 0 C0.93423645 3.01031744 1.04449911 3.86650268 0 7 C-0.26829061 10.02785119 -0.44436465 13.05536757 -0.62109375 16.08984375 C-0.98826342 18.90985821 -1.40099343 20.6638243 -3 23 C-3.99 23.33 -4.98 23.66 -6 24 C-5.54625 22.7625 -5.0925 21.525 -4.625 20.25 C-3.00345925 15.43127042 -2.16925428 10.62283171 -1.4296875 5.6015625 C-1 3 -1 3 0 0 Z " fill="#525352" transform="translate(80,120)"/>
<path d="M0 0 C2.31 0.66 4.62 1.32 7 2 C4.05446378 8.34423185 1.47450821 10.55678936 -5 13 C-5 12.34 -5 11.68 -5 11 C-3.06640625 9.34375 -3.06640625 9.34375 -0.5625 7.5 C2.74856792 5.20089737 2.74856792 5.20089737 5 2 C3.35 2 1.7 2 0 2 C0 1.34 0 0.68 0 0 Z " fill="#8B8B8C" transform="translate(93,125)"/>
<path d="M0 0 C0.33 0 0.66 0 1 0 C0.88490339 1.41750563 0.75746342 2.83401169 0.625 4.25 C0.55539063 5.03890625 0.48578125 5.8278125 0.4140625 6.640625 C-0.01507113 9.085877 -0.78600638 10.84836903 -2 13 C-2.99 12.67 -3.98 12.34 -5 12 C-4.53981898 7.85837086 -4.14493915 5.75182176 -1 3 C-0.67 2.01 -0.34 1.02 0 0 Z " fill="#C8C9CC" transform="translate(58,218)"/>
<path d="M0 0 C0.625 1.8125 0.625 1.8125 1 4 C0.01 5.485 0.01 5.485 -1 7 C-1.33 8.19625 -1.66 9.3925 -2 10.625 C-2.33 11.73875 -2.66 12.8525 -3 14 C-3.99 14.495 -3.99 14.495 -5 15 C-4.88541307 13.56163249 -4.75790884 12.12429034 -4.625 10.6875 C-4.55539063 9.88699219 -4.48578125 9.08648437 -4.4140625 8.26171875 C-4 6 -4 6 -2 3 C-1.34 3 -0.68 3 0 3 C0 2.01 0 1.02 0 0 Z " fill="#E4E5E5" transform="translate(103,95)"/>
<path d="M0 0 C1.32 0 2.64 0 4 0 C3.37240135 2.92879371 2.41377341 5.36095629 1 8 C-0.65 8 -2.3 8 -4 8 C-3.67 7.34 -3.34 6.68 -3 6 C-2.34 6 -1.68 6 -1 6 C-0.67 4.02 -0.34 2.04 0 0 Z " fill="#BCBCBD" transform="translate(120,82)"/>
<path d="M0 0 C0.66 0.66 1.32 1.32 2 2 C-3.93919307 5.67864914 -9.10796502 7.79662881 -16 9 C-13.42695105 6.42695105 -10.75710734 5.42057375 -7.4375 3.9375 C-3.45196244 2.391581 -3.45196244 2.391581 0 0 Z " fill="#323643" transform="translate(151,150)"/>
<path d="M0 0 C0.33 1.32 0.66 2.64 1 4 C3.96175123 3.38722388 5.38058783 2.74627478 8 1 C8.99 1.33 9.98 1.66 11 2 C4.92560175 6.90153173 4.92560175 6.90153173 1.0625 7.3125 C0.381875 7.209375 -0.29875 7.10625 -1 7 C-0.67 4.69 -0.34 2.38 0 0 Z " fill="#555963" transform="translate(53,226)"/>
<path d="M0 0 C0.66 0.33 1.32 0.66 2 1 C-1.19588005 4.70722086 -4.38710598 6.40645479 -9 8 C-9.99 7.67 -10.98 7.34 -12 7 C-10.04754815 5.80285445 -8.08785003 4.61751926 -6.125 3.4375 C-5.03445312 2.77621094 -3.94390625 2.11492187 -2.8203125 1.43359375 C-1.88960937 0.96050781 -0.95890625 0.48742187 0 0 Z M-14 8 C-12 9 -12 9 -12 9 Z M-16 9 C-15.34 9.33 -14.68 9.66 -14 10 C-14.99 10 -15.98 10 -17 10 C-16.67 9.67 -16.34 9.34 -16 9 Z " fill="#474A55" transform="translate(192,168)"/>
<path d="M0 0 C0.99 0.33 1.98 0.66 3 1 C2.34 1 1.68 1 1 1 C0.67 5.62 0.34 10.24 0 15 C-0.33 15 -0.66 15 -1 15 C-1.66 10.71 -2.32 6.42 -3 2 C-2.01 2 -1.02 2 0 2 C0 1.34 0 0.68 0 0 Z " fill="#A5A7AC" transform="translate(65,164)"/>
<path d="M0 0 C0.66 0.33 1.32 0.66 2 1 C2.66826453 3.91172403 3.14168506 6.07562039 3 9 C1.3125 11.5625 1.3125 11.5625 -1 13 C-3.25 12.75 -3.25 12.75 -5 12 C-4.01 11.67 -3.02 11.34 -2 11 C-1.67 10.01 -1.34 9.02 -1 8 C-0.34 7.34 0.32 6.68 1 6 C0.34 4.35 -0.32 2.7 -1 1 C-0.67 0.67 -0.34 0.34 0 0 Z " fill="#93969C" transform="translate(76,175)"/>
<path d="M0 0 C0.66 0 1.32 0 2 0 C2.3077917 3.13837611 2.27813784 4.59343628 0.46875 7.23828125 C-0.1809375 7.92277344 -0.830625 8.60726562 -1.5 9.3125 C-2.1496875 10.00988281 -2.799375 10.70726563 -3.46875 11.42578125 C-3.9740625 11.94527344 -4.479375 12.46476562 -5 13 C-5.99 12.67 -6.98 12.34 -8 12 C-7.236875 11.319375 -6.47375 10.63875 -5.6875 9.9375 C-2.67156669 6.64101475 -1.54120983 4.13693165 0 0 Z " fill="#5D5D5D" transform="translate(122,103)"/>
<path d="M0 0 C1.5625 1.25 1.5625 1.25 3 3 C2.71225849 5.97332891 1.39923409 8.38809637 0 11 C-2.64 11 -5.28 11 -8 11 C-8 10.67 -8 10.34 -8 10 C-5.69 9.34 -3.38 8.68 -1 8 C-0.67 5.36 -0.34 2.72 0 0 Z " fill="#9C9D9D" transform="translate(124,81)"/>
<path d="M0 0 C0.99 0.33 1.98 0.66 3 1 C1.44191344 10.59453303 1.44191344 10.59453303 -3 14 C-3.66 13.67 -4.32 13.34 -5 13 C-4.6390625 12.48050781 -4.278125 11.96101563 -3.90625 11.42578125 C-0.2949721 6.19731053 -0.2949721 6.19731053 0 0 Z " fill="#9A9A9A" transform="translate(150,46)"/>
<path d="M0 0 C2 1 2 1 2 1 Z M0 2 C-3.96 3.98 -7.92 5.96 -12 8 C-12 7.01 -12 6.02 -12 5 C-8.46589848 2.37466745 -4.25212581 -0.12606291 0 2 Z " fill="#424652" transform="translate(136,161)"/>
<path d="M0 0 C0.99 0 1.98 0 3 0 C3.20086443 3.71599191 3.1519437 4.77208445 1 8 C0.34 8 -0.32 8 -1 8 C-1 8.66 -1 9.32 -1 10 C-1.66 10 -2.32 10 -3 10 C-2.67 9.443125 -2.34 8.88625 -2 8.3125 C-0.86788784 5.69449063 -0.92378177 3.82007437 -1 1 C-0.67 0.67 -0.34 0.34 0 0 Z " fill="#191C23" transform="translate(102,157)"/>
<path d="M0 0 C0.66 0.33 1.32 0.66 2 1 C1.64607333 3.47748667 0.935181 5.10606746 -0.375 7.25 C-4.5856755 10.057117 -9.08313256 9.30518488 -14 9 C-14 8.67 -14 8.34 -14 8 C-13.31292969 7.97421875 -12.62585938 7.9484375 -11.91796875 7.921875 C-11.01691406 7.86515625 -10.11585937 7.8084375 -9.1875 7.75 C-8.29417969 7.70359375 -7.40085937 7.6571875 -6.48046875 7.609375 C-3.87821588 7.20717493 -3.87821588 7.20717493 -2.23828125 5.140625 C-0.86643214 2.93479735 -0.86643214 2.93479735 0 0 Z " fill="#C4C4C4" transform="translate(133,64)"/>
<path d="M0 0 C1.98 0 3.96 0 6 0 C5.375 2.4375 5.375 2.4375 4 5 C0.875 5.8125 0.875 5.8125 -2 6 C-1.34 4.02 -0.68 2.04 0 0 Z " fill="#F5F5F5" transform="translate(120,65)"/>
<path d="M0 0 C0.66 0.33 1.32 0.66 2 1 C-0.31 3.64 -2.62 6.28 -5 9 C-5.33 7.68 -5.66 6.36 -6 5 C-4.02 3.35 -2.04 1.7 0 0 Z " fill="#353536" transform="translate(101,145)"/>
<path d="M0 0 C0.99 0.33 1.98 0.66 3 1 C0.90824468 6.95345745 0.90824468 6.95345745 -2 9 C-4.6875 9.1875 -4.6875 9.1875 -7 9 C-6.401875 8.814375 -5.80375 8.62875 -5.1875 8.4375 C-1.90018201 6.27726247 -1.35145313 3.64892345 0 0 Z " fill="#797979" transform="translate(130,85)"/>
<path d="M0 0 C0.33 0.99 0.66 1.98 1 3 C2.32 3 3.64 3 5 3 C4.1875 5.4375 4.1875 5.4375 3 8 C2.01 8.33 1.02 8.66 0 9 C-0.87890625 2.84765625 -0.87890625 2.84765625 -1 1 C-0.67 0.67 -0.34 0.34 0 0 Z M-3 2 C-1 3 -1 3 -1 3 Z " fill="#E1E1E2" transform="translate(111,81)"/>
<path d="M0 0 C2 1 2 1 3.125 4.0625 C3.41375 5.031875 3.7025 6.00125 4 7 C3.01 7.33 2.02 7.66 1 8 C0.26676204 10.01508358 0.26676204 10.01508358 0 12 C-0.625 10.125 -0.625 10.125 -1 8 C-0.34 7.34 0.32 6.68 1 6 C0.67 5.67 0.34 5.34 0 5 C-0.04063832 3.33382885 -0.042721 1.66611905 0 0 Z " fill="#B1B2B7" transform="translate(74,175)"/>
<path d="M0 0 C0.33 0 0.66 0 1 0 C1 1.65 1 3.3 1 5 C2.32 5 3.64 5 5 5 C5.33 4.34 5.66 3.68 6 3 C5.67 5.97 5.34 8.94 5 12 C4.67 12 4.34 12 4 12 C4 10.35 4 8.7 4 7 C2.68 6.67 1.36 6.34 0 6 C0 4.02 0 2.04 0 0 Z " fill="#5B5B5C" transform="translate(73,145)"/>
<path d="M0 0 C0.625 1.875 0.625 1.875 1 4 C-1.25170312 6.25170312 -2.32987578 6.51474 -5.375 7.1875 C-6.53128906 7.45626953 -6.53128906 7.45626953 -7.7109375 7.73046875 C-10.11082272 8.01304909 -11.71670535 7.73503321 -14 7 C-9.82262526 5.40861915 -6.46839215 4.78721942 -2 5 C-1.34 3.35 -0.68 1.7 0 0 Z " fill="#A8A9A9" transform="translate(123,85)"/>
<path d="M0 0 C1.65 0 3.3 0 5 0 C5 2 5 2 3.5 3.625 C3.005 4.07875 2.51 4.5325 2 5 C2.66 5.33 3.32 5.66 4 6 C2.68 6 1.36 6 0 6 C0 5.01 0 4.02 0 3 C-0.99 2.67 -1.98 2.34 -3 2 C-2.01 2 -1.02 2 0 2 C0 1.34 0 0.68 0 0 Z " fill="#4D515D" transform="translate(85,177)"/>
<path d="M0 0 C0.66 0 1.32 0 2 0 C2 1.32 2 2.64 2 4 C2.66 4 3.32 4 4 4 C4 4.99 4 5.98 4 7 C1.47524538 8.26237731 -0.31200466 8.09856404 -3.125 8.0625 C-4.03507812 8.05347656 -4.94515625 8.04445312 -5.8828125 8.03515625 C-6.58148438 8.02355469 -7.28015625 8.01195312 -8 8 C-8 7.67 -8 7.34 -8 7 C-5.03 7 -2.06 7 1 7 C0.67 4.69 0.34 2.38 0 0 Z " fill="#53565F" transform="translate(88,168)"/>
<path d="M0 0 C2.6875 -0.3125 2.6875 -0.3125 5 0 C5 0.66 5 1.32 5 2 C3.68 2.33 2.36 2.66 1 3 C1 3.99 1 4.98 1 6 C-0.32 5.67 -1.64 5.34 -3 5 C-1.8125 2.5 -1.8125 2.5 0 0 Z " fill="#959598" transform="translate(81,169)"/>
<path d="M0 0 C1.65 0 3.3 0 5 0 C5 0.99 5 1.98 5 3 C4.01 2.67 3.02 2.34 2 2 C2 2.66 2 3.32 2 4 C1.01 4 0.02 4 -1 4 C-1.33 4.66 -1.66 5.32 -2 6 C-2.33 4.68 -2.66 3.36 -3 2 C-2.01 2 -1.02 2 0 2 C0 1.34 0 0.68 0 0 Z " fill="#83858D" transform="translate(63,162)"/>
<path d="M0 0 C1 2 1 2 0.3125 5 C-1 8 -1 8 -3.125 9.375 C-3.74375 9.58125 -4.3625 9.7875 -5 10 C-3.84414715 6.08788267 -2.64465038 3.1254959 0 0 Z " fill="#6C6D70" transform="translate(99,78)"/>
<path d="M0 0 C0.33 0 0.66 0 1 0 C1.125 6.625 1.125 6.625 0 10 C-0.66 10 -1.32 10 -2 10 C-2.25 3.375 -2.25 3.375 0 0 Z " fill="#676869" transform="translate(73,163)"/>
<path d="M0 0 C0.66 0 1.32 0 2 0 C3.125 5.625 3.125 5.625 2 9 C1.01 9 0.02 9 -1 9 C-0.67 6.03 -0.34 3.06 0 0 Z " fill="#575858" transform="translate(80,159)"/>
<path d="M0 0 C0.99 0 1.98 0 3 0 C3 0.99 3 1.98 3 3 C2.34 3 1.68 3 1 3 C0.896875 3.763125 0.79375 4.52625 0.6875 5.3125 C-0.04364039 8.17059424 -0.76951913 9.15742885 -3 11 C-2.67 9.02 -2.34 7.04 -2 5 C-1.34 5 -0.68 5 0 5 C0 3.35 0 1.7 0 0 Z " fill="#434650" transform="translate(99,71)"/>
<path d="M0 0 C0.33 0 0.66 0 1 0 C1.36923077 7.50769231 1.36923077 7.50769231 -0.5 10 C-0.995 10.33 -1.49 10.66 -2 11 C-2.28571429 3.57142857 -2.28571429 3.57142857 0 0 Z " fill="#CFD0D2" transform="translate(62,205)"/>
<path d="M0 0 C0 3 0 3 -2.125 5.6875 C-5 8 -5 8 -8.3125 8.3125 C-9.6428125 8.1578125 -9.6428125 8.1578125 -11 8 C-11 7.67 -11 7.34 -11 7 C-9.6696875 6.6596875 -9.6696875 6.6596875 -8.3125 6.3125 C-4.56619468 4.82811487 -2.66270566 2.97596515 0 0 Z " fill="#5A5A5A" transform="translate(107,128)"/>
<path d="M0 0 C0.33 0 0.66 0 1 0 C1.144375 0.78375 1.28875 1.5675 1.4375 2.375 C1.87798925 4.96421018 1.87798925 4.96421018 3 7 C2.34 7 1.68 7 1 7 C0.67 8.32 0.34 9.64 0 11 C-0.99 10.67 -1.98 10.34 -3 10 C-2.01 6.7 -1.02 3.4 0 0 Z " fill="#CFD0D0" transform="translate(104,88)"/>
<path d="M0 0 C0.33 0.66 0.66 1.32 1 2 C-0.32 3.65 -1.64 5.3 -3 7 C-4.32 6.67 -5.64 6.34 -7 6 C-4.69 4.02 -2.38 2.04 0 0 Z " fill="#C3C4C5" transform="translate(135,30)"/>
<path d="M0 0 C1 2 1 2 0.22265625 4.8203125 C-0.16019531 5.91085938 -0.54304688 7.00140625 -0.9375 8.125 C-1.31777344 9.22070312 -1.69804688 10.31640625 -2.08984375 11.4453125 C-2.39019531 12.28835937 -2.69054688 13.13140625 -3 14 C-4.29887873 9.80858283 -3.42963299 7.1384113 -2 3 C-1.34 2.01 -0.68 1.02 0 0 Z " fill="#66676B" transform="translate(64,193)"/>
<path d="M0 0 C0.66 0.33 1.32 0.66 2 1 C0.06382979 7.70212766 0.06382979 7.70212766 -3 10 C-3.66 10 -4.32 10 -5 10 C-3.84826645 7.53199953 -2.95216435 5.95216435 -1 4 C-0.3574765 1.93125966 -0.3574765 1.93125966 0 0 Z " fill="#727273" transform="translate(102,125)"/>
<path d="M0 0 C0.66 0 1.32 0 2 0 C2.125 6.75 2.125 6.75 1 9 C0.34 9 -0.32 9 -1 9 C-0.67 6.03 -0.34 3.06 0 0 Z " fill="#CECECF" transform="translate(90,123)"/>
<path d="M0 0 C0.99 0.33 1.98 0.66 3 1 C2.67 1.33 2.34 1.66 2 2 C2.99 2.66 3.98 3.32 5 4 C3.02 4.33 1.04 4.66 -1 5 C-1 1 -1 1 0 0 Z " fill="#111112" transform="translate(94,163)"/>
<path d="M0 0 C0.598125 0.226875 1.19625 0.45375 1.8125 0.6875 C0.8225 0.6875 -0.1675 0.6875 -1.1875 0.6875 C-1.5896875 1.8940625 -1.5896875 1.8940625 -2 3.125 C-2.5878125 4.3934375 -2.5878125 4.3934375 -3.1875 5.6875 C-4.1775 6.0175 -5.1675 6.3475 -6.1875 6.6875 C-5.78066505 4.32785727 -5.28935661 2.82815912 -3.875 0.875 C-2.1875 -0.3125 -2.1875 -0.3125 0 0 Z " fill="#212122" transform="translate(103.1875,148.3125)"/>
<path d="M0 0 C-2.64 1.65 -5.28 3.3 -8 5 C-8 3.68 -8 2.36 -8 1 C-2.25 -1.125 -2.25 -1.125 0 0 Z " fill="#363A47" transform="translate(164,147)"/>
<path d="M0 0 C-0.33 0.66 -0.66 1.32 -1 2 C-2.33076989 2.34342449 -3.66431979 2.67619874 -5 3 C-5.66 3.66 -6.32 4.32 -7 5 C-7.99 4.67 -8.98 4.34 -10 4 C-6.58908673 0.88145073 -4.68377325 -0.53528837 0 0 Z " fill="#424551" transform="translate(180,142)"/>
<path d="M0 0 C0.33 0.99 0.66 1.98 1 3 C0 4.5 0 4.5 -2 6 C-4.71846235 6.27345479 -7.25677199 6.13491285 -10 6 C-10 5.67 -10 5.34 -10 5 C-8.906875 4.731875 -7.81375 4.46375 -6.6875 4.1875 C-3.38307337 3.12336261 -2.05039578 2.65345336 0 0 Z " fill="#6A6A6A" transform="translate(132,89)"/>
<path d="M0 0 C0.33 0.66 0.66 1.32 1 2 C2.98 1.67 4.96 1.34 7 1 C7 1.66 7 2.32 7 3 C4.36 3.66 1.72 4.32 -1 5 C-0.67 3.35 -0.34 1.7 0 0 Z " fill="#E8E8E8" transform="translate(117,69)"/>
<path d="M0 0 C1.5625 1.125 1.5625 1.125 3 3 C2.6875 6.1875 2.6875 6.1875 2 9 C1.34 8.67 0.68 8.34 0 8 C0 5.36 0 2.72 0 0 Z " fill="#AAABAA" transform="translate(114,61)"/>
<path d="M0 0 C2.31 0 4.62 0 7 0 C6.401875 0.2475 5.80375 0.495 5.1875 0.75 C2.71352479 2.16370012 1.56629745 3.65055383 0 6 C0 5.34 0 4.68 0 4 C-0.66 4 -1.32 4 -2 4 C-1.34 2.68 -0.68 1.36 0 0 Z " fill="#858686" transform="translate(141,61)"/>
<path d="M0 0 C-1.26418246 0.69965443 -2.53665402 1.38434763 -3.8125 2.0625 C-4.52019531 2.44535156 -5.22789062 2.82820312 -5.95703125 3.22265625 C-8 4 -8 4 -11 3 C-7.70039114 0.18922208 -4.22288017 -2.11144009 0 0 Z " fill="#454954" transform="translate(147,196)"/>
<path d="M0 0 C0.99 0.33 1.98 0.66 3 1 C0.36 2.98 -2.28 4.96 -5 7 C-5.66 6.67 -6.32 6.34 -7 6 C-5.90716423 4.96704564 -4.80029421 3.94892165 -3.6875 2.9375 C-3.07261719 2.36902344 -2.45773438 1.80054688 -1.82421875 1.21484375 C-0.92123047 0.61349609 -0.92123047 0.61349609 0 0 Z " fill="#424551" transform="translate(120,168)"/>
<path d="M0 0 C0.33 0 0.66 0 1 0 C2.21513944 6.3187251 2.21513944 6.3187251 1.25 9.375 C0 11 0 11 -3 12 C-2.690625 11.319375 -2.38125 10.63875 -2.0625 9.9375 C-0.86629351 6.63034088 -0.40994603 3.48454122 0 0 Z " fill="#474848" transform="translate(72,145)"/>
<path d="M0 0 C1.32 0.33 2.64 0.66 4 1 C2.35830472 3.02054804 0.69088222 5.02043058 -1 7 C-1.33 7 -1.66 7 -2 7 C-2 5.35 -2 3.7 -2 2 C-1.34 2 -0.68 2 0 2 C0 1.34 0 0.68 0 0 Z " fill="#949696" transform="translate(107,93)"/>
<path d="M0 0 C0.66 0.33 1.32 0.66 2 1 C0.29374499 3.78388975 -0.47626739 4.85384206 -3.6875 5.75 C-4.8321875 5.87375 -4.8321875 5.87375 -6 6 C-4 4 -2 2 0 0 Z " fill="#313643" transform="translate(72,211)"/>
<path d="M0 0 C0.99 0.33 1.98 0.66 3 1 C3.6875 3.0625 3.6875 3.0625 4 5 C3.01 5 2.02 5 1 5 C0.34 5.66 -0.32 6.32 -1 7 C-0.67 4.69 -0.34 2.38 0 0 Z " fill="#9B9B9B" transform="translate(94,91)"/>
<path d="M0 0 C0.66 0 1.32 0 2 0 C1.38722388 2.96175123 0.74627478 4.38058783 -1 7 C-1.66 7 -2.32 7 -3 7 C-1.125 1.125 -1.125 1.125 0 0 Z " fill="#E2E2E3" transform="translate(125,38)"/>
<path d="M0 0 C0.66 0.33 1.32 0.66 2 1 C2 2.65 2 4.3 2 6 C1.01 6 0.02 6 -1 6 C-0.67 7.32 -0.34 8.64 0 10 C-0.66 9.67 -1.32 9.34 -2 9 C-1.41196203 5.97580475 -0.77321882 2.98241547 0 0 Z " fill="#4C505C" transform="translate(61,158)"/>
<path d="M0 0 C1.32 0.33 2.64 0.66 4 1 C4 1.66 4 2.32 4 3 C3.34 3 2.68 3 2 3 C1.67 4.65 1.34 6.3 1 8 C0.67 8 0.34 8 0 8 C0 5.36 0 2.72 0 0 Z " fill="#747577" transform="translate(92,88)"/>
</svg>
