<?xml version="1.0" encoding="UTF-8"?>
<svg version="1.1" xmlns="http://www.w3.org/2000/svg" width="256" height="256">
<path d="M0 0 C1.53672103 -0.00599196 3.07343906 -0.01279903 4.6101532 -0.02035522 C8.76746079 -0.03795708 12.92468594 -0.04270821 17.0820272 -0.0439868 C19.6852813 -0.04541255 22.28851474 -0.04969022 24.89176369 -0.05498123 C33.99068141 -0.07346411 43.08954069 -0.08165426 52.18847656 -0.08007812 C60.64202175 -0.07887804 69.09531109 -0.09995874 77.54879159 -0.13156545 C84.82893808 -0.15780568 92.10900142 -0.16844215 99.38919479 -0.16716731 C103.72730984 -0.16665983 108.06519746 -0.17222294 112.403265 -0.19352341 C116.48855445 -0.21303631 120.5734026 -0.21294224 124.65870857 -0.19849014 C126.14810209 -0.19641682 127.63752419 -0.20101358 129.1268692 -0.21321106 C147.25399696 -0.35191352 162.10254308 4.84543512 175.09887695 17.53662109 C188.24091221 30.96435277 192.09895774 46.23023946 192.0847168 64.49633789 C192.09070876 66.03305892 192.09751583 67.56977695 192.10507202 69.10649109 C192.12267387 73.26379868 192.12742501 77.42102383 192.12870359 81.57836509 C192.13012935 84.18161919 192.13440702 86.78485263 192.13969803 89.38810158 C192.1581809 98.4870193 192.16637105 107.58587858 192.16479492 116.68481445 C192.16359483 125.13835964 192.18467554 133.59164898 192.21628225 142.04512948 C192.24252248 149.32527597 192.25315894 156.60533932 192.2518841 163.88553268 C192.25137663 168.22364773 192.25693973 172.56153535 192.2782402 176.89960289 C192.29775311 180.98489235 192.29765904 185.06974049 192.28320694 189.15504646 C192.28113362 190.64443998 192.28573038 192.13386208 192.29792786 193.62320709 C192.43287984 211.26018259 187.38017794 226.0958012 175.14575195 239.00537109 C161.22572478 252.53230779 146.29436703 256.75906365 127.24780273 256.69458008 C125.71063749 256.70029439 124.17347647 256.70726273 122.63632202 256.71537781 C118.49154259 256.73320813 114.34697604 256.73215996 110.2021699 256.72643542 C106.72833917 256.72332854 103.25454846 256.72945267 99.78072345 256.73547417 C91.57830927 256.74948482 83.37599931 256.74798729 75.17358398 256.73657227 C66.74211641 256.72509698 58.31096716 256.73916466 49.87954152 256.76596874 C42.61206277 256.78819827 35.34468341 256.79474677 28.07717311 256.78889233 C23.74917717 256.78553853 19.42138513 256.78783184 15.09341812 256.80514336 C11.02038032 256.8207265 6.94781027 256.8165326 2.87479019 256.79783821 C1.39023929 256.79418339 -0.09434717 256.79716877 -1.57886505 256.807724 C-19.19600599 256.92330737 -34.02640823 251.8619934 -46.9206543 239.64208984 C-60.447591 225.72206267 -64.67434685 210.79070492 -64.60986328 191.74414062 C-64.6155776 190.20697538 -64.62254593 188.66981436 -64.63066101 187.13265991 C-64.64849134 182.98788048 -64.64744316 178.84331393 -64.64171863 174.69850779 C-64.63861174 171.22467706 -64.64473587 167.75088635 -64.65075737 164.27706134 C-64.66476802 156.07464716 -64.6632705 147.8723372 -64.65185547 139.66992188 C-64.64038018 131.2384543 -64.65444786 122.80730505 -64.68125194 114.37587941 C-64.70348147 107.10840066 -64.71002998 99.8410213 -64.70417553 92.573511 C-64.70082173 88.24551506 -64.70311504 83.91772302 -64.72042656 79.58975601 C-64.7360097 75.51671822 -64.7318158 71.44414816 -64.71312141 67.37112808 C-64.70946659 65.88657718 -64.71245197 64.40199072 -64.7230072 62.91747284 C-64.84180877 44.80981648 -59.6366833 29.96761236 -46.9597168 16.98583984 C-33.53198512 3.84380458 -18.26609843 -0.01424094 0 0 Z " fill="#232838" transform="translate(64.205810546875,-0.29052734375)"/>
<path d="M0 0 C1.70522575 -0.01073296 1.70522575 -0.01073296 3.44490051 -0.02168274 C4.68808044 -0.02437164 5.93126038 -0.02706055 7.21211243 -0.02983093 C9.18103203 -0.03968773 9.18103203 -0.03968773 11.18972778 -0.04974365 C15.5400318 -0.07074455 19.890336 -0.08114325 24.24067688 -0.09111023 C25.74120921 -0.09515946 27.24174137 -0.09927643 28.74227333 -0.10346031 C35.79396719 -0.12250434 42.84565065 -0.13673625 49.89736527 -0.14507228 C58.02322101 -0.15483798 66.14880386 -0.18114317 74.27456349 -0.22157317 C80.56433165 -0.25178846 86.85402182 -0.26654632 93.14386111 -0.26985329 C96.89619846 -0.27219787 100.64824402 -0.28108034 104.40050316 -0.30631447 C107.93416563 -0.32969508 111.46734626 -0.33378889 115.00106621 -0.32355309 C116.90421061 -0.32282627 118.80733108 -0.34184763 120.71037292 -0.36161804 C128.66965669 -0.31359734 135.54793874 0.55897912 141.57270813 6.14717102 C142.01614563 6.80717102 142.45958313 7.46717102 142.91645813 8.14717102 C143.38052063 8.80717102 143.84458313 9.46717102 144.32270813 10.14717102 C146.39336804 13.93352057 146.5462442 17.45605956 146.57035828 21.72398376 C146.57895874 22.85935577 146.5875592 23.99472778 146.59642029 25.164505 C146.60281021 27.02691833 146.60281021 27.02691833 146.60932922 28.92695618 C146.62159546 30.89346634 146.62159546 30.89346634 146.6341095 32.89970398 C146.66027598 37.24519306 146.67563401 41.59069149 146.68989563 45.93623352 C146.69525794 47.43550497 146.70063546 48.93477636 146.70602798 50.4340477 C146.72765084 56.67407968 146.74638463 62.91410914 146.75765038 69.15416908 C146.77387133 78.07845559 146.80701035 87.00230552 146.86405122 95.92642748 C146.90284283 102.21111342 146.92229405 108.49568305 146.92757094 114.78048551 C146.93121248 118.52901785 146.94310441 122.27708396 146.97567368 126.02548599 C147.00591692 129.55676186 147.01200936 133.0872934 147.00028992 136.61867142 C146.99996664 138.51807411 147.02432495 140.417432 147.04966736 142.31666565 C146.99523744 149.85639592 145.96455921 155.9539407 141.41645813 162.14717102 C136.30417825 166.35461589 131.59774832 168.26360187 124.9598999 168.30107117 C123.82590256 168.30967163 122.69190521 168.31827209 121.52354431 168.32713318 C120.27834015 168.33139313 119.03313599 168.33565308 117.75019836 168.34004211 C116.43933762 168.3482196 115.12847687 168.35639709 113.77789307 168.36482239 C109.42696687 168.3910237 105.07603117 168.40635273 100.72505188 168.42060852 C99.22485409 168.42596985 97.72465637 168.43134736 96.22445869 168.43674088 C89.98017809 168.45837094 83.73590004 168.47710432 77.49159145 168.48836327 C68.55771072 168.50457967 59.62426648 168.53769926 50.69055027 168.59476411 C44.40163824 168.63355708 38.11284246 168.65300724 31.82381397 168.65828383 C28.0719135 168.66192588 24.32047875 168.6738227 20.56870842 168.70638657 C17.03334218 168.73663124 13.4987194 168.74272174 9.96325111 168.73100281 C8.06145351 168.73067952 6.15970068 168.75503827 4.2580719 168.78038025 C-4.57485339 168.71669452 -11.62240762 167.00927691 -18.08354187 160.70967102 C-20.82512935 156.02612574 -21.83302933 151.70585065 -21.84423828 146.30966187 C-21.85132309 145.16720505 -21.8584079 144.02474823 -21.8657074 142.84767151 C-21.86322998 141.60854004 -21.86075256 140.36940857 -21.85820007 139.09272766 C-21.863311 137.77660995 -21.86842194 136.46049225 -21.87368774 135.10449219 C-21.88704395 131.50529029 -21.88766023 127.90619362 -21.88512444 124.30697179 C-21.8840525 121.29758948 -21.88894377 118.28822827 -21.89372987 115.2788505 C-21.90481322 108.17707986 -21.90526897 101.07536213 -21.8992157 93.97358704 C-21.89317523 86.65720655 -21.90549136 79.34101835 -21.92678577 72.02467066 C-21.94442119 65.7331848 -21.9504001 59.44176003 -21.94714803 53.15025038 C-21.94533822 49.39695881 -21.94794106 45.64380444 -21.96186256 41.89053535 C-21.97681143 37.70390019 -21.96745386 33.51765469 -21.95585632 29.33100891 C-21.96732193 27.47534805 -21.96732193 27.47534805 -21.97901917 25.5821991 C-21.92518113 16.79168014 -20.82164097 10.75221712 -14.58354187 4.14717102 C-9.73290219 0.75172324 -5.84424751 0.02529055 0 0 Z " fill="#1269E3" transform="translate(65.58354187011719,43.85282897949219)"/>
<path d="M0 0 C1.0759845 -0.00218285 1.0759845 -0.00218285 2.17370605 -0.00440979 C3.68664624 -0.00275366 5.19960376 0.00877585 6.71240234 0.02954102 C9.02384234 0.05850094 11.33298775 0.05014532 13.64453125 0.03710938 C15.11719861 0.04334728 16.58985875 0.05173865 18.0625 0.0625 C19.09546204 0.05809654 19.09546204 0.05809654 20.14929199 0.05360413 C22.91756292 0.1078354 25.18098942 0.33718281 27.71463013 1.48667908 C30.54553127 4.61801898 30.07165817 8.04000929 30.01708984 12.05078125 C30.02088654 12.9242218 30.02468323 13.79766235 30.02859497 14.6975708 C30.03601356 17.58910865 30.01459985 20.47964497 29.9921875 23.37109375 C29.98980375 25.3774402 29.98889761 27.38378891 29.9894104 29.39013672 C29.98628015 33.59682165 29.96969747 37.8031663 29.94287109 42.00976562 C29.908891 47.40710618 29.90124239 52.80407258 29.90276146 58.20150757 C29.90221808 62.34500717 29.89125605 66.48842466 29.87675858 70.63189697 C29.8703857 72.62224709 29.86645054 74.61260653 29.86497116 76.60296631 C29.86064337 79.38260809 29.84315361 82.16185011 29.82177734 84.94140625 C29.8231369 86.18050751 29.8231369 86.18050751 29.82452393 87.44464111 C29.78094578 91.31234308 29.72639247 93.20338005 27.53125 96.49609375 C22.33345096 98.22869343 16.77688104 97.80061625 11.33496094 97.84619141 C9.88590436 97.86275391 8.4369296 97.89004881 6.98828125 97.92822266 C4.89019784 97.98315881 2.79401937 98.00488437 0.6953125 98.01953125 C-1.18486572 98.04926025 -1.18486572 98.04926025 -3.10302734 98.07958984 C-7.51800986 97.31418957 -8.73512519 96.01707357 -11.46875 92.49609375 C-11.95814892 89.44592438 -12.14442826 86.95837694 -12.09985352 83.91381836 C-12.10700882 83.06119919 -12.11416412 82.20858002 -12.12153625 81.3301239 C-12.13841013 78.51901253 -12.1190305 75.70949873 -12.09765625 72.8984375 C-12.09848499 70.94218311 -12.10094458 68.98592878 -12.10496521 67.02967834 C-12.10782221 62.93322752 -12.09313009 58.83732376 -12.06567383 54.7409668 C-12.03156876 49.48929597 -12.03761772 44.23860189 -12.0563364 38.98688412 C-12.06690205 34.94881543 -12.0579729 30.91097424 -12.04295158 26.87292671 C-12.03776763 24.9364343 -12.03825415 22.99991816 -12.04449654 21.06342888 C-12.04994437 18.35809045 -12.02958893 15.65415336 -12.00219727 12.94897461 C-12.00872314 12.14834595 -12.01524902 11.34771729 -12.02197266 10.52282715 C-11.96107206 6.98724283 -11.75865735 4.89392048 -9.64915466 1.99914551 C-6.53989192 -0.14421022 -3.64440564 -0.0594521 0 0 Z " fill="#232938" transform="translate(86.46875,74.50390625)"/>
<path d="M0 0 C0.717323 -0.0038269 1.434646 -0.00765381 2.17370605 -0.01159668 C3.68661914 -0.01431227 5.19957945 -0.00697555 6.71240234 0.00976562 C9.02417976 0.03118449 11.33285013 0.00995649 13.64453125 -0.015625 C15.11719434 -0.01298166 16.5898555 -0.00785653 18.0625 0 C18.75114136 -0.00809692 19.43978271 -0.01619385 20.14929199 -0.02453613 C23.16693103 0.03422832 25.3110798 0.41067167 27.96704102 1.86523438 C30.53774658 6.2467085 30.08013618 10.7351065 30.02734375 15.71875 C30.02879898 16.81340576 30.03025421 17.90806152 30.03175354 19.03588867 C30.03009432 21.34914818 30.01853062 23.6624187 29.99780273 25.97558594 C29.96885782 29.51805473 29.97719225 33.05902643 29.99023438 36.6015625 C29.98399671 38.84896561 29.97560555 41.096364 29.96484375 43.34375 C29.96777939 44.40424561 29.97071503 45.46474121 29.97373962 46.55737305 C29.95471336 48.03911011 29.95471336 48.03911011 29.93530273 49.55078125 C29.92989975 50.41807861 29.92449677 51.28537598 29.91893005 52.17895508 C29.44205162 55.07247182 28.58088629 56.44989309 26.53125 58.53125 C23.78135174 58.92477653 21.43610502 59.06903175 18.6875 59.02734375 C17.92199829 59.02879898 17.15649658 59.03025421 16.36779785 59.03175354 C14.75053092 59.03009473 13.13324817 59.01853523 11.51611328 58.99780273 C9.04000836 58.9688524 6.56604499 58.97719138 4.08984375 58.99023438 C2.51821876 58.98399666 0.94660053 58.97560545 -0.625 58.96484375 C-1.73603088 58.96924721 -1.73603088 58.96924721 -2.86950684 58.97373962 C-7.98288746 58.87985218 -7.98288746 58.87985218 -10.16261292 57.31591797 C-11.8883826 54.95787614 -11.85508841 53.48157231 -11.87280273 50.57250977 C-11.88548691 49.56458878 -11.89817108 48.55666779 -11.91123962 47.51820374 C-11.90683617 45.88690773 -11.90683617 45.88690773 -11.90234375 44.22265625 C-11.9075856 43.1043895 -11.91282745 41.98612274 -11.91822815 40.83396912 C-11.92465514 38.46769034 -11.92330265 36.10137964 -11.91479492 33.73510742 C-11.90629104 30.11123816 -11.93502936 26.48894757 -11.96679688 22.86523438 C-11.96840906 20.56770881 -11.96783102 18.27018044 -11.96484375 15.97265625 C-11.97607773 14.88714981 -11.98731171 13.80164337 -11.99888611 12.6832428 C-11.98950516 11.67216965 -11.98012421 10.6610965 -11.97045898 9.61938477 C-11.97029282 8.7313063 -11.97012665 7.84322784 -11.96995544 6.92823792 C-10.62023543 0.47327499 -5.70881109 -0.0671232 0 0 Z " fill="#232938" transform="translate(151.46875,74.46875)"/>
</svg>
