<?xml version="1.0" encoding="UTF-8"?>
<svg version="1.1" xmlns="http://www.w3.org/2000/svg" width="400" height="400">
<path d="M0 0 C132 0 264 0 400 0 C400 132 400 264 400 400 C268 400 136 400 0 400 C0 268 0 136 0 0 Z " fill="#4BAAB2" transform="translate(0,0)"/>
<path d="M0 0 C0 14.85 0 29.7 0 45 C9.405 44.01 9.405 44.01 19 43 C29.04654308 42.24462082 38.93266477 41.8584281 49 42 C48.52451163 45.58383145 48.04396997 49.16696764 47.5625 52.75 C47.36043945 54.27367187 47.36043945 54.27367187 47.15429688 55.828125 C47.02216797 56.8078125 46.89003906 57.7875 46.75390625 58.796875 C46.63345947 59.69760742 46.5130127 60.59833984 46.38891602 61.52636719 C46.04205758 63.73250008 45.58252295 65.84576418 45 68 C34.26238249 68.12632491 23.56254964 67.91853238 12.83203125 67.49609375 C10.97269958 67.42497375 10.97269958 67.42497375 9.07580566 67.35241699 C6.0504745 67.23647878 3.02521297 67.11897568 0 67 C0.08460285 80.4831451 0.17956296 93.96617445 0.28752708 107.4491539 C0.33734533 113.71070923 0.38367617 119.97224887 0.421875 126.23388672 C0.45891117 132.28346307 0.50531977 138.33290329 0.55806351 144.38236237 C0.57651044 146.68343961 0.59165366 148.98454593 0.60334396 151.28566742 C-0.07263092 169.64887063 -0.07263092 169.64887063 4.5625 187.0625 C10.11845982 191.47877576 16.8448116 192.68130812 23.8359375 192.484375 C33.69793782 190.97463668 42.77889963 186.48073358 51 181 C51.99 181 52.98 181 54 181 C55.859375 183.265625 55.859375 183.265625 57.75 186.25 C58.38421875 187.22453125 59.0184375 188.1990625 59.671875 189.203125 C61 192 61 192 61.06640625 194.0625 C59.42556401 197.04366392 56.88466966 198.78370606 54.1875 200.75 C53.60073486 201.18610596 53.01396973 201.62221191 52.40942383 202.0715332 C50.61545907 203.39415103 48.80898531 204.69803307 47 206 C46.0203125 206.72058594 45.040625 207.44117188 44.03125 208.18359375 C36.71060922 213.3422321 29.05710397 217.02081171 20.76269531 220.29980469 C19.31789553 220.87372239 17.88711632 221.4828203 16.4609375 222.1015625 C3.80821631 226.88545355 -12.75957982 225.06229926 -25 220 C-34.98367133 215.22160834 -41.42468225 209.23782419 -45.95703125 199.13671875 C-48.75728082 190.71499439 -49.28497893 182.58272664 -49.22705078 173.75732422 C-49.22734283 172.57568192 -49.22763489 171.39403961 -49.22793579 170.17658997 C-49.22655152 166.30254565 -49.21103284 162.42869788 -49.1953125 158.5546875 C-49.19046179 155.85613106 -49.18863521 153.15757481 -49.18673706 150.45901489 C-49.18054596 144.10214841 -49.16416758 137.74535155 -49.14403808 131.38851559 C-49.12160487 124.14538418 -49.11066707 116.90224927 -49.10064721 109.65909171 C-49.07979896 94.77268817 -49.04426191 79.88635369 -49 65 C-55.93 65 -62.86 65 -70 65 C-73 52.25 -73 52.25 -73 50 C-65.56570565 46.54218868 -57.25279086 43 -49 43 C-49 36.07 -49 29.14 -49 22 C-38.59352166 17.04453412 -28.13450732 12.21666985 -17.63357544 7.46539307 C-16.20789763 6.82030715 -14.78250397 6.17459288 -13.35739136 5.52825928 C-11.33292671 4.61054735 -9.30729351 3.69547004 -7.28125 2.78125 C-6.09595703 2.24564453 -4.91066406 1.71003906 -3.68945312 1.15820312 C-1 0 -1 0 0 0 Z " fill="#FCFEFD" transform="translate(205,88)"/>
<path d="M0 0 C1.1734927 9.22161978 1.11370415 18.34835321 1.0625 27.625 C1.05747395 29.21744651 1.052913 30.80989455 1.04882812 32.40234375 C1.03791237 36.26826779 1.02070895 40.13411653 1 44 C1.67764404 43.96970703 2.35528809 43.93941406 3.0534668 43.90820312 C18.0461008 43.25090866 32.99309948 42.85662197 48 43 C49.125 45.25 49.125 45.25 50 48 C49.1953125 50.015625 49.1953125 50.015625 48 52 C47.57848115 53.57158878 47.2031166 55.15629082 46.875 56.75 C46.70742187 57.54921875 46.53984375 58.3484375 46.3671875 59.171875 C46.18542969 60.07679688 46.18542969 60.07679688 46 61 C46.66 61 47.32 61 48 61 C47.67 63.31 47.34 65.62 47 68 C47.66 68.33 48.32 68.66 49 69 C47.68 69.33 46.36 69.66 45 70 C46.32 70 47.64 70 49 70 C48.505 71.98 48.505 71.98 48 74 C47.13648926 73.83628906 46.27297852 73.67257813 45.38330078 73.50390625 C42.13747657 73.02047566 39.14417034 72.90067422 35.8671875 72.9375 C34.73152344 72.94523437 33.59585938 72.95296875 32.42578125 72.9609375 C31.25402344 72.97382813 30.08226562 72.98671875 28.875 73 C26.5391091 73.02552886 24.20316348 73.04655477 21.8671875 73.0625 C20.83706543 73.07410156 19.80694336 73.08570313 18.74560547 73.09765625 C16.31468431 73.01119276 14.31657235 72.70362855 12 72 C12 71.34 12 70.68 12 70 C10.948125 70.309375 9.89625 70.61875 8.8125 70.9375 C5.87247604 71.75685094 2.99838377 72.45483931 0 73 C0.16265854 74.27270248 0.32531708 75.54540497 0.49290466 76.85667419 C1.06292636 82.01542886 1.13396677 87.10754476 1.11352539 92.29321289 C1.11367142 93.27963776 1.11381744 94.26606262 1.1139679 95.28237915 C1.11327643 98.51249462 1.10552021 101.74255097 1.09765625 104.97265625 C1.09578934 107.22423776 1.09436673 109.47581967 1.09336853 111.72740173 C1.08956482 117.63086077 1.079753 123.53429489 1.06866455 129.43774414 C1.05840415 135.47086246 1.05386102 141.50398483 1.04882812 147.53710938 C1.03812868 159.35808381 1.02107822 171.17903983 1 183 C-2.87064145 177.19403783 -2.13878543 170.42683636 -2.11352539 163.68017578 C-2.11367142 162.65517471 -2.11381744 161.63017365 -2.1139679 160.57411194 C-2.11327316 157.19782367 -2.10550129 153.82159109 -2.09765625 150.4453125 C-2.09579051 148.09976227 -2.09436734 145.75421165 -2.09336853 143.40866089 C-2.08955562 137.24376342 -2.0797358 131.07888961 -2.06866455 124.91400146 C-2.05842407 118.61975423 -2.05386526 112.32550317 -2.04882812 106.03125 C-2.03811243 93.68748962 -2.02105073 81.34374678 -2 69 C2.27734005 68.98530095 6.55467347 68.97653434 10.83203125 68.96875 C12.03025513 68.96456055 13.228479 68.96037109 14.4630127 68.95605469 C24.00784181 68.9430619 33.48278097 69.30331469 43 70 C43.18175781 68.19015625 43.18175781 68.19015625 43.3671875 66.34375 C43.53615881 64.72913529 43.70544656 63.11455368 43.875 61.5 C43.95363281 60.70851562 44.03226562 59.91703125 44.11328125 59.1015625 C44.19707031 58.31523437 44.28085938 57.52890625 44.3671875 56.71875 C44.44050293 56.00654297 44.51381836 55.29433594 44.58935547 54.56054688 C45.16444164 50.97463503 46.08870634 47.51545311 47 44 C45.19982422 44.13631836 45.19982422 44.13631836 43.36328125 44.27539062 C38.88319802 44.61384847 34.40282773 44.94836814 29.92236328 45.28173828 C27.98836427 45.42618232 26.05444321 45.57167439 24.12060547 45.71826172 C21.33060546 45.92956002 18.54034083 46.13700713 15.75 46.34375 C14.89446533 46.40937134 14.03893066 46.47499268 13.1574707 46.54260254 C12.33722412 46.60266479 11.51697754 46.66272705 10.671875 46.72460938 C9.9612793 46.77790405 9.25068359 46.83119873 8.51855469 46.8861084 C5.01574396 47.04450906 1.50639042 47 -2 47 C-2.33 32.48 -2.66 17.96 -3 3 C-22.63323812 11.6467098 -22.63323812 11.6467098 -42.08203125 20.6953125 C-44.97610747 21.98931713 -47.99249063 22.99749688 -51 24 C-51 30.93 -51 37.86 -51 45 C-54.62390715 46.17015783 -58.24902779 47.3362741 -61.875 48.5 C-62.90753906 48.83386719 -63.94007813 49.16773438 -65.00390625 49.51171875 C-65.99003906 49.82753906 -66.97617188 50.14335937 -67.9921875 50.46875 C-68.90339355 50.76201172 -69.81459961 51.05527344 -70.75341797 51.35742188 C-73 52 -73 52 -75 52 C-74.7834375 52.91523438 -74.566875 53.83046875 -74.34375 54.7734375 C-74.0653125 55.96195313 -73.786875 57.15046875 -73.5 58.375 C-73.2215625 59.55835938 -72.943125 60.74171875 -72.65625 61.9609375 C-72 65 -72 65 -72 67 C-65.07 67 -58.14 67 -51 67 C-51 104.62 -51 142.24 -51 181 C-51.33 181 -51.66 181 -52 181 C-52.26428059 170.46234261 -52.52526033 159.92460872 -52.78230286 149.38677216 C-52.90182297 144.49088105 -53.02237813 139.59502051 -53.14550781 134.69921875 C-53.28769582 129.03913814 -53.42650445 123.37898273 -53.5625 117.71875 C-53.58464569 116.8025589 -53.60679138 115.8863678 -53.62960815 114.94241333 C-53.91125606 103.12383686 -54.11279393 91.31659725 -53.96313477 79.49401855 C-53.76548478 75.11070039 -53.76548478 75.11070039 -55 71 C-56.27875 71.020625 -57.5575 71.04125 -58.875 71.0625 C-62.75 71.125 -62.75 71.125 -65 70 C-66.33568021 70.32380126 -67.66923011 70.65657551 -69 71 C-69.33 70.67 -69.66 70.34 -70 70 C-70.4125 70.495 -70.825 70.99 -71.25 71.5 C-73 73 -73 73 -77 73 C-77 71.35 -77 69.7 -77 68 C-76.34 68 -75.68 68 -75 68 C-75 65.36 -75 62.72 -75 60 C-75.66 60 -76.32 60 -77 60 C-77.99 56.535 -77.99 56.535 -79 53 C-73.25 49 -73.25 49 -71 49 C-70.855625 48.38125 -70.71125 47.7625 -70.5625 47.125 C-70 45 -70 45 -69 43 C-68.46375 43.309375 -67.9275 43.61875 -67.375 43.9375 C-64.6015043 45.17827439 -61.99957163 45.5909675 -59 46 C-59 45.34 -59 44.68 -59 44 C-58.01 44 -57.02 44 -56 44 C-55.67 43.01 -55.34 42.02 -55 41 C-54.34 41 -53.68 41 -53 41 C-53.14165893 38.60385425 -53.28818841 36.20817103 -53.4375 33.8125 C-53.47681641 33.13896484 -53.51613281 32.46542969 -53.55664062 31.77148438 C-53.78927565 28.10300898 -54.17207011 24.58305794 -55 21 C-51.04 20.505 -51.04 20.505 -47 20 C-46.505 18.515 -46.505 18.515 -46 17 C-45.01 17.33 -44.02 17.66 -43 18 C-40.20127563 15.47211993 -38.54226981 13.79588866 -38 10 C-38 10.66 -38 11.32 -38 12 C-37.34 12 -36.68 12 -36 12 C-35.67 11.34 -35.34 10.68 -35 10 C-34.01 10 -33.02 10 -32 10 C-32 10.66 -32 11.32 -32 12 C-30.37007308 11.60304363 -28.74607765 11.18167507 -27.125 10.75 C-26.22007812 10.51796875 -25.31515625 10.2859375 -24.3828125 10.046875 C-21.49092002 8.77633863 -21.21274722 7.81881787 -20 5 C-16.99416882 2.99611255 -16.10204608 2.73589265 -12.6875 2.5 C-8.34240178 2.1107811 -4.23693812 0 0 0 Z " fill="#77B5B5" transform="translate(207,86)"/>
<path d="M0 0 C3.44148018 4.58864023 3.39681791 7.26676503 3.29296875 12.703125 C3.28872391 13.54091492 3.28447906 14.37870483 3.28010559 15.24188232 C3.26334408 17.91158502 3.22569711 20.58052637 3.1875 23.25 C3.17244987 25.06248908 3.15876203 26.87499002 3.14648438 28.6875 C3.11344889 33.12529231 3.06168443 37.56251717 3 42 C3.67764404 41.96970703 4.35528809 41.93941406 5.0534668 41.90820312 C20.0461008 41.25090866 34.99309948 40.85662197 50 41 C51.125 43.25 51.125 43.25 52 46 C51.1953125 48.015625 51.1953125 48.015625 50 50 C49.57848115 51.57158878 49.2031166 53.15629082 48.875 54.75 C48.70742187 55.54921875 48.53984375 56.3484375 48.3671875 57.171875 C48.18542969 58.07679688 48.18542969 58.07679688 48 59 C48.66 59 49.32 59 50 59 C49.67 61.31 49.34 63.62 49 66 C49.99 66.495 49.99 66.495 51 67 C49.02 67.495 49.02 67.495 47 68 C48.32 68 49.64 68 51 68 C50.505 69.98 50.505 69.98 50 72 C49.13648926 71.83628906 48.27297852 71.67257813 47.38330078 71.50390625 C44.13747657 71.02047566 41.14417034 70.90067422 37.8671875 70.9375 C36.73152344 70.94523437 35.59585938 70.95296875 34.42578125 70.9609375 C33.25402344 70.97382813 32.08226562 70.98671875 30.875 71 C28.5391091 71.02552886 26.20316348 71.04655477 23.8671875 71.0625 C22.83706543 71.07410156 21.80694336 71.08570313 20.74560547 71.09765625 C18.31468431 71.01119276 16.31657235 70.70362855 14 70 C14 69.34 14 68.68 14 68 C12.948125 68.309375 11.89625 68.61875 10.8125 68.9375 C7.87247604 69.75685094 4.99838377 70.45483931 2 71 C2.24398781 72.90905373 2.24398781 72.90905373 2.49290466 74.85667419 C3.06292636 80.01542886 3.13396677 85.10754476 3.11352539 90.29321289 C3.11367142 91.27963776 3.11381744 92.26606262 3.1139679 93.28237915 C3.11327643 96.51249462 3.10552021 99.74255097 3.09765625 102.97265625 C3.09578934 105.22423776 3.09436673 107.47581967 3.09336853 109.72740173 C3.08956482 115.63086077 3.079753 121.53429489 3.06866455 127.43774414 C3.05840415 133.47086246 3.05386102 139.50398483 3.04882812 145.53710938 C3.03812868 157.35808381 3.02107822 169.17903983 3 181 C-0.87064145 175.19403783 -0.13878543 168.42683636 -0.11352539 161.68017578 C-0.11367142 160.65517471 -0.11381744 159.63017365 -0.1139679 158.57411194 C-0.11327316 155.19782367 -0.10550129 151.82159109 -0.09765625 148.4453125 C-0.09579051 146.09976227 -0.09436734 143.75421165 -0.09336853 141.40866089 C-0.08955562 135.24376342 -0.0797358 129.07888961 -0.06866455 122.91400146 C-0.05842407 116.61975423 -0.05386526 110.32550317 -0.04882812 104.03125 C-0.03811243 91.68748962 -0.02105073 79.34374678 0 67 C4.27734005 66.98530095 8.55467347 66.97653434 12.83203125 66.96875 C14.03025513 66.96456055 15.228479 66.96037109 16.4630127 66.95605469 C26.00784181 66.9430619 35.48278097 67.30331469 45 68 C45.18175781 66.19015625 45.18175781 66.19015625 45.3671875 64.34375 C45.53615881 62.72913529 45.70544656 61.11455368 45.875 59.5 C45.95363281 58.70851562 46.03226563 57.91703125 46.11328125 57.1015625 C46.19707031 56.31523437 46.28085938 55.52890625 46.3671875 54.71875 C46.44050293 54.00654297 46.51381836 53.29433594 46.58935547 52.56054688 C47.16444164 48.97463503 48.08870634 45.51545311 49 42 C47.19982422 42.13631836 47.19982422 42.13631836 45.36328125 42.27539062 C40.88319802 42.61384847 36.40282773 42.94836814 31.92236328 43.28173828 C29.98836427 43.42618232 28.05444321 43.57167439 26.12060547 43.71826172 C23.33060546 43.92956002 20.54034083 44.13700713 17.75 44.34375 C16.89446533 44.40937134 16.03893066 44.47499268 15.1574707 44.54260254 C14.33722412 44.60266479 13.51697754 44.66272705 12.671875 44.72460938 C11.9612793 44.77790405 11.25068359 44.83119873 10.51855469 44.8861084 C7.01574396 45.04450906 3.50639042 45 0 45 C0 30.15 0 15.3 0 0 Z " fill="#74AAB8" transform="translate(205,88)"/>
<path d="M0 0 C2.97 0.495 2.97 0.495 6 1 C6.495 3.475 6.495 3.475 7 6 C7.66 6 8.32 6 9 6 C9.495 8.97 9.495 8.97 10 12 C10.78375 11.34 11.5675 10.68 12.375 10 C15 8 15 8 17 8 C17.16129032 17.67741935 17.16129032 17.67741935 16 20 C14.34795544 20.70211894 12.68076231 21.36971413 11 22 C10.505 23.485 10.505 23.485 10 25 C8.37667033 26.38576923 6.71275535 27.72641268 5 29 C5.495 29.99 5.495 29.99 6 31 C3 32 3 32 0.5625 31.875 C-2.59260233 32.02890743 -3.75014646 32.83049837 -6 35 C-6.33 35.99 -6.66 36.98 -7 38 C-8.77734375 38.84375 -8.77734375 38.84375 -10.9375 39.5 C-14.41979025 40.56175093 -14.8422431 40.76336466 -17 44 C-17.99 44 -18.98 44 -20 44 C-20 44.66 -20 45.32 -20 46 C-20.886875 46.144375 -21.77375 46.28875 -22.6875 46.4375 C-25.47321961 46.91054673 -28.231152 47.43917102 -31 48 C-33.47902475 48.50070313 -35.9582033 49.00064518 -38.4375 49.5 C-39.71496094 49.7578125 -40.99242187 50.015625 -42.30859375 50.28125 C-43.52675781 50.5184375 -44.74492187 50.755625 -46 51 C-47.10472656 51.2371875 -48.20945313 51.474375 -49.34765625 51.71875 C-50.22292969 51.8115625 -51.09820312 51.904375 -52 52 C-52.66 51.34 -53.32 50.68 -54 50 C-54.99 50.495 -54.99 50.495 -56 51 C-58.3329866 51.04022391 -60.66706666 51.04320247 -63 51 C-63 50.01 -63 49.02 -63 48 C-64.98 48 -66.96 48 -69 48 C-69.33 47.34 -69.66 46.68 -70 46 C-68.06447266 46.23396484 -68.06447266 46.23396484 -66.08984375 46.47265625 C-36.21586509 49.74531824 -15.09535939 38.81530882 8.0078125 20.6328125 C8.99394531 19.82457031 8.99394531 19.82457031 10 19 C9.3751604 15.79679931 8.24289152 13.5805155 6.4375 10.875 C4 7.21529745 4 7.21529745 4 5 C3.3915625 5.36351562 2.783125 5.72703125 2.15625 6.1015625 C-9.68530171 12.89304069 -22.65358682 19.59050529 -36.56640625 16.4140625 C-40.55894439 15.22206877 -43.18195153 14.14388533 -46 11 C-45.67 10.01 -45.34 9.02 -45 8 C-43.0625 8.8125 -43.0625 8.8125 -41 10 C-40.67 10.99 -40.34 11.98 -40 13 C-37.72923158 13.02699725 -35.45837179 13.04639453 -33.1875 13.0625 C-31.29064453 13.07990234 -31.29064453 13.07990234 -29.35546875 13.09765625 C-26.00394763 13.16159116 -26.00394763 13.16159116 -23 12 C-23 11.01 -23 10.02 -23 9 C-22.34 9 -21.68 9 -21 9 C-20.505 10.485 -20.505 10.485 -20 12 C-13.40555343 11.13270317 -8.25322372 9.37465249 -4 4 C-4 3.01 -4 2.02 -4 1 C-2.68 1.33 -1.36 1.66 0 2 C0 1.34 0 0.68 0 0 Z " fill="#4B95B1" transform="translate(255,264)"/>
<path d="M0 0 C3.44148018 4.58864023 3.39681791 7.26676503 3.29296875 12.703125 C3.28872391 13.54091492 3.28447906 14.37870483 3.28010559 15.24188232 C3.26334408 17.91158502 3.22569711 20.58052637 3.1875 23.25 C3.17244987 25.06248908 3.15876203 26.87499002 3.14648438 28.6875 C3.11344889 33.12529231 3.06168443 37.56251717 3 42 C3.67764404 41.96970703 4.35528809 41.93941406 5.0534668 41.90820312 C20.0461008 41.25090866 34.99309948 40.85662197 50 41 C52.11193482 45.34630065 52.11193482 45.34630065 51.609375 48.28125 C51.18398438 49.37953125 51.18398438 49.37953125 50.75 50.5 C50.45996094 51.27214844 50.16992188 52.04429687 49.87109375 52.83984375 C49.43990234 53.90912109 49.43990234 53.90912109 49 55 C48.4121875 56.5159375 48.4121875 56.5159375 47.8125 58.0625 C47.544375 58.701875 47.27625 59.34125 47 60 C45.48446908 56.02549507 46.50111377 52.79518851 47.4375 48.75 C47.86869141 46.85507813 47.86869141 46.85507813 48.30859375 44.921875 C48.53675781 43.95765625 48.76492187 42.9934375 49 42 C47.19982422 42.13631836 47.19982422 42.13631836 45.36328125 42.27539062 C40.88319802 42.61384847 36.40282773 42.94836814 31.92236328 43.28173828 C29.98836427 43.42618232 28.05444321 43.57167439 26.12060547 43.71826172 C23.33060546 43.92956002 20.54034083 44.13700713 17.75 44.34375 C16.89446533 44.40937134 16.03893066 44.47499268 15.1574707 44.54260254 C14.33722412 44.60266479 13.51697754 44.66272705 12.671875 44.72460938 C11.9612793 44.77790405 11.25068359 44.83119873 10.51855469 44.8861084 C7.01574396 45.04450906 3.50639042 45 0 45 C0 30.15 0 15.3 0 0 Z " fill="#7FB3B7" transform="translate(205,88)"/>
<path d="M0 0 C0.33 0 0.66 0 1 0 C1.01458252 0.94093506 1.02916504 1.88187012 1.04418945 2.85131836 C0.06273433 36.07954983 0.06273433 36.07954983 13.0390625 65.3359375 C18.074976 70.12272454 23.65569346 73.24506104 30 76 C30 76.66 30 77.32 30 78 C28.68 78 27.36 78 26 78 C25.34 78.226875 24.68 78.45375 24 78.6875 C22 79 22 79 19.75 77.875 C18 76 18 76 18 71 C14.37 70.67 10.74 70.34 7 70 C7 67 7 67 8 64 C7.1024755 62.01898657 7.1024755 62.01898657 5.75 59.875 C3.4553208 55.47607312 2.18366737 51.21717038 1.33984375 46.35546875 C1.21195969 45.62127213 1.08407562 44.8870755 0.95231628 44.13063049 C-0.45510859 35.24990623 -0.32828658 26.40268345 -0.1875 17.4375 C-0.17239655 15.73243395 -0.15871834 14.02735467 -0.14648438 12.32226562 C-0.11399414 8.21450607 -0.06253958 4.10740737 0 0 Z " fill="#4996B7" transform="translate(154,233)"/>
<path d="M0 0 C-1 3 -1 3 -3.1875 4.28125 C-6.1144999 5.54961662 -9.04485086 6.79849857 -12 8 C-12.7734375 8.32613281 -13.546875 8.65226562 -14.34375 8.98828125 C-22.67982907 12.17471727 -30.75675037 11.85657018 -39.125 8.94921875 C-41.17933296 7.90921269 -42.47070071 6.70612452 -44 5 C-43.67 4.01 -43.34 3.02 -43 2 C-41.0625 2.8125 -41.0625 2.8125 -39 4 C-38.67 4.99 -38.34 5.98 -38 7 C-35.72923158 7.02699725 -33.45837179 7.04639453 -31.1875 7.0625 C-29.29064453 7.07990234 -29.29064453 7.07990234 -27.35546875 7.09765625 C-24.00394763 7.16159116 -24.00394763 7.16159116 -21 6 C-21 5.01 -21 4.02 -21 3 C-20.34 3 -19.68 3 -19 3 C-18.67 3.99 -18.34 4.98 -18 6 C-12.21613295 5.0032338 -5.1880806 0 0 0 Z " fill="#5998B0" transform="translate(253,270)"/>
<path d="M0 0 C0.33 0 0.66 0 1 0 C1 6.93 1 13.86 1 21 C-2.62390715 22.17015783 -6.24902779 23.3362741 -9.875 24.5 C-10.90753906 24.83386719 -11.94007813 25.16773438 -13.00390625 25.51171875 C-13.99003906 25.82753906 -14.97617188 26.14335937 -15.9921875 26.46875 C-17.35899658 26.90864258 -17.35899658 26.90864258 -18.75341797 27.35742188 C-21 28 -21 28 -23 28 C-22.814375 28.94875 -22.62875 29.8975 -22.4375 30.875 C-22 34 -22 34 -23 36 C-23.66 36 -24.32 36 -25 36 C-25.66 33.69 -26.32 31.38 -27 29 C-21.25 25 -21.25 25 -19 25 C-18.7834375 24.071875 -18.7834375 24.071875 -18.5625 23.125 C-18 21 -18 21 -17 19 C-16.46375 19.309375 -15.9275 19.61875 -15.375 19.9375 C-12.6015043 21.17827439 -9.99957163 21.5909675 -7 22 C-7 21.34 -7 20.68 -7 20 C-4.69 20 -2.38 20 0 20 C0 13.4 0 6.8 0 0 Z " fill="#7DBCB5" transform="translate(155,110)"/>
<path d="M0 0 C0.33 0 0.66 0 1 0 C1.01458252 0.94093506 1.02916504 1.88187012 1.04418945 2.85131836 C1.14250565 31.45279864 1.14250565 31.45279864 8 59 C5 58 5 58 4.12109375 56.35546875 C0.06599999 43.49502854 -0.26117584 31.09780138 -0.125 17.75 C-0.11494488 16.02214063 -0.10582353 14.29427557 -0.09765625 12.56640625 C-0.07585539 8.37746077 -0.0414669 4.18879506 0 0 Z " fill="#609EAE" transform="translate(154,233)"/>
<path d="M0 0 C3.00617269 3.00617269 2.59585316 5.82381598 3 10 C4.27875 9.979375 5.5575 9.95875 6.875 9.9375 C11.96207017 9.92941245 16.9516147 10.40979211 22 11 C21.67 12.32 21.34 13.64 21 15 C20.67 14.34 20.34 13.68 20 13 C18.081875 13.0309375 18.081875 13.0309375 16.125 13.0625 C12.25 13.125 12.25 13.125 10 12 C8.66431979 12.32380126 7.33076989 12.65657551 6 13 C5.67 12.67 5.34 12.34 5 12 C4.5875 12.495 4.175 12.99 3.75 13.5 C2 15 2 15 -2 15 C-2 13.35 -2 11.7 -2 10 C-1.34 10 -0.68 10 0 10 C0 6.7 0 3.4 0 0 Z " fill="#67B5AF" transform="translate(132,144)"/>
<path d="M0 0 C11.55 0 23.1 0 35 0 C29.62768582 3.58154279 24.52330136 3.18292762 18.25 3.1875 C16.94675781 3.20586914 16.94675781 3.20586914 15.6171875 3.22460938 C10.06479744 3.23711476 5.3292075 2.56777848 0 1 C0 0.67 0 0.34 0 0 Z " fill="#D8F4F8" transform="translate(186,309)"/>
<path d="M0 0 C0.15620438 9.37226277 0.15620438 9.37226277 -1 12 C-1.99 12.33 -2.98 12.66 -4 13 C-4.99 10.03 -5.98 7.06 -7 4 C-2.25 0 -2.25 0 0 0 Z " fill="#3B96B9" transform="translate(272,272)"/>
<path d="M0 0 C2.4375 0.8125 2.4375 0.8125 5 2 C5.33 2.99 5.66 3.98 6 5 C11.94 5.66 17.88 6.32 24 7 C23.67 7.66 23.34 8.32 23 9 C15.44998787 9.38102865 7.42870546 9.58843769 1.25 4.58203125 C0 3 0 3 0 0 Z " fill="#649BB2" transform="translate(209,272)"/>
<path d="M0 0 C2.29109597 -0.08075665 4.58299267 -0.13907731 6.875 -0.1875 C8.78925781 -0.23970703 8.78925781 -0.23970703 10.7421875 -0.29296875 C11.81726563 -0.19628906 12.89234375 -0.09960938 14 0 C14.66 0.99 15.32 1.98 16 3 C13.66062093 4.16968953 12.22630632 4.13364221 9.625 4.125 C8.85414063 4.12757813 8.08328125 4.13015625 7.2890625 4.1328125 C5.01053926 4.00061149 3.13448223 3.81806147 1 3 C0.67 2.01 0.34 1.02 0 0 Z " fill="#71ACB6" transform="translate(218,155)"/>
<path d="M0 0 C0.33 0.99 0.66 1.98 1 3 C-0.98 3 -2.96 3 -5 3 C-5.33 4.32 -5.66 5.64 -6 7 C-8.375 7.625 -8.375 7.625 -11 8 C-11.66 7.34 -12.32 6.68 -13 6 C-11.40089132 4.99193149 -9.79551738 3.99379615 -8.1875 3 C-7.29417969 2.443125 -6.40085938 1.88625 -5.48046875 1.3125 C-3 0 -3 0 0 0 Z " fill="#DCF5FB" transform="translate(259,269)"/>
<path d="M0 0 C-2 3 -2 3 -5 4 C-6.89470816 4.0685495 -8.7916834 4.08480372 -10.6875 4.0625 C-11.68136719 4.05347656 -12.67523438 4.04445313 -13.69921875 4.03515625 C-14.83810547 4.01775391 -14.83810547 4.01775391 -16 4 C-13.03017788 2.41839705 -10.09120779 1.29656358 -6.875 0.3125 C-6.00617188 0.04050781 -5.13734375 -0.23148437 -4.2421875 -0.51171875 C-2 -1 -2 -1 0 0 Z " fill="#549AAF" transform="translate(226,309)"/>
<path d="M0 0 C0.99 0 1.98 0 3 0 C3.061875 0.556875 3.12375 1.11375 3.1875 1.6875 C4.35165517 5.00086472 6.39458444 6.70475296 9 9 C9.99 9.33 10.98 9.66 12 10 C12 10.99 12 11.98 12 13 C8.64065168 11.56875447 6.68207173 9.82271696 4.3125 7.0625 C3.71050781 6.37285156 3.10851562 5.68320312 2.48828125 4.97265625 C1 3 1 3 0 0 Z " fill="#DBF4F9" transform="translate(161,290)"/>
<path d="M0 0 C-1 3 -1 3 -2.63671875 4.16796875 C-6.93969729 6.30716379 -10.07385397 7.4926146 -15 7 C-12.66302971 4.66302971 -10.50902101 3.72905946 -7.5 2.375 C-6.03046875 1.70597656 -6.03046875 1.70597656 -4.53125 1.0234375 C-2 0 -2 0 0 0 Z " fill="#E1F8F8" transform="translate(186,97)"/>
<path d="M0 0 C0.33 0.66 0.66 1.32 1 2 C1.66 2 2.32 2 3 2 C3.33 1.34 3.66 0.68 4 0 C4.99 0 5.98 0 7 0 C7.33 1.32 7.66 2.64 8 4 C5.09399739 5.25664978 3.20395416 6 0 6 C0 4.02 0 2.04 0 0 Z " fill="#63BBB1" transform="translate(168,96)"/>
<path d="M0 0 C1.32 0.66 2.64 1.32 4 2 C0.04 3.98 -3.92 5.96 -8 8 C-8.66 7.34 -9.32 6.68 -10 6 C-4.25 3 -4.25 3 -2 3 C-2 2.34 -2 1.68 -2 1 C-1.34 0.67 -0.68 0.34 0 0 Z " fill="#DCF5FA" transform="translate(237,299)"/>
<path d="M0 0 C1.32 0 2.64 0 4 0 C3.67 0.99 3.34 1.98 3 3 C2.01 3 1.02 3 0 3 C0 3.66 0 4.32 0 5 C-3.72430357 5.69289369 -7.21083746 6.11144596 -11 6 C-9.875 4.5 -9.875 4.5 -8 3 C-6 3 -4 3 -2 3 C-1.34 2.01 -0.68 1.02 0 0 Z " fill="#3A93B5" transform="translate(235,305)"/>
<path d="M0 0 C0.66 0 1.32 0 2 0 C2.33 0.99 2.66 1.98 3 3 C3.66 3.66 4.32 4.32 5 5 C-0.66642551 6.22517308 -6.23708518 6.09228867 -12 6 C-11.67 5.34 -11.34 4.68 -11 4 C-8.02148438 4.04882812 -8.02148438 4.04882812 -5.04296875 4.09765625 C-2.79694539 4.08263217 -2.79694539 4.08263217 0 3 C0 2.01 0 1.02 0 0 Z " fill="#4696B9" transform="translate(232,273)"/>
<path d="M0 0 C1.12588014 0.95729916 2.2506715 1.91587895 3.375 2.875 C4.00148437 3.40867187 4.62796875 3.94234375 5.2734375 4.4921875 C6.55836651 5.61432007 7.79371975 6.79371975 9 8 C3.56603774 7.39622642 3.56603774 7.39622642 1.125 5.6875 C0 4 0 4 0 0 Z " fill="#5F9EB7" transform="translate(164,296)"/>
<path d="M0 0 C-2.36689329 2.19219402 -3.51727269 2.9871902 -6.796875 3.07421875 C-7.77140625 2.94660156 -8.7459375 2.81898438 -9.75 2.6875 C-10.73484375 2.56761719 -11.7196875 2.44773438 -12.734375 2.32421875 C-13.48203125 2.21722656 -14.2296875 2.11023438 -15 2 C-15 1.67 -15 1.34 -15 1 C-9.92928099 0.28832014 -5.11791642 -0.10662326 0 0 Z " fill="#E4F8F9" transform="translate(220,132)"/>
<path d="M0 0 C5.75 1.75 5.75 1.75 8 4 C6 5 6 5 2.875 4.0625 C1.92625 3.711875 0.9775 3.36125 0 3 C0 2.01 0 1.02 0 0 Z " fill="#5597B1" transform="translate(172,304)"/>
<path d="M0 0 C0.66 0.33 1.32 0.66 2 1 C1.8125 2.8125 1.8125 2.8125 1 5 C-1.5625 6.75 -1.5625 6.75 -4 8 C-4 7.01 -4 6.02 -4 5 C-3.01 4.34 -2.02 3.68 -1 3 C-0.67 2.01 -0.34 1.02 0 0 Z " fill="#D6F3F9" transform="translate(264,279)"/>
<path d="M0 0 C1.98 0 3.96 0 6 0 C5.67 1.32 5.34 2.64 5 4 C2.03 3.505 2.03 3.505 -1 3 C-0.67 2.01 -0.34 1.02 0 0 Z " fill="#5AA5B9" transform="translate(250,156)"/>
<path d="M0 0 C1.32 0.66 2.64 1.32 4 2 C3.01 3.485 3.01 3.485 2 5 C0.68 5 -0.64 5 -2 5 C-1.34 3.35 -0.68 1.7 0 0 Z " fill="#62BCB2" transform="translate(138,129)"/>
<path d="M0 0 C-5.75 4 -5.75 4 -8 4 C-5.97675095 -0.48005146 -4.79569304 -1.43870791 0 0 Z " fill="#D8F2F8" transform="translate(249,296)"/>
<path d="M0 0 C2.31 0 4.62 0 7 0 C7.33 0.99 7.66 1.98 8 3 C2.25 2.25 2.25 2.25 0 0 Z " fill="#D6F4F9" transform="translate(178,306)"/>
</svg>
