<svg width="30" height="30" viewBox="0 0 570 800" xmlns="http://www.w3.org/2000/svg">
  <g transform="scale(1,-1) translate(0,-800)">
    <path d="M134 4q-48 22 -74 61.5t-26 91.5q0 44 18.5 80t50 57t69.5 21q35 0 59 -17.5t30 -48.5q-52 0 -83 -27.5t-31 -74.5q0 -43 26 -69t69 -26q53 0 87.5 35.5t34.5 89.5q0 47 -26 89t-78 102q-54 62 -81.5 106.5t-27.5 97.5q0 52 29 93.5t80 65.5t115 24q81 0 129.5 -38t48.5 -102q0 -42 -21 -68t-55 -26q-38 0 -61 31q19 14 30 37t11 48q0 32 -19 51t-52 19q-40 0 -65.5 -28.5t-25.5 -72.5q0 -40 23 -74.5t72 -88.5q40 -43 64.5 -74t42 -71.5t17.5 -87.5q0 -64 -35.5 -116t-97 -82t-136.5 -30q-63 0 -111 22z" fill="white"/>
  </g>
</svg>
